<?xml version="1.0" encoding="UTF-8"?>
<svg width="46px" height="46px" viewBox="0 0 46 46" version="1.1" xmlns="http://www.w3.org/2000/svg" xmlns:xlink="http://www.w3.org/1999/xlink">
    <!-- Generator: sketchtool 51.3 (57544) - http://www.bohemiancoding.com/sketch -->
    <title>DAC23F24-2C99-4C5D-8257-FCE8EFFBD136</title>
    <desc>Created with sketchtool.</desc>
    <defs>
        <polygon id="path-1" points="7.81647687e-05 -0.0003 37.194 -0.0003 37.194 41.9565 7.81647687e-05 41.9565"></polygon>
    </defs>
    <g id="Symbols" stroke="none" stroke-width="1" fill="none" fill-rule="evenodd">
        <g id="Icons-/-46-/-24-hours">
            <rect id="Bounds" fill-rule="nonzero" x="0" y="0" width="46" height="46"></rect>
            <g id="Group-3" transform="translate(4.000000, 2.000000)">
                <mask id="mask-2" fill="white">
                    <use xlink:href="#path-1"></use>
                </mask>
                <g id="Clip-2"></g>
                <path d="M21.307,22.6967 L23.056,20.4277 L23.629,19.2177 L23.696,19.2177 L23.545,20.6307 L23.545,23.2027 L21.541,23.2027 L20.465,23.3357 L21.307,22.6967 Z M18.444,24.9487 L23.545,24.9487 L23.545,28.2267 L25.582,28.2267 L25.582,24.9487 L27.433,24.9487 L27.433,23.2027 L25.582,23.2027 L25.582,16.3787 L23.781,16.3787 L18.444,23.7067 L18.444,24.9487 Z M14.161,20.9507 C14.312,20.5227 14.389,20.1207 14.389,19.7387 C14.389,19.2807 14.256,18.9017 13.993,18.6047 C13.729,18.3087 13.311,18.1597 12.739,18.1597 C12.379,18.1597 12.012,18.2347 11.636,18.3857 C11.261,18.5377 10.944,18.7307 10.685,18.9667 L9.81,17.4207 C10.247,17.0617 10.744,16.7727 11.299,16.5547 C11.855,16.3357 12.509,16.2267 13.26,16.2267 C13.743,16.2267 14.187,16.2937 14.59,16.4277 C14.995,16.5627 15.342,16.7597 15.634,17.0167 C15.926,17.2747 16.156,17.5957 16.325,17.9827 C16.493,18.3697 16.578,18.8217 16.578,19.3357 C16.578,19.9077 16.473,20.4847 16.265,21.0677 C16.057,21.6497 15.794,22.2207 15.475,22.7807 C15.154,23.3417 14.801,23.8827 14.413,24.4037 C14.027,24.9247 13.648,25.4037 13.278,25.8397 L12.385,26.5287 L12.385,26.6137 L13.597,26.3787 L16.829,26.3787 L16.829,28.2267 L9.743,28.2267 L9.743,27.0997 C10.013,26.8217 10.315,26.4927 10.651,26.1177 C10.988,25.7427 11.328,25.3437 11.67,24.9247 C12.012,24.5047 12.346,24.0697 12.672,23.6217 C12.997,23.1747 13.288,22.7217 13.547,22.2687 C13.805,21.8157 14.009,21.3757 14.161,20.9507 Z M11.895,36.5837 C11.724,37.1117 11.629,37.6737 11.629,38.2587 C11.629,38.3907 11.64,38.5207 11.649,38.6517 C7.752,37.1887 4.51,34.4447 2.407,30.7897 C0.008,26.6227 -0.623,21.7707 0.628,17.1287 C2.275,11.0157 6.922,6.3087 12.924,4.5467 L12.882,-0.0003 L22.431,5.3977 L12.983,10.9687 L12.943,6.6387 C7.874,8.3247 3.973,12.4017 2.558,17.6487 C1.447,21.7747 2.008,26.0887 4.14,29.7927 C5.925,32.8937 8.64,35.2437 11.895,36.5837 Z M35.267,25.8637 L33.803,32.1657 C33.695,32.6327 33.409,33.0297 32.998,33.2857 C32.582,33.5447 32.097,33.6197 31.593,33.5027 L29.951,33.1487 L32.086,23.1827 L33.919,23.6997 C34.387,23.8087 34.786,24.0937 35.04,24.5037 C35.295,24.9127 35.376,25.3957 35.267,25.8637 Z M19.836,40.0777 L17.078,40.0777 C16.075,40.0777 15.259,39.2607 15.259,38.2587 C15.259,37.2557 16.075,36.4387 17.078,36.4387 L19.836,36.4387 C20.84,36.4387 21.656,37.2557 21.656,38.2587 C21.656,39.2607 20.84,40.0777 19.836,40.0777 Z M36.634,23.5117 C36.113,22.6747 35.311,22.0937 34.387,21.8807 C34.264,21.8457 31.363,21.0397 30.885,20.9487 L30.632,20.8997 L30.591,21.1537 C30.539,21.4727 28.715,29.9677 27.756,34.4257 C27.738,34.5317 27.276,36.9737 23.401,37.2807 C22.965,35.6917 21.499,34.5597 19.836,34.5597 L17.078,34.5597 C15.038,34.5597 13.379,36.2187 13.379,38.2587 C13.379,40.2977 15.038,41.9567 17.078,41.9567 L19.836,41.9567 C21.534,41.9567 23.011,40.7917 23.421,39.1587 C26.216,38.9657 27.743,37.8107 28.535,36.8647 C29.154,36.1257 29.448,35.3667 29.557,34.9857 L31.214,35.3427 C32.175,35.5667 33.168,35.3937 33.992,34.8797 C34.828,34.3587 35.412,33.5467 35.634,32.5917 L37.098,26.2897 C37.32,25.3347 37.155,24.3477 36.634,23.5117 Z" id="Fill-1" fill="#000000" mask="url(#mask-2)"></path>
            </g>
        </g>
    </g>
</svg>