<?xml version="1.0" encoding="UTF-8"?>
<svg width="46px" height="46px" viewBox="0 0 46 46" version="1.1" xmlns="http://www.w3.org/2000/svg" xmlns:xlink="http://www.w3.org/1999/xlink">
    <!-- Generator: sketchtool 51.3 (57544) - http://www.bohemiancoding.com/sketch -->
    <title>ADA444C9-8963-4369-ADA7-55C00A299D27</title>
    <desc>Created with sketchtool.</desc>
    <defs></defs>
    <g id="Symbols" stroke="none" stroke-width="1" fill="none" fill-rule="evenodd">
        <g id="Icons-/-46-/-5-min">
            <rect id="Bounds" fill-rule="nonzero" x="0" y="0" width="46" height="46"></rect>
            <path d="M23,26 L30.389,15.327 C28.291,13.864 25.748,13 23,13 L23,26 Z M36,27 L36,25 L37.949,25 C37.813,22.944 37.242,21.013 36.36,19.265 L36.39,19.265 C36.275,19.039 36.151,18.821 36.026,18.603 C36.008,18.568 35.99,18.533 35.971,18.5 C35.715,18.058 35.435,17.633 35.137,17.221 C35.095,17.162 35.052,17.105 35.009,17.049 C34.383,16.207 33.671,15.436 32.886,14.743 C32.861,14.721 32.837,14.697 32.812,14.676 C32.409,14.326 31.988,13.998 31.55,13.691 C31.543,13.687 31.537,13.682 31.531,13.678 L31.53,13.679 C29.109,11.994 26.174,11 23,11 C15.066,11 8.569,17.195 8.051,25 L10,25 L10,27 L8.051,27 C8.547,34.473 14.527,40.453 22,40.949 L22,39 L24,39 L24,40.949 C31.473,40.453 37.453,34.473 37.949,27 L36,27 Z M40,26 C40,35.389 32.389,43 23,43 C13.611,43 6,35.389 6,26 C6,24.239 6.268,22.542 6.765,20.944 C7.261,19.348 7.987,17.852 8.903,16.495 C10.048,14.801 11.5,13.335 13.165,12.15 C15.943,10.174 19.331,9 23,9 C26.669,9 30.057,10.174 32.835,12.15 C34.5,13.335 35.951,14.801 37.097,16.495 C38.014,17.852 38.739,19.348 39.235,20.944 C39.732,22.542 40,24.239 40,26 Z M18,5 C18,3.896 18.896,3 20,3 L26,3 C27.104,3 28,3.896 28,5 C28,6.104 27.104,7 26,7 L20,7 C18.896,7 18,6.104 18,5 Z" id="Fill-1" fill="#000000"></path>
        </g>
    </g>
</svg>