<?xml version="1.0" standalone="no"?>
<!DOCTYPE svg PUBLIC "-//W3C//DTD SVG 1.1//EN" "http://www.w3.org/Graphics/SVG/1.1/DTD/svg11.dtd">
<!--Generator: Xara Designer (www.xara.com), SVG filter version: 4.0.0.1-->
<svg stroke-width="0.501" stroke-linejoin="bevel" fill-rule="evenodd" xmlns:xlink="http://www.w3.org/1999/xlink" xmlns="http://www.w3.org/2000/svg" version="1.1" overflow="visible" width="28.5pt" height="26.999pt" viewBox="0 0 28.5 26.999">
 <defs>
  <marker id="DefaultArrow2" markerUnits="strokeWidth" viewBox="0 0 1 1" markerWidth="1" markerHeight="1" overflow="visible" orient="auto">
   <!-- REF_ARROW_STRAIGHT (-2) -->
   <g transform="scale(0.0092592592)">
    <!-- 1/108 -->
    <path d="M -9 54 L -9 -54 L 117 0 z"/>
   </g>
  </marker>
  <marker id="DefaultArrow3" markerUnits="strokeWidth" viewBox="0 0 1 1" markerWidth="1" markerHeight="1" overflow="visible" orient="auto">
   <!-- REF_ARROW_ANGLED -->
   <g transform="scale(0.0092592592)">
    <path d="M -27 54 L -9 0 L -27 -54 L 135 0 z"/>
   </g>
  </marker>
  <marker id="DefaultArrow4" markerUnits="strokeWidth" viewBox="0 0 1 1" markerWidth="1" markerHeight="1" overflow="visible" orient="auto">
   <!-- REF_ARROW_ROUNDED -->
   <g transform="scale(0.0092592592)">
    <path d="M -9,0 L -9,-45 C -9,-51.708 2.808,-56.580 9,-54 L 117,-9 C 120.916,-7.369 126.000,-4.242 126,0 C 126,4.242 120.916,7.369 117,9 L 9,54 C 2.808,56.580 -9,51.708 -9,45 z"/>
   </g>
  </marker>
  <marker id="DefaultArrow5" markerUnits="strokeWidth" viewBox="0 0 1 1" markerWidth="1" markerHeight="1" overflow="visible" orient="auto">
   <!-- REF_ARROW_SPOT -->
   <g transform="scale(0.0092592592)">
    <path d="M -54, 0 C -54,29.807 -29.807,54 0,54 C 29.807,54 54,29.807 54,0 C 54,-29.807 29.807,-54 0,-54 C -29.807,-54 -54,-29.807 -54,0 z"/>
   </g>
  </marker>
  <marker id="DefaultArrow6" markerUnits="strokeWidth" viewBox="0 0 1 1" markerWidth="1" markerHeight="1" overflow="visible" orient="auto">
   <!-- REF_ARROW_DIAMOND -->
   <g transform="scale(0.0092592592)">
    <path d="M -63,0 L 0,63 L 63,0 L 0,-63 z"/>
   </g>
  </marker>
  <marker id="DefaultArrow7" markerUnits="strokeWidth" viewBox="0 0 1 1" markerWidth="1" markerHeight="1" overflow="visible" orient="auto">
   <!-- REF_ARROW_FEATHER -->
   <g transform="scale(0.0092592592)">
    <path d="M 18,-54 L 108,-54 L 63,0 L 108,54 L 18, 54 L -36,0 z"/>
   </g>
  </marker>
  <marker id="DefaultArrow8" markerUnits="strokeWidth" viewBox="0 0 1 1" markerWidth="1" markerHeight="1" overflow="visible" orient="auto">
   <!-- REF_ARROW_FEATHER2 -->
   <g transform="scale(0.0092592592)">
    <path d="M -36,0 L 18,-54 L 54,-54 L 18,-18 L 27,-18 L 63,-54 L 99,-54 L 63,-18 L 72,-18 L 108,-54 L 144,-54 L 90,0 L 144,54 L 108,54 L 72,18 L 63,18 L 99,54 L 63,54 L 27,18 L 18,18 L 54,54 L 18,54 z"/>
   </g>
  </marker>
  <marker id="DefaultArrow9" markerUnits="strokeWidth" viewBox="0 0 1 1" markerWidth="1" markerHeight="1" overflow="visible" orient="auto">
   <!-- REF_ARROW_HOLLOWDIAMOND -->
   <g transform="scale(0.0092592592)">
    <path d="M 0,45 L -45,0 L 0, -45 L 45, 0 z M 0, 63 L-63, 0 L 0, -63 L 63, 0 z"/>
   </g>
  </marker>
  <filter id="StainedFilter">
   <feBlend mode="multiply" in2="BackgroundImage" in="SourceGraphic" result="blend"/>
   <feComposite in="blend" in2="SourceAlpha" operator="in" result="comp"/>
  </filter>
  <filter id="BleachFilter">
   <feBlend mode="screen" in2="BackgroundImage" in="SourceGraphic" result="blend"/>
   <feComposite in="blend" in2="SourceAlpha" operator="in" result="comp"/>
  </filter>
  <filter id="InvertTransparencyBitmapFilter">
   <feComponentTransfer>
    <feFuncR type="gamma" amplitude="1.055" exponent=".416666666" offset="-0.055"/>
    <feFuncG type="gamma" amplitude="1.055" exponent=".416666666" offset="-0.055"/>
    <feFuncB type="gamma" amplitude="1.055" exponent=".416666666" offset="-0.055"/>
   </feComponentTransfer>
   <feComponentTransfer>
    <feFuncR type="linear" slope="-1" intercept="1"/>
    <feFuncG type="linear" slope="-1" intercept="1"/>
    <feFuncB type="linear" slope="-1" intercept="1"/>
    <feFuncA type="linear" slope="1" intercept="0"/>
   </feComponentTransfer>
   <feComponentTransfer>
    <feFuncR type="gamma" amplitude="1" exponent="2.4" offset="0"/>
    <feFuncG type="gamma" amplitude="1" exponent="2.4" offset="0"/>
    <feFuncB type="gamma" amplitude="1" exponent="2.4" offset="0"/>
   </feComponentTransfer>
  </filter>
 </defs>
 <g id="Document" fill="none" stroke="black" font-family="Times New Roman" font-size="16" transform="scale(1 -1)">
  <g id="Spread" transform="translate(0 -26.999)">
   <g id="Layer 1">
    <g id="Group" stroke="none">
     <path d="M 0.001,26.998 L 0.001,-0.001 L 28.504,-0.001 L 28.504,26.998 L 0.001,26.998 Z" stroke-linejoin="miter" marker-start="none" marker-end="none"/>
     <path d="M 10.929,-0.001 L 8.915,2.574 L 5.361,2.515 L 4.628,5.935 L 1.396,7.4 L 2.247,10.798 L 0.001,13.473 L 0.001,13.524 L 2.247,16.199 L 1.396,19.596 L 4.63,21.061 L 5.361,24.482 L 8.915,24.422 L 10.929,26.998 L 11.468,26.998 L 14.253,25.62 L 17.037,26.998 L 17.576,26.998 L 19.592,24.422 L 23.145,24.482 L 23.878,21.061 L 27.11,19.596 L 26.259,16.198 L 28.504,13.522 L 28.504,13.471 L 26.259,10.798 L 27.11,7.4 L 23.877,5.935 L 23.145,2.515 L 19.592,2.574 L 17.576,-0.001 L 17.037,-0.001 L 14.253,1.376 L 11.468,-0.001 L 10.929,-0.001 Z M 11.509,1.692 L 14.252,3.049 L 16.997,1.692 L 18.871,4.087 L 21.936,4.036 L 22.568,6.988 L 25.351,8.249 L 24.618,11.177 L 26.566,13.498 L 24.618,15.821 L 25.351,18.747 L 22.569,20.008 L 21.936,22.961 L 18.871,22.909 L 16.997,25.305 L 14.254,23.947 L 11.509,25.305 L 9.636,22.909 L 6.57,22.961 L 5.939,20.008 L 3.155,18.747 L 3.888,15.82 L 1.939,13.499 L 3.888,11.177 L 3.155,8.249 L 5.937,6.988 L 6.57,4.036 L 9.636,4.087 L 11.509,1.692 Z M 8.135,10.004 C 8.819,10.936 9.826,11.925 10.624,12.88 C 11.461,13.881 11.928,14.689 11.928,15.338 L 11.928,15.621 C 11.928,16.219 11.521,16.687 10.919,16.687 L 10.575,16.687 C 10.148,16.687 9.561,16.507 9.485,15.784 C 9.443,15.372 9.074,15.073 8.662,15.116 C 8.25,15.158 7.951,15.527 7.994,15.939 C 8.071,16.683 8.416,17.266 8.921,17.653 C 9.411,18.028 10.01,18.187 10.575,18.187 L 10.919,18.187 C 12.43,18.187 13.428,16.976 13.428,15.621 L 13.428,15.338 C 13.428,14.067 12.574,12.874 11.774,11.918 C 11.356,11.417 10.904,10.929 10.479,10.46 L 10.345,10.311 L 12.678,10.311 C 13.091,10.311 13.428,9.974 13.428,9.561 C 13.428,9.147 13.091,8.811 12.678,8.811 L 8.74,8.811 C 8.126,8.811 7.772,9.51 8.135,10.004 Z M 15.157,9.78 C 14.871,10.08 14.882,10.555 15.181,10.841 C 15.481,11.127 15.956,11.116 16.242,10.817 C 16.537,10.508 16.949,10.318 17.407,10.318 C 18.294,10.318 19.015,11.038 19.015,11.924 C 19.015,12.808 18.294,13.529 17.407,13.529 C 17.067,13.529 16.753,13.424 16.494,13.245 C 16.413,13.188 16.325,13.151 16.234,13.13 C 16.117,13.054 15.977,13.01 15.828,13.01 C 15.414,13.01 15.078,13.346 15.078,13.76 L 15.078,17.437 C 15.078,17.85 15.414,18.187 15.828,18.187 L 19.766,18.187 C 20.179,18.187 20.516,17.85 20.516,17.437 C 20.516,17.023 20.179,16.687 19.766,16.687 L 16.578,16.687 L 16.577,14.916 C 16.841,14.989 17.119,15.029 17.407,15.029 C 19.121,15.029 20.515,13.639 20.515,11.924 C 20.515,10.209 19.121,8.818 17.407,8.818 C 16.522,8.818 15.722,9.189 15.157,9.78 Z" stroke-width="0.5" fill="#000000" fill-rule="evenodd" marker-start="none" marker-end="none" stroke-miterlimit="79.8403193612775"/>
    </g>
   </g>
  </g>
 </g>
</svg>
