<?xml version="1.0" standalone="no"?>
<!DOCTYPE svg PUBLIC "-//W3C//DTD SVG 1.1//EN" "http://www.w3.org/Graphics/SVG/1.1/DTD/svg11.dtd">
<!--Generator: Xara Designer (www.xara.com), SVG filter version: 4.0.0.1-->
<svg stroke-width="0.501" stroke-linejoin="bevel" fill-rule="evenodd" xmlns:xlink="http://www.w3.org/1999/xlink" xmlns="http://www.w3.org/2000/svg" version="1.1" overflow="visible" width="27pt" height="26.999pt" viewBox="0 0 27 26.999">
 <defs>
  <marker id="DefaultArrow2" markerUnits="strokeWidth" viewBox="0 0 1 1" markerWidth="1" markerHeight="1" overflow="visible" orient="auto">
   <!-- REF_ARROW_STRAIGHT (-2) -->
   <g transform="scale(0.0092592592)">
    <!-- 1/108 -->
    <path d="M -9 54 L -9 -54 L 117 0 z"/>
   </g>
  </marker>
  <marker id="DefaultArrow3" markerUnits="strokeWidth" viewBox="0 0 1 1" markerWidth="1" markerHeight="1" overflow="visible" orient="auto">
   <!-- REF_ARROW_ANGLED -->
   <g transform="scale(0.0092592592)">
    <path d="M -27 54 L -9 0 L -27 -54 L 135 0 z"/>
   </g>
  </marker>
  <marker id="DefaultArrow4" markerUnits="strokeWidth" viewBox="0 0 1 1" markerWidth="1" markerHeight="1" overflow="visible" orient="auto">
   <!-- REF_ARROW_ROUNDED -->
   <g transform="scale(0.0092592592)">
    <path d="M -9,0 L -9,-45 C -9,-51.708 2.808,-56.580 9,-54 L 117,-9 C 120.916,-7.369 126.000,-4.242 126,0 C 126,4.242 120.916,7.369 117,9 L 9,54 C 2.808,56.580 -9,51.708 -9,45 z"/>
   </g>
  </marker>
  <marker id="DefaultArrow5" markerUnits="strokeWidth" viewBox="0 0 1 1" markerWidth="1" markerHeight="1" overflow="visible" orient="auto">
   <!-- REF_ARROW_SPOT -->
   <g transform="scale(0.0092592592)">
    <path d="M -54, 0 C -54,29.807 -29.807,54 0,54 C 29.807,54 54,29.807 54,0 C 54,-29.807 29.807,-54 0,-54 C -29.807,-54 -54,-29.807 -54,0 z"/>
   </g>
  </marker>
  <marker id="DefaultArrow6" markerUnits="strokeWidth" viewBox="0 0 1 1" markerWidth="1" markerHeight="1" overflow="visible" orient="auto">
   <!-- REF_ARROW_DIAMOND -->
   <g transform="scale(0.0092592592)">
    <path d="M -63,0 L 0,63 L 63,0 L 0,-63 z"/>
   </g>
  </marker>
  <marker id="DefaultArrow7" markerUnits="strokeWidth" viewBox="0 0 1 1" markerWidth="1" markerHeight="1" overflow="visible" orient="auto">
   <!-- REF_ARROW_FEATHER -->
   <g transform="scale(0.0092592592)">
    <path d="M 18,-54 L 108,-54 L 63,0 L 108,54 L 18, 54 L -36,0 z"/>
   </g>
  </marker>
  <marker id="DefaultArrow8" markerUnits="strokeWidth" viewBox="0 0 1 1" markerWidth="1" markerHeight="1" overflow="visible" orient="auto">
   <!-- REF_ARROW_FEATHER2 -->
   <g transform="scale(0.0092592592)">
    <path d="M -36,0 L 18,-54 L 54,-54 L 18,-18 L 27,-18 L 63,-54 L 99,-54 L 63,-18 L 72,-18 L 108,-54 L 144,-54 L 90,0 L 144,54 L 108,54 L 72,18 L 63,18 L 99,54 L 63,54 L 27,18 L 18,18 L 54,54 L 18,54 z"/>
   </g>
  </marker>
  <marker id="DefaultArrow9" markerUnits="strokeWidth" viewBox="0 0 1 1" markerWidth="1" markerHeight="1" overflow="visible" orient="auto">
   <!-- REF_ARROW_HOLLOWDIAMOND -->
   <g transform="scale(0.0092592592)">
    <path d="M 0,45 L -45,0 L 0, -45 L 45, 0 z M 0, 63 L-63, 0 L 0, -63 L 63, 0 z"/>
   </g>
  </marker>
  <filter id="StainedFilter">
   <feBlend mode="multiply" in2="BackgroundImage" in="SourceGraphic" result="blend"/>
   <feComposite in="blend" in2="SourceAlpha" operator="in" result="comp"/>
  </filter>
  <filter id="BleachFilter">
   <feBlend mode="screen" in2="BackgroundImage" in="SourceGraphic" result="blend"/>
   <feComposite in="blend" in2="SourceAlpha" operator="in" result="comp"/>
  </filter>
  <filter id="InvertTransparencyBitmapFilter">
   <feComponentTransfer>
    <feFuncR type="gamma" amplitude="1.055" exponent=".416666666" offset="-0.055"/>
    <feFuncG type="gamma" amplitude="1.055" exponent=".416666666" offset="-0.055"/>
    <feFuncB type="gamma" amplitude="1.055" exponent=".416666666" offset="-0.055"/>
   </feComponentTransfer>
   <feComponentTransfer>
    <feFuncR type="linear" slope="-1" intercept="1"/>
    <feFuncG type="linear" slope="-1" intercept="1"/>
    <feFuncB type="linear" slope="-1" intercept="1"/>
    <feFuncA type="linear" slope="1" intercept="0"/>
   </feComponentTransfer>
   <feComponentTransfer>
    <feFuncR type="gamma" amplitude="1" exponent="2.4" offset="0"/>
    <feFuncG type="gamma" amplitude="1" exponent="2.4" offset="0"/>
    <feFuncB type="gamma" amplitude="1" exponent="2.4" offset="0"/>
   </feComponentTransfer>
  </filter>
 </defs>
 <g id="Document" fill="none" stroke="black" font-family="Times New Roman" font-size="16" transform="scale(1 -1)">
  <g id="Spread" transform="translate(0 -26.999)">
   <g id="Layer 1">
    <g id="Group" stroke="none">
     <path d="M 0.002,26.998 L 0.002,-0.001 L 27.003,-0.001 L 27.003,26.998 L 0.002,26.998 Z" stroke-linejoin="miter" marker-start="none" marker-end="none"/>
     <path d="M 10.602,0.406 L 10.546,0.445 L 0.628,10.414 L 0.304,10.764 C 0.198,10.912 0.112,11.079 0.06,11.266 C 0.012,11.436 -0.006,11.611 0.009,11.788 C 0.047,12.261 0.303,12.663 0.621,12.995 L 13.603,26.048 C 14.372,26.703 15.178,26.999 16.38,26.999 L 22.434,26.999 C 23.483,27.031 24.485,26.773 25.258,26.015 L 26.022,25.246 C 26.855,24.408 27.002,23.269 27.002,22.422 L 27.002,17.095 C 27.002,16.327 27.008,15.534 26.752,14.767 C 26.911,14.028 26.997,13.34 27.002,12.754 C 27.017,10.843 26.49,9.171 25.446,8.246 C 24.314,7.242 22.77,7.28 21.298,8.402 L 21.258,8.433 L 21.116,8.573 L 13.044,0.453 L 12.997,0.419 C 12.207,-0.163 11.348,-0.111 10.602,0.406 Z M 11.799,1.5 L 12.087,1.617 L 24.926,14.529 L 25.178,14.915 C 25.018,15.552 24.801,16.238 24.529,16.936 C 24.054,18.149 23.432,19.348 22.702,20.338 C 22.521,20.28 22.328,20.249 22.128,20.249 C 21.092,20.249 20.253,21.088 20.253,22.124 C 20.253,23.159 21.092,23.999 22.128,23.999 C 23.163,23.999 24.003,23.159 24.003,22.124 C 24.003,21.842 23.94,21.575 23.829,21.335 C 24.48,20.471 25.041,19.484 25.502,18.481 L 25.502,22.422 C 25.502,23.154 25.362,23.783 24.959,24.189 L 24.201,24.95 C 23.812,25.332 23.258,25.524 22.457,25.499 L 16.38,25.499 C 15.714,25.499 15.295,25.389 14.932,25.168 L 14.59,24.917 L 1.694,11.948 C 1.603,11.852 1.555,11.781 1.53,11.733 L 1.505,11.669 L 1.525,11.635 C 1.545,11.607 1.58,11.566 1.655,11.503 L 11.493,1.617 L 11.496,1.616 L 11.505,1.606 C 11.617,1.534 11.71,1.5 11.799,1.5 Z M 11.505,1.606 L 11.493,1.617 L 11.457,1.639 C 11.473,1.627 11.489,1.616 11.505,1.606 Z M 12.753,6.749 L 12.753,20.249 L 14.253,20.249 L 14.253,6.749 L 12.753,6.749 Z M 24.451,9.368 C 25.038,9.889 25.515,11.048 25.503,12.743 C 25.502,12.818 25.5,12.896 25.495,12.976 L 22.174,9.636 L 22.242,9.569 L 22.404,9.453 C 22.854,9.15 23.236,9.035 23.539,9.024 C 23.872,9.012 24.175,9.123 24.451,9.368 Z M 6.753,13.122 C 6.753,14.569 7.929,15.744 9.375,15.744 C 10.821,15.744 11.998,14.569 11.998,13.122 C 11.998,11.673 10.821,10.499 9.375,10.499 C 7.928,10.499 6.753,11.673 6.753,13.122 Z M 15.005,13.874 C 15.005,15.321 16.181,16.496 17.627,16.496 C 19.073,16.496 20.25,15.321 20.25,13.874 C 20.25,12.425 19.073,11.251 17.627,11.251 C 16.18,11.251 15.005,12.425 15.005,13.874 Z M 10.498,13.122 C 10.498,13.74 9.994,14.244 9.375,14.244 C 8.756,14.244 8.253,13.74 8.253,13.122 C 8.253,12.502 8.757,11.999 9.375,11.999 C 9.994,11.999 10.498,12.502 10.498,13.122 Z M 18.75,13.874 C 18.75,14.492 18.246,14.996 17.627,14.996 C 17.008,14.996 16.505,14.492 16.505,13.874 C 16.505,13.254 17.009,12.751 17.627,12.751 C 18.246,12.751 18.75,13.254 18.75,13.874 Z M 22.503,22.124 C 22.503,22.33 22.334,22.499 22.128,22.499 C 21.921,22.499 21.753,22.33 21.753,22.124 C 21.753,21.917 21.921,21.749 22.128,21.749 C 22.334,21.749 22.503,21.917 22.503,22.124 Z" stroke-width="0.5" fill="#000000" fill-rule="evenodd" marker-start="none" marker-end="none" stroke-miterlimit="79.8403193612775"/>
    </g>
   </g>
  </g>
 </g>
</svg>
