<?xml version="1.0" standalone="no"?>
<!DOCTYPE svg PUBLIC "-//W3C//DTD SVG 1.1//EN" "http://www.w3.org/Graphics/SVG/1.1/DTD/svg11.dtd">
<!--Generator: Xara Designer (www.xara.com), SVG filter version: 4.0.0.1-->
<svg stroke-width="0.501" stroke-linejoin="bevel" fill-rule="evenodd" xmlns:xlink="http://www.w3.org/1999/xlink" xmlns="http://www.w3.org/2000/svg" version="1.1" overflow="visible" width="29.25pt" height="26.999pt" viewBox="0 0 29.25 26.999">
 <defs>
  <marker id="DefaultArrow2" markerUnits="strokeWidth" viewBox="0 0 1 1" markerWidth="1" markerHeight="1" overflow="visible" orient="auto">
   <!-- REF_ARROW_STRAIGHT (-2) -->
   <g transform="scale(0.0092592592)">
    <!-- 1/108 -->
    <path d="M -9 54 L -9 -54 L 117 0 z"/>
   </g>
  </marker>
  <marker id="DefaultArrow3" markerUnits="strokeWidth" viewBox="0 0 1 1" markerWidth="1" markerHeight="1" overflow="visible" orient="auto">
   <!-- REF_ARROW_ANGLED -->
   <g transform="scale(0.0092592592)">
    <path d="M -27 54 L -9 0 L -27 -54 L 135 0 z"/>
   </g>
  </marker>
  <marker id="DefaultArrow4" markerUnits="strokeWidth" viewBox="0 0 1 1" markerWidth="1" markerHeight="1" overflow="visible" orient="auto">
   <!-- REF_ARROW_ROUNDED -->
   <g transform="scale(0.0092592592)">
    <path d="M -9,0 L -9,-45 C -9,-51.708 2.808,-56.580 9,-54 L 117,-9 C 120.916,-7.369 126.000,-4.242 126,0 C 126,4.242 120.916,7.369 117,9 L 9,54 C 2.808,56.580 -9,51.708 -9,45 z"/>
   </g>
  </marker>
  <marker id="DefaultArrow5" markerUnits="strokeWidth" viewBox="0 0 1 1" markerWidth="1" markerHeight="1" overflow="visible" orient="auto">
   <!-- REF_ARROW_SPOT -->
   <g transform="scale(0.0092592592)">
    <path d="M -54, 0 C -54,29.807 -29.807,54 0,54 C 29.807,54 54,29.807 54,0 C 54,-29.807 29.807,-54 0,-54 C -29.807,-54 -54,-29.807 -54,0 z"/>
   </g>
  </marker>
  <marker id="DefaultArrow6" markerUnits="strokeWidth" viewBox="0 0 1 1" markerWidth="1" markerHeight="1" overflow="visible" orient="auto">
   <!-- REF_ARROW_DIAMOND -->
   <g transform="scale(0.0092592592)">
    <path d="M -63,0 L 0,63 L 63,0 L 0,-63 z"/>
   </g>
  </marker>
  <marker id="DefaultArrow7" markerUnits="strokeWidth" viewBox="0 0 1 1" markerWidth="1" markerHeight="1" overflow="visible" orient="auto">
   <!-- REF_ARROW_FEATHER -->
   <g transform="scale(0.0092592592)">
    <path d="M 18,-54 L 108,-54 L 63,0 L 108,54 L 18, 54 L -36,0 z"/>
   </g>
  </marker>
  <marker id="DefaultArrow8" markerUnits="strokeWidth" viewBox="0 0 1 1" markerWidth="1" markerHeight="1" overflow="visible" orient="auto">
   <!-- REF_ARROW_FEATHER2 -->
   <g transform="scale(0.0092592592)">
    <path d="M -36,0 L 18,-54 L 54,-54 L 18,-18 L 27,-18 L 63,-54 L 99,-54 L 63,-18 L 72,-18 L 108,-54 L 144,-54 L 90,0 L 144,54 L 108,54 L 72,18 L 63,18 L 99,54 L 63,54 L 27,18 L 18,18 L 54,54 L 18,54 z"/>
   </g>
  </marker>
  <marker id="DefaultArrow9" markerUnits="strokeWidth" viewBox="0 0 1 1" markerWidth="1" markerHeight="1" overflow="visible" orient="auto">
   <!-- REF_ARROW_HOLLOWDIAMOND -->
   <g transform="scale(0.0092592592)">
    <path d="M 0,45 L -45,0 L 0, -45 L 45, 0 z M 0, 63 L-63, 0 L 0, -63 L 63, 0 z"/>
   </g>
  </marker>
  <filter id="StainedFilter">
   <feBlend mode="multiply" in2="BackgroundImage" in="SourceGraphic" result="blend"/>
   <feComposite in="blend" in2="SourceAlpha" operator="in" result="comp"/>
  </filter>
  <filter id="BleachFilter">
   <feBlend mode="screen" in2="BackgroundImage" in="SourceGraphic" result="blend"/>
   <feComposite in="blend" in2="SourceAlpha" operator="in" result="comp"/>
  </filter>
  <filter id="InvertTransparencyBitmapFilter">
   <feComponentTransfer>
    <feFuncR type="gamma" amplitude="1.055" exponent=".416666666" offset="-0.055"/>
    <feFuncG type="gamma" amplitude="1.055" exponent=".416666666" offset="-0.055"/>
    <feFuncB type="gamma" amplitude="1.055" exponent=".416666666" offset="-0.055"/>
   </feComponentTransfer>
   <feComponentTransfer>
    <feFuncR type="linear" slope="-1" intercept="1"/>
    <feFuncG type="linear" slope="-1" intercept="1"/>
    <feFuncB type="linear" slope="-1" intercept="1"/>
    <feFuncA type="linear" slope="1" intercept="0"/>
   </feComponentTransfer>
   <feComponentTransfer>
    <feFuncR type="gamma" amplitude="1" exponent="2.4" offset="0"/>
    <feFuncG type="gamma" amplitude="1" exponent="2.4" offset="0"/>
    <feFuncB type="gamma" amplitude="1" exponent="2.4" offset="0"/>
   </feComponentTransfer>
  </filter>
 </defs>
 <g id="Document" fill="none" stroke="black" font-family="Times New Roman" font-size="16" transform="scale(1 -1)">
  <g id="Spread" transform="translate(0 -26.999)">
   <g id="Layer 1">
    <path d="M 0.843,1.109 L 4.1,7.064 C 1.778,9.914 0,13.486 0,17.115 C 0,22.561 4.363,26.999 9.761,26.999 C 13.088,26.999 15.987,25.337 17.737,22.805 C 18.526,23.092 19.374,23.249 20.259,23.249 C 24.457,23.249 27.752,19.786 27.752,15.583 C 27.752,12.631 26.232,9.742 24.326,7.499 L 25.221,7.499 C 25.493,7.499 25.744,7.349 25.875,7.109 L 29.157,1.109 C 29.43,0.61 29.069,-0.001 28.502,-0.001 L 1.499,-0.001 C 0.931,-0.001 0.57,0.61 0.843,1.109 Z M 27.238,1.499 L 24.777,5.999 L 22.899,5.999 C 22.149,5.295 21.383,4.7 20.66,4.242 L 20.264,3.991 L 19.866,4.237 C 18.543,5.049 17.134,6.287 15.923,7.772 C 14.181,5.462 12.059,3.554 10.159,2.363 L 9.767,2.117 L 9.371,2.358 C 7.993,3.196 6.514,4.402 5.149,5.863 L 2.762,1.499 L 27.238,1.499 Z M 9.754,3.896 L 10.106,4.131 C 13.859,6.795 18,12.031 18,17.123 C 18,21.752 14.347,25.499 9.761,25.499 C 5.21,25.499 1.5,21.752 1.5,17.115 C 1.5,12.007 5.608,6.757 9.397,4.128 L 9.754,3.896 Z M 20.252,5.775 L 20.408,5.881 C 23.189,7.876 26.252,11.794 26.252,15.583 C 26.252,19.001 23.586,21.749 20.259,21.749 C 19.649,21.749 19.061,21.655 18.508,21.482 C 18.83,20.814 19.081,20.105 19.249,19.363 C 19.568,19.451 19.904,19.499 20.25,19.499 C 22.32,19.499 24,17.819 24,15.749 C 24,13.678 22.32,11.999 20.25,11.999 C 19.64,11.999 19.063,12.144 18.554,12.403 C 18.101,11.239 17.507,10.115 16.82,9.055 C 17.832,7.743 19.014,6.632 20.132,5.854 L 20.252,5.775 Z M 5.25,17.249 C 5.25,19.733 7.265,21.749 9.75,21.749 C 12.234,21.749 14.25,19.733 14.25,17.249 C 14.25,14.764 12.234,12.749 9.75,12.749 C 7.265,12.749 5.25,14.764 5.25,17.249 Z M 22.5,15.749 C 22.5,16.99 21.491,17.999 20.25,17.999 C 19.976,17.999 19.715,17.95 19.473,17.86 C 19.491,17.617 19.5,17.371 19.5,17.123 C 19.5,16.021 19.333,14.925 19.037,13.852 C 19.387,13.628 19.802,13.499 20.25,13.499 C 21.491,13.499 22.5,14.507 22.5,15.749 Z M 12.75,17.249 C 12.75,18.904 11.405,20.249 9.75,20.249 C 8.094,20.249 6.75,18.904 6.75,17.249 C 6.75,15.593 8.094,14.249 9.75,14.249 C 11.405,14.249 12.75,15.593 12.75,17.249 Z" stroke="none" stroke-width="0.5" fill="#000000" fill-rule="evenodd" marker-start="none" marker-end="none" stroke-miterlimit="79.8403193612775"/>
   </g>
  </g>
 </g>
</svg>
