<?xml version="1.0" encoding="UTF-8"?>
<svg width="46px" height="46px" viewBox="0 0 46 46" version="1.1" xmlns="http://www.w3.org/2000/svg" xmlns:xlink="http://www.w3.org/1999/xlink">
    <!-- Generator: sketchtool 51.3 (57544) - http://www.bohemiancoding.com/sketch -->
    <title>6F57A73E-6C0D-43D5-8E3C-FAAFDE2D7BED</title>
    <desc>Created with sketchtool.</desc>
    <defs></defs>
    <g id="Symbols" stroke="none" stroke-width="1" fill="none" fill-rule="evenodd">
        <g id="Icons-/-46-/-Complete-solutions">
            <rect id="Bounds" fill-rule="nonzero" x="0" y="0" width="46" height="46"></rect>
            <path d="M31,37 L37,37 L37,32 L31,32 L31,37 Z M30,38 L38,38 L38,31 L30,31 L30,38 Z M12,13 C11.447,13 11,13.447 11,14 C11,14.553 11.447,15 12,15 C12.553,15 13,14.553 13,14 C13,13.447 12.553,13 12,13 Z M14,19 C11.243,19 9,16.757 9,14 C9,11.243 11.243,9 14,9 L32,9 C34.757,9 37,11.243 37,14 C37,16.757 34.757,19 32,19 L14,19 Z M32,8 L14,8 C10.687,8 8,10.687 8,14 C8,17.313 10.687,20 14,20 L32,20 C35.313,20 38,17.313 38,14 C38,10.687 35.313,8 32,8 Z M16.25,40 L16.25,36.5 C16.25,35.948 16.698,35.5 17.25,35.5 L24,35.5 C24.552,35.5 25,35.948 25,36.5 L25,40 L21,40 L21,38.5 C21,38.224 20.776,38 20.5,38 C20.224,38 20,38.224 20,38.5 L20,40 L16.25,40 Z M9,30 L9,26 L11,26 C12.103,26 13,26.897 13,28 C13,29.103 12.103,30 11,30 L9,30 Z M6,32 L6,24 L8,24 L8,25 L8,31 L8,32 L6,32 Z M42,4 L4,4 L4,42 L42,42 L42,32 L40,32 L40,40 L26,40 L26,36.5 C26,35.396 25.104,34.5 24,34.5 L17.25,34.5 C16.146,34.5 15.25,35.396 15.25,36.5 L15.25,40 L6,40 L6,33 L9,33 L9,31 L11,31 C12.657,31 14,29.657 14,28 C14,26.343 12.657,25 11,25 L9,25 L9,23 L6,23 L6,6 L40,6 L40,23.5 L42,23.5 L42,4 Z M5,5 L5,6 L5,23 L5,24 L5,32 L5,33 L5,40 L5,41 L6,41 L15.25,41 L16.25,41 L20,41 L21,41 L25,41 L26,41 L40,41 L41,41 L5,41 L5,5 Z M41,5 L41,22.5 L41,6 L41,5 Z" id="Fill-1" fill="#000000"></path>
        </g>
    </g>
</svg>