<?xml version="1.0" encoding="UTF-8"?>
<svg width="46px" height="46px" viewBox="0 0 46 46" version="1.1" xmlns="http://www.w3.org/2000/svg" xmlns:xlink="http://www.w3.org/1999/xlink">
    <!-- Generator: sketchtool 51.3 (57544) - http://www.bohemiancoding.com/sketch -->
    <title>8FE5A215-05C2-498D-8138-75E7C20E9CFA</title>
    <desc>Created with sketchtool.</desc>
    <defs></defs>
    <g id="Symbols" stroke="none" stroke-width="1" fill="none" fill-rule="evenodd">
        <g id="Icons-/-46-/-Delivery">
            <rect id="Bounds" fill-rule="nonzero" x="0" y="0" width="46" height="46"></rect>
            <path d="M35.251,27 L32,24.27 L32,23.099 C32,22.381 32.583,21.799 33.299,21.799 L35.597,21.799 C36.314,21.799 37.097,22.348 37.342,23.022 L38.346,25.778 C38.463,26.105 38.44,26.41 38.281,26.641 C38.117,26.873 37.837,27 37.489,27 L35.251,27 Z M35,36.5 C33.621,36.5 32.5,35.379 32.5,34 C32.5,32.621 33.621,31.5 35,31.5 C36.379,31.5 37.5,32.621 37.5,34 C37.5,35.379 36.379,36.5 35,36.5 Z M16.5,34 C16.5,35.379 15.379,36.5 14,36.5 C12.621,36.5 11.5,35.379 11.5,34 C11.5,32.621 12.621,31.5 14,31.5 C15.379,31.5 16.5,32.621 16.5,34 Z M40.758,19.704 C40.297,18.668 39.27,18 38.135,18 L29,18 L29,10 L2,10 L2,32 L10.555,32 C10.211,32.59 10,33.268 10,34 C10,36.209 11.791,38 14,38 C16.209,38 18,36.209 18,34 C18,31.791 16.209,30 14,30 L4,30 L4,12 L27,12 L27,25 L9,25 L9,27 L29,27 L29,20 L38.135,20 C38.479,20 38.79,20.203 38.93,20.517 L42,27.425 L42,32.304 C42,32.687 41.688,33 41.304,33 L38.858,33 C38.412,31.277 36.861,30 35,30 C33.139,30 31.588,31.277 31.142,33 L20,33 L20,35 L31.142,35 C31.588,36.723 33.139,38 35,38 C36.861,38 38.412,36.723 38.858,35 L41.304,35 C42.793,35 44,33.793 44,32.304 L44,27 L40.758,19.704 Z" id="Fill-1" fill="#000000"></path>
        </g>
    </g>
</svg>