<?xml version="1.0" encoding="UTF-8"?>
<svg width="46px" height="46px" viewBox="0 0 46 46" version="1.1" xmlns="http://www.w3.org/2000/svg" xmlns:xlink="http://www.w3.org/1999/xlink">
    <!-- Generator: sketchtool 51.3 (57544) - http://www.bohemiancoding.com/sketch -->
    <title>B196F24B-E2D7-4033-8C5F-47839DCB51ED</title>
    <desc>Created with sketchtool.</desc>
    <defs></defs>
    <g id="Symbols" stroke="none" stroke-width="1" fill="none" fill-rule="evenodd">
        <g id="Icons-/-46-/-Goods">
            <rect id="Bounds" fill-rule="nonzero" x="0" y="0" width="46" height="46"></rect>
            <path d="M29,17 L29,23 C29,26.313 26.313,29 23,29 C19.687,29 17,26.313 17,23 L17,17 L19,17 L19,23 C19,25.205 20.795,27 23,27 C25.205,27 27,25.205 27,23 L27,17 L29,17 Z M19,11 L17,11 C17,7.687 19.687,5 23,5 C26.313,5 29,7.687 29,11 L27,11 C27,8.795 25.205,7 23,7 C20.795,7 19,8.795 19,11 Z M35,37 C35,38.103 34.103,39 33,39 L13,39 C11.897,39 11,38.103 11,37 L11,15 L35,15 L35,37 Z M9,13 L9,21 L9,37 C9,39.209 10.791,41 13,41 L33,41 C35.209,41 37,39.209 37,37 L37,21 L37,13 L9,13 Z" id="Fill-1" fill="#000000"></path>
        </g>
    </g>
</svg>