<?xml version="1.0" encoding="UTF-8"?>
<svg width="46px" height="46px" viewBox="0 0 46 46" version="1.1" xmlns="http://www.w3.org/2000/svg" xmlns:xlink="http://www.w3.org/1999/xlink">
    <!-- Generator: sketchtool 51.3 (57544) - http://www.bohemiancoding.com/sketch -->
    <title>81944FA1-1BCB-4D3A-91E8-3C013B47E7EC</title>
    <desc>Created with sketchtool.</desc>
    <defs>
        <polygon id="path-1" points="0 0.0002 27.9999 0.0002 27.9999 34.5879 0 34.5879"></polygon>
    </defs>
    <g id="Symbols" stroke="none" stroke-width="1" fill="none" fill-rule="evenodd">
        <g id="Icons-/-46-/-Guaranty">
            <rect id="Bounds" fill-rule="nonzero" x="0" y="0" width="46" height="46"></rect>
            <g id="Group-3" transform="translate(9.000000, 5.000000)">
                <mask id="mask-2" fill="white">
                    <use xlink:href="#path-1"></use>
                </mask>
                <g id="Clip-2"></g>
                <path d="M20.6719,10.8369 L19.3619,9.5279 L11.6859,17.2049 L8.6379,14.1569 L7.3279,15.4659 L11.6859,19.8229 L20.6719,10.8369 Z M1.8659,1.8519 L1.8659,21.2909 C1.8659,25.6239 5.8759,28.0109 8.2449,28.7379 C10.6099,29.4639 12.9169,31.2039 13.9999,32.0989 C15.0829,31.2039 17.3899,29.4639 19.7549,28.7379 C22.1239,28.0109 26.1339,25.6239 26.1339,21.2909 L26.1339,1.8519 L1.8659,1.8519 Z M14.0009,34.5879 L13.3649,34.0039 C13.3369,33.9779 10.4649,31.3579 7.6929,30.5069 C3.8629,29.3309 -0.0001,26.0249 -0.0001,21.2909 L-0.0001,-0.0001 L27.9999,-0.0001 L27.9999,21.2909 C27.9999,26.0249 24.1369,29.3309 20.3079,30.5069 C17.5259,31.3599 14.6629,33.9779 14.6359,34.0039 L14.0009,34.5879 Z" id="Fill-1" fill="#000000" mask="url(#mask-2)"></path>
            </g>
        </g>
    </g>
</svg>