<?xml version="1.0" encoding="UTF-8"?>
<svg width="46px" height="46px" viewBox="0 0 46 46" version="1.1" xmlns="http://www.w3.org/2000/svg" xmlns:xlink="http://www.w3.org/1999/xlink">
    <!-- Generator: sketchtool 51.3 (57544) - http://www.bohemiancoding.com/sketch -->
    <title>99EAEF58-45A3-4EEB-99FF-E67240E52D81</title>
    <desc>Created with sketchtool.</desc>
    <defs>
        <polygon id="path-1" points="0 0.0006 43.991 0.0006 43.991 42.3246 0 42.3246"></polygon>
    </defs>
    <g id="Symbols" stroke="none" stroke-width="1" fill="none" fill-rule="evenodd">
        <g id="Icons-/-46-/-One-price">
            <rect id="Bounds" fill-rule="nonzero" x="0" y="0" width="46" height="46"></rect>
            <g id="Group-3" transform="translate(1.000000, 1.000000)">
                <mask id="mask-2" fill="white">
                    <use xlink:href="#path-1"></use>
                </mask>
                <g id="Clip-2"></g>
                <path d="M19.027,25.1626 L25.027,25.1626 L25.027,24.1546 L19.027,24.1546 L19.027,25.1626 Z M19.027,22.1626 L25.027,22.1626 L25.027,21.1526 L19.027,21.1526 L19.027,22.1626 Z M40.954,18.5986 C40.168,18.8546 39.319,18.4226 39.064,17.6356 C38.808,16.8486 39.24,16.0016 40.027,15.7456 C40.813,15.4906 41.662,15.9226 41.917,16.7096 C42.172,17.4956 41.741,18.3426 40.954,18.5986 Z M38.024,17.9736 L38.013,17.5136 C38.034,17.6576 38.066,17.8016 38.113,17.9446 C38.159,18.0886 38.217,18.2236 38.286,18.3516 L38.024,17.9736 Z M22.121,32.2876 C16.882,32.2876 12.621,28.0256 12.621,22.7876 C12.621,17.5496 16.882,13.2876 22.121,13.2876 C27.359,13.2876 31.621,17.5496 31.621,22.7876 C31.621,28.0256 27.359,32.2876 22.121,32.2876 Z M22.607,5.9616 L22.167,6.0926 L21.726,5.9616 C21.869,5.9866 22.016,6.0006 22.167,6.0006 C22.317,6.0006 22.464,5.9866 22.607,5.9616 Z M20.667,3.5006 C20.667,2.6736 21.339,2.0006 22.167,2.0006 C22.994,2.0006 23.667,2.6736 23.667,3.5006 C23.667,4.3276 22.994,5.0006 22.167,5.0006 C21.339,5.0006 20.667,4.3276 20.667,3.5006 Z M31.626,36.7266 L32.059,36.5746 C31.928,36.6376 31.801,36.7136 31.68,36.8016 C31.558,36.8896 31.447,36.9876 31.346,37.0916 L31.626,36.7266 Z M34.363,37.9426 C34.849,38.6116 34.701,39.5516 34.031,40.0376 C33.362,40.5236 32.422,40.3756 31.936,39.7066 C31.45,39.0376 31.599,38.0966 32.268,37.6106 C32.937,37.1246 33.877,37.2736 34.363,37.9426 Z M11.758,36.5106 C11.637,36.4236 11.51,36.3466 11.379,36.2836 L11.813,36.4356 L12.092,36.8006 C11.991,36.6966 11.88,36.5996 11.758,36.5106 Z M11.503,39.4156 C11.016,40.0846 10.076,40.2336 9.407,39.7476 C8.738,39.2606 8.589,38.3216 9.075,37.6516 C9.562,36.9826 10.502,36.8346 11.17,37.3206 C11.84,37.8056 11.988,38.7466 11.503,39.4156 Z M5.967,17.5036 L5.706,17.8826 C5.774,17.7536 5.832,17.6176 5.878,17.4746 C5.925,17.3316 5.958,17.1876 5.978,17.0436 L5.967,17.5036 Z M4.927,17.1656 C4.672,17.9526 3.824,18.3836 3.037,18.1296 C2.251,17.8736 1.819,17.0256 2.074,16.2386 C2.33,15.4516 3.178,15.0196 3.964,15.2756 C4.751,15.5316 5.183,16.3796 4.927,17.1656 Z M43.819,16.0916 C43.221,14.2526 41.248,13.2466 39.409,13.8436 C37.903,14.3326 36.973,15.7476 37.007,17.2526 L32.827,18.6106 C31.275,14.6366 27.586,11.7386 23.167,11.3406 L23.167,6.8376 C24.609,6.4046 25.667,5.0836 25.667,3.5006 C25.667,1.5666 24.1,0.0006 22.167,0.0006 C20.233,0.0006 18.667,1.5666 18.667,3.5006 C18.667,5.0836 19.724,6.4046 21.167,6.8376 L21.167,11.3356 C16.836,11.6916 13.184,14.4406 11.547,18.2646 L6.984,16.7826 C7.019,15.2776 6.088,13.8626 4.583,13.3736 C2.744,12.7756 0.77,13.7826 0.172,15.6206 C-0.425,17.4596 0.581,19.4336 2.419,20.0306 C3.925,20.5196 5.509,19.9226 6.366,18.6836 L10.932,20.1686 C10.735,21.0106 10.621,21.8846 10.621,22.7876 C10.621,26.1376 12.062,29.1436 14.348,31.2456 L11.441,35.2466 C10.021,34.7486 8.388,35.1956 7.457,36.4766 C6.321,38.0406 6.668,40.2286 8.232,41.3656 C9.795,42.5016 11.984,42.1546 13.121,40.5916 C14.051,39.3106 13.972,37.6196 13.06,36.4216 L15.931,32.4686 C17.719,33.6146 19.839,34.2876 22.121,34.2876 C24.107,34.2876 25.976,33.7836 27.607,32.8966 L30.378,36.7126 C29.466,37.9096 29.388,39.6006 30.318,40.8816 C31.455,42.4456 33.643,42.7926 35.207,41.6556 C36.771,40.5196 37.118,38.3316 35.981,36.7666 C35.05,35.4866 33.418,35.0386 31.997,35.5366 L29.271,31.7846 C31.919,29.6776 33.621,26.4336 33.621,22.7876 C33.621,22.0136 33.542,21.2586 33.396,20.5286 L37.626,19.1546 C38.482,20.3926 40.066,20.9906 41.572,20.5016 C43.411,19.9036 44.417,17.9286 43.819,16.0916 Z" id="Fill-1" fill="#000000" mask="url(#mask-2)"></path>
            </g>
        </g>
    </g>
</svg>