<?xml version="1.0" encoding="UTF-8"?>
<svg width="46px" height="46px" viewBox="0 0 46 46" version="1.1" xmlns="http://www.w3.org/2000/svg" xmlns:xlink="http://www.w3.org/1999/xlink">
    <!-- Generator: sketchtool 51.3 (57544) - http://www.bohemiancoding.com/sketch -->
    <title>F9E8642D-C506-4F37-A8DE-F120C2D73EB9</title>
    <desc>Created with sketchtool.</desc>
    <defs>
        <polygon id="path-1" points="0 0 38 0 38 38 0 38"></polygon>
    </defs>
    <g id="Symbols" stroke="none" stroke-width="1" fill="none" fill-rule="evenodd">
        <g id="Icons-/-46-/-Points">
            <rect id="Bounds" fill-rule="nonzero" x="0" y="0" width="46" height="46"></rect>
            <g id="Group-3" transform="translate(4.000000, 4.000000)">
                <mask id="mask-2" fill="white">
                    <use xlink:href="#path-1"></use>
                </mask>
                <g id="Clip-2"></g>
                <path d="M38,17.627 L36.332,28.65 L24.365,30.49 L21.336,37.398 L12.905,38 C12.905,38 0.771,29.398 0.126,27.395 C-0.519,25.391 1.515,10.174 1.515,10.174 L9.216,9.052 L7.448,2.382 L14.519,0 L17.959,1.719 C17.653,2.114 17.393,2.547 17.193,3.013 L14.406,1.621 L9.258,3.356 L10.666,8.668 L11.097,10.294 L9.432,10.536 L2.854,11.494 C1.976,18.279 1.277,25.579 1.549,26.904 C2.255,28.13 8.093,32.724 13.336,36.466 L20.325,35.967 L22.992,29.889 L23.323,29.134 L24.138,29.008 L35.014,27.335 L36.473,17.695 L34.001,7.52 L28.565,6.665 C28.657,6.249 28.708,5.818 28.708,5.375 C28.708,5.305 28.7,5.237 28.697,5.168 L35.223,6.193 L38,17.627 Z M20.75,5.25 C20.75,4.146 21.646,3.25 22.75,3.25 C23.854,3.25 24.75,4.146 24.75,5.25 C24.75,6.355 23.854,7.25 22.75,7.25 C21.646,7.25 20.75,6.355 20.75,5.25 Z M28.167,16.167 C29.82,16.167 31.167,17.513 31.167,19.167 C31.167,20.82 29.82,22.167 28.167,22.167 C26.513,22.167 25.167,20.82 25.167,19.167 C25.167,17.513 26.513,16.167 28.167,16.167 Z M24.167,19.167 C24.167,21.376 25.957,23.167 28.167,23.167 C30.376,23.167 32.167,21.376 32.167,19.167 C32.167,16.957 30.376,15.167 28.167,15.167 C25.957,15.167 24.167,16.957 24.167,19.167 Z M12.75,26.75 C12.75,28.404 11.404,29.75 9.75,29.75 C8.096,29.75 6.75,28.404 6.75,26.75 C6.75,25.096 8.096,23.75 9.75,23.75 C11.404,23.75 12.75,25.096 12.75,26.75 Z M5.75,26.75 C5.75,28.959 7.541,30.75 9.75,30.75 C11.959,30.75 13.75,28.959 13.75,26.75 C13.75,24.541 11.959,22.75 9.75,22.75 C7.541,22.75 5.75,24.541 5.75,26.75 Z M9.75,24.75 C10.854,24.75 11.75,25.646 11.75,26.75 C11.75,27.855 10.854,28.75 9.75,28.75 C8.646,28.75 7.75,27.855 7.75,26.75 C7.75,25.646 8.646,24.75 9.75,24.75 Z M26.167,19.167 C26.167,18.063 27.062,17.167 28.167,17.167 C29.271,17.167 30.167,18.063 30.167,19.167 C30.167,20.272 29.271,21.167 28.167,21.167 C27.062,21.167 26.167,20.272 26.167,19.167 Z M22.75,2.25 C24.404,2.25 25.75,3.596 25.75,5.25 C25.75,6.904 24.404,8.25 22.75,8.25 C21.096,8.25 19.75,6.904 19.75,5.25 C19.75,3.596 21.096,2.25 22.75,2.25 Z M22.75,9.25 C24.959,9.25 26.75,7.459 26.75,5.25 C26.75,3.041 24.959,1.25 22.75,1.25 C20.541,1.25 18.75,3.041 18.75,5.25 C18.75,7.459 20.541,9.25 22.75,9.25 Z" id="Fill-1" fill="#000000" mask="url(#mask-2)"></path>
            </g>
        </g>
    </g>
</svg>