<?xml version="1.0" standalone="no"?>
<!DOCTYPE svg PUBLIC "-//W3C//DTD SVG 1.1//EN" "http://www.w3.org/Graphics/SVG/1.1/DTD/svg11.dtd">
<!--Generator: Xara Designer (www.xara.com), SVG filter version: 4.0.0.1-->
<svg stroke-width="0.501" stroke-linejoin="bevel" fill-rule="evenodd" xmlns:xlink="http://www.w3.org/1999/xlink" xmlns="http://www.w3.org/2000/svg" version="1.1" overflow="visible" width="27pt" height="26.999pt" viewBox="0 0 27 26.999">
 <defs>
  <marker id="DefaultArrow2" markerUnits="strokeWidth" viewBox="0 0 1 1" markerWidth="1" markerHeight="1" overflow="visible" orient="auto">
   <!-- REF_ARROW_STRAIGHT (-2) -->
   <g transform="scale(0.0092592592)">
    <!-- 1/108 -->
    <path d="M -9 54 L -9 -54 L 117 0 z"/>
   </g>
  </marker>
  <marker id="DefaultArrow3" markerUnits="strokeWidth" viewBox="0 0 1 1" markerWidth="1" markerHeight="1" overflow="visible" orient="auto">
   <!-- REF_ARROW_ANGLED -->
   <g transform="scale(0.0092592592)">
    <path d="M -27 54 L -9 0 L -27 -54 L 135 0 z"/>
   </g>
  </marker>
  <marker id="DefaultArrow4" markerUnits="strokeWidth" viewBox="0 0 1 1" markerWidth="1" markerHeight="1" overflow="visible" orient="auto">
   <!-- REF_ARROW_ROUNDED -->
   <g transform="scale(0.0092592592)">
    <path d="M -9,0 L -9,-45 C -9,-51.708 2.808,-56.580 9,-54 L 117,-9 C 120.916,-7.369 126.000,-4.242 126,0 C 126,4.242 120.916,7.369 117,9 L 9,54 C 2.808,56.580 -9,51.708 -9,45 z"/>
   </g>
  </marker>
  <marker id="DefaultArrow5" markerUnits="strokeWidth" viewBox="0 0 1 1" markerWidth="1" markerHeight="1" overflow="visible" orient="auto">
   <!-- REF_ARROW_SPOT -->
   <g transform="scale(0.0092592592)">
    <path d="M -54, 0 C -54,29.807 -29.807,54 0,54 C 29.807,54 54,29.807 54,0 C 54,-29.807 29.807,-54 0,-54 C -29.807,-54 -54,-29.807 -54,0 z"/>
   </g>
  </marker>
  <marker id="DefaultArrow6" markerUnits="strokeWidth" viewBox="0 0 1 1" markerWidth="1" markerHeight="1" overflow="visible" orient="auto">
   <!-- REF_ARROW_DIAMOND -->
   <g transform="scale(0.0092592592)">
    <path d="M -63,0 L 0,63 L 63,0 L 0,-63 z"/>
   </g>
  </marker>
  <marker id="DefaultArrow7" markerUnits="strokeWidth" viewBox="0 0 1 1" markerWidth="1" markerHeight="1" overflow="visible" orient="auto">
   <!-- REF_ARROW_FEATHER -->
   <g transform="scale(0.0092592592)">
    <path d="M 18,-54 L 108,-54 L 63,0 L 108,54 L 18, 54 L -36,0 z"/>
   </g>
  </marker>
  <marker id="DefaultArrow8" markerUnits="strokeWidth" viewBox="0 0 1 1" markerWidth="1" markerHeight="1" overflow="visible" orient="auto">
   <!-- REF_ARROW_FEATHER2 -->
   <g transform="scale(0.0092592592)">
    <path d="M -36,0 L 18,-54 L 54,-54 L 18,-18 L 27,-18 L 63,-54 L 99,-54 L 63,-18 L 72,-18 L 108,-54 L 144,-54 L 90,0 L 144,54 L 108,54 L 72,18 L 63,18 L 99,54 L 63,54 L 27,18 L 18,18 L 54,54 L 18,54 z"/>
   </g>
  </marker>
  <marker id="DefaultArrow9" markerUnits="strokeWidth" viewBox="0 0 1 1" markerWidth="1" markerHeight="1" overflow="visible" orient="auto">
   <!-- REF_ARROW_HOLLOWDIAMOND -->
   <g transform="scale(0.0092592592)">
    <path d="M 0,45 L -45,0 L 0, -45 L 45, 0 z M 0, 63 L-63, 0 L 0, -63 L 63, 0 z"/>
   </g>
  </marker>
  <filter id="StainedFilter">
   <feBlend mode="multiply" in2="BackgroundImage" in="SourceGraphic" result="blend"/>
   <feComposite in="blend" in2="SourceAlpha" operator="in" result="comp"/>
  </filter>
  <filter id="BleachFilter">
   <feBlend mode="screen" in2="BackgroundImage" in="SourceGraphic" result="blend"/>
   <feComposite in="blend" in2="SourceAlpha" operator="in" result="comp"/>
  </filter>
  <filter id="InvertTransparencyBitmapFilter">
   <feComponentTransfer>
    <feFuncR type="gamma" amplitude="1.055" exponent=".416666666" offset="-0.055"/>
    <feFuncG type="gamma" amplitude="1.055" exponent=".416666666" offset="-0.055"/>
    <feFuncB type="gamma" amplitude="1.055" exponent=".416666666" offset="-0.055"/>
   </feComponentTransfer>
   <feComponentTransfer>
    <feFuncR type="linear" slope="-1" intercept="1"/>
    <feFuncG type="linear" slope="-1" intercept="1"/>
    <feFuncB type="linear" slope="-1" intercept="1"/>
    <feFuncA type="linear" slope="1" intercept="0"/>
   </feComponentTransfer>
   <feComponentTransfer>
    <feFuncR type="gamma" amplitude="1" exponent="2.4" offset="0"/>
    <feFuncG type="gamma" amplitude="1" exponent="2.4" offset="0"/>
    <feFuncB type="gamma" amplitude="1" exponent="2.4" offset="0"/>
   </feComponentTransfer>
  </filter>
 </defs>
 <g id="Document" fill="none" stroke="black" font-family="Times New Roman" font-size="16" transform="scale(1 -1)">
  <g id="Spread" transform="translate(0 -26.999)">
   <g id="Layer 1">
    <g id="Group" stroke="none">
     <path d="M -0.001,26.998 L -0.001,-0.001 L 27,-0.001 L 27,26.998 L -0.001,26.998 Z" stroke-opacity="0.564706" stroke-linejoin="miter" marker-start="none" marker-end="none" fill-opacity="0.564706"/>
     <path d="M 4.5,0.695 L 4.229,0.799 C 3.73,0.992 3.254,1.243 2.893,1.585 C 2.516,1.942 2.25,2.418 2.25,2.999 L 0,2.999 L 0,7.499 L 2.25,7.499 L 2.25,19.499 L 0,19.499 L 0,23.999 L 2.25,23.999 C 2.25,24.581 2.517,25.056 2.893,25.412 C 3.254,25.754 3.73,26.005 4.229,26.198 L 4.5,26.302 L 4.77,26.198 C 5.269,26.005 5.745,25.754 6.106,25.412 C 6.483,25.055 6.75,24.579 6.75,23.999 L 8.25,23.999 C 8.25,24.581 8.517,25.056 8.893,25.412 C 9.254,25.754 9.73,26.005 10.229,26.198 L 10.5,26.302 L 10.77,26.198 C 11.269,26.005 11.745,25.754 12.106,25.412 C 12.483,25.055 12.75,24.579 12.75,23.999 L 14.25,23.999 C 14.25,24.581 14.517,25.056 14.893,25.412 C 15.254,25.754 15.73,26.005 16.229,26.198 L 16.5,26.302 L 16.77,26.198 C 17.269,26.005 17.745,25.754 18.106,25.412 C 18.483,25.055 18.75,24.579 18.75,23.999 L 20.25,23.999 C 20.25,24.581 20.517,25.056 20.893,25.412 C 21.254,25.754 21.73,26.005 22.229,26.198 L 22.5,26.302 L 22.77,26.198 C 23.269,26.005 23.745,25.754 24.106,25.412 C 24.483,25.055 24.75,24.579 24.75,23.999 L 27,23.999 L 27,19.499 L 24.75,19.499 L 24.75,7.499 L 27,7.499 L 27,2.999 L 24.75,2.999 C 24.75,2.416 24.482,1.941 24.106,1.585 C 23.745,1.243 23.269,0.992 22.77,0.799 L 22.5,0.695 L 22.229,0.799 C 21.73,0.992 21.254,1.243 20.893,1.585 C 20.516,1.942 20.25,2.418 20.25,2.999 L 18.75,2.999 C 18.75,2.416 18.482,1.941 18.106,1.585 C 17.745,1.243 17.269,0.992 16.77,0.799 L 16.5,0.695 L 16.229,0.799 C 15.73,0.992 15.254,1.243 14.893,1.585 C 14.516,1.942 14.25,2.418 14.25,2.999 L 12.75,2.999 C 12.75,2.416 12.482,1.941 12.106,1.585 C 11.745,1.243 11.269,0.992 10.77,0.799 L 10.5,0.695 L 10.229,0.799 C 9.73,0.992 9.254,1.243 8.893,1.585 C 8.516,1.942 8.25,2.418 8.25,2.999 L 6.75,2.999 C 6.75,2.416 6.482,1.941 6.106,1.585 C 5.745,1.243 5.269,0.992 4.77,0.799 L 4.5,0.695 Z M 5.075,2.674 C 5.22,2.812 5.25,2.912 5.25,2.999 L 5.25,23.999 C 5.25,24.084 5.222,24.183 5.075,24.323 C 4.953,24.437 4.769,24.559 4.496,24.68 C 4.23,24.559 4.045,24.437 3.924,24.323 C 3.779,24.185 3.75,24.085 3.75,23.999 L 3.75,2.999 C 3.75,2.913 3.777,2.814 3.924,2.674 C 4.045,2.559 4.23,2.437 4.503,2.315 C 4.769,2.437 4.953,2.559 5.075,2.674 Z M 11.075,2.674 C 11.22,2.812 11.25,2.912 11.25,2.999 L 11.25,23.999 C 11.25,24.084 11.222,24.183 11.075,24.323 C 10.953,24.437 10.769,24.559 10.496,24.68 C 10.23,24.559 10.045,24.437 9.924,24.323 C 9.779,24.185 9.75,24.085 9.75,23.999 L 9.75,2.999 C 9.75,2.913 9.777,2.814 9.924,2.674 C 10.045,2.559 10.23,2.437 10.503,2.315 C 10.769,2.437 10.953,2.559 11.075,2.674 Z M 17.075,2.674 C 17.22,2.812 17.25,2.912 17.25,2.999 L 17.25,23.999 C 17.25,24.084 17.222,24.183 17.075,24.323 C 16.953,24.437 16.769,24.559 16.496,24.68 C 16.23,24.559 16.045,24.437 15.924,24.323 C 15.779,24.185 15.75,24.085 15.75,23.999 L 15.75,2.999 C 15.75,2.913 15.777,2.814 15.924,2.674 C 16.045,2.559 16.23,2.437 16.503,2.315 C 16.769,2.437 16.953,2.559 17.075,2.674 Z M 23.075,2.674 C 23.22,2.812 23.25,2.912 23.25,2.999 L 23.25,23.999 C 23.25,24.084 23.222,24.183 23.075,24.323 C 22.953,24.437 22.769,24.559 22.496,24.68 C 22.23,24.559 22.045,24.437 21.924,24.323 C 21.779,24.185 21.75,24.085 21.75,23.999 L 21.75,2.999 C 21.75,2.913 21.777,2.814 21.924,2.674 C 22.045,2.559 22.23,2.437 22.503,2.315 C 22.769,2.437 22.953,2.559 23.075,2.674 Z M 2.25,4.499 L 2.25,5.999 L 1.5,5.999 L 1.5,4.499 L 2.25,4.499 Z M 8.25,4.499 L 8.25,5.999 L 6.75,5.999 L 6.75,4.499 L 8.25,4.499 Z M 14.25,4.499 L 14.25,5.999 L 12.75,5.999 L 12.75,4.499 L 14.25,4.499 Z M 20.25,4.499 L 20.25,5.999 L 18.75,5.999 L 18.75,4.499 L 20.25,4.499 Z M 25.5,4.499 L 25.5,5.999 L 24.75,5.999 L 24.75,4.499 L 25.5,4.499 Z M 8.25,7.499 L 8.25,19.499 L 6.75,19.499 L 6.75,7.499 L 8.25,7.499 Z M 14.25,7.499 L 14.25,19.499 L 12.75,19.499 L 12.75,7.499 L 14.25,7.499 Z M 20.25,7.499 L 20.25,19.499 L 18.75,19.499 L 18.75,7.499 L 20.25,7.499 Z M 2.25,20.999 L 2.25,22.499 L 1.5,22.499 L 1.5,20.999 L 2.25,20.999 Z M 8.25,20.999 L 8.25,22.499 L 6.75,22.499 L 6.75,20.999 L 8.25,20.999 Z M 14.25,20.999 L 14.25,22.499 L 12.75,22.499 L 12.75,20.999 L 14.25,20.999 Z M 20.25,20.999 L 20.25,22.499 L 18.75,22.499 L 18.75,20.999 L 20.25,20.999 Z M 25.5,20.999 L 25.5,22.499 L 24.75,22.499 L 24.75,20.999 L 25.5,20.999 Z" fill="#000000" stroke-width="0.5" fill-rule="evenodd" marker-start="none" marker-end="none" stroke-miterlimit="79.8403193612775"/>
    </g>
   </g>
  </g>
 </g>
</svg>
