<?xml version="1.0" encoding="utf-8"?>
<!-- Generator: Adobe Illustrator 17.0.0, SVG Export Plug-In . SVG Version: 6.00 Build 0)  -->
<!DOCTYPE svg PUBLIC "-//W3C//DTD SVG 1.1//EN" "http://www.w3.org/Graphics/SVG/1.1/DTD/svg11.dtd">
<svg version="1.1" id="Layer_1" xmlns="http://www.w3.org/2000/svg" xmlns:xlink="http://www.w3.org/1999/xlink" x="0px" y="0px"
	 width="139.62px" height="139.2px" viewBox="30.24 10.24 139.62 139.2" enable-background="new 30.24 10.24 139.62 139.2"
	 xml:space="preserve">
<g>
	<path d="M169.44,78.4l-9.6-14.24l1.12-17.12c0-1.28-0.64-2.72-1.76-3.04l-15.36-7.52l-7.52-15.36c-0.64-1.12-1.76-2.08-3.04-1.76
		L116,20.32l-14.4-9.6c-1.12-0.64-2.72-0.64-3.84,0L83.68,20l-17.12-1.12c-1.28,0-2.72,0.64-3.04,1.76L56,36l-15.36,7.52
		c-1.12,0.64-2.08,1.76-1.76,3.04L40,63.68l-9.28,14.24c-0.64,1.12-0.64,2.4,0,3.84L40,96l-1.12,17.12c0,1.28,0.64,2.72,1.76,3.04
		L56,123.68l7.52,15.36c0.64,1.12,1.76,2.08,3.04,1.76l17.12-1.12l14.24,9.28c0.48,0.48,1.12,0.48,1.76,0.48
		c0.64,0,1.28-0.16,1.76-0.48l14.24-9.28l17.12,1.12c1.28,0,2.72-0.64,3.04-1.76l7.52-15.36l15.36-7.52
		c1.12-0.64,2.08-1.76,1.76-3.04L159.52,96l9.28-14.24C170.08,80.8,170.08,79.52,169.44,78.4z M153.6,93.44
		c-0.48,0.64-0.64,1.28-0.48,2.08l0.96,16l-14.24,7.04c-0.64,0.16-1.12,0.96-1.6,1.6l-7.04,14.24l-16-0.96
		c-0.64,0-1.28,0.16-2.08,0.48l-13.28,8.96l-13.28-8.96c-0.48-0.48-1.12-0.48-1.76-0.48h-0.16l-16,0.96l-7.04-14.24
		c-0.16-0.64-0.96-1.12-1.6-1.6l-14.24-7.04l0.96-16c0-0.64-0.16-1.28-0.48-2.08l-8.96-13.28l8.96-13.28
		c0.48-0.64,0.64-1.28,0.48-2.08l-0.96-16L60,41.76c0.64-0.16,1.12-0.96,1.6-1.6l7.04-14.24l16,0.96c0.64,0,1.28-0.16,2.08-0.48
		L100,17.44l13.28,8.96c0.64,0.48,1.28,0.64,2.08,0.48l16-0.96l7.04,14.24c0.16,0.64,0.96,1.12,1.6,1.6l14.24,7.04l-0.96,16
		c0,0.64,0.16,1.28,0.48,2.08l8.96,13.28L153.6,93.44z"/>
	<path d="M82.4,76.16c8.48,0,15.36-6.88,15.36-15.36S90.88,45.44,82.4,45.44S67.04,52.32,67.04,60.8S73.92,76.16,82.4,76.16z
		 M82.4,51.84c4.96,0,8.64,4,8.64,8.64c0,4.96-4,8.64-8.64,8.64c-4.64,0-8.64-4-8.64-8.64S77.76,51.84,82.4,51.84z"/>
	<path d="M117.12,84.16c-8.48,0-15.36,6.88-15.36,15.36s6.88,15.36,15.36,15.36s15.36-6.88,15.36-15.36
		C132.48,91.04,125.6,84.16,117.12,84.16z M117.12,108.32c-4.96,0-8.64-4-8.64-8.64c0-4.64,4-8.64,8.64-8.64s8.64,4,8.64,8.64
		C125.76,104.32,121.76,108.32,117.12,108.32z"/>
	<rect x="59.36" y="76.667" transform="matrix(0.7071 -0.7071 0.7071 0.7071 -27.3686 93.9799)" width="80.799" height="6.72"/>
</g>
<text transform="matrix(1 0 0 1 19.9997 184.0003)" display="none" enable-background="new    " font-family="'HelveticaNeueCyr-Bold'" font-size="8">Created by Kuber</text>
<text transform="matrix(1 0 0 1 19.9997 192.0003)" display="none" enable-background="new    " font-family="'HelveticaNeueCyr-Bold'" font-size="8">from the Noun Project</text>
</svg>
