<?xml version="1.0" encoding="utf-8"?>
<!-- Generator: Adobe Illustrator 21.1.0, SVG Export Plug-In . SVG Version: 6.00 Build 0)  -->
<svg version="1.1" id="Слой_1" xmlns="http://www.w3.org/2000/svg" xmlns:xlink="http://www.w3.org/1999/xlink" x="0px" y="0px"
	 viewBox="0 0 13.5 12" width="20.25" height="18" style="enable-background:new 0 0 13.5 12;" xml:space="preserve">
<style type="text/css">
	.st0{fill:#ffcc33;}
</style>
<g id="Document" transform="scale(1 -1)">
	<g id="Spread" transform="translate(0 -11.999)">
		<g id="Layer_1">
			<path marker-start="none" marker-end="none" class="st0" d="M4.5,1.1c0,0.6,0.5,1.1,1.1,1.1s1.1-0.5,1.1-1.1S6.2,0,5.6,0
				S4.5,0.5,4.5,1.1z M8.3,1.1c0,0.6,0.5,1.1,1.1,1.1c0.6,0,1.1-0.5,1.1-1.1S10,0,9.4,0C8.8,0,8.3,0.5,8.3,1.1z M3.8,4.3l-1.4,6.2
				H0.8c-0.4,0-0.8,0.3-0.8,0.8C0,11.7,0.3,12,0.8,12H3c0.4,0,0.7-0.2,0.7-0.6l1.4-6.2h5c1,0,1.9,1,1.9,1.7v1.3H6.8
				C6.3,8.2,6,8.6,6,9c0,0.4,0.3,0.8,0.8,0.8h6c0.4,0,0.8-0.3,0.8-0.8V7c0-1.6-1.5-3.2-3.4-3.2H4.5C4.2,3.7,3.8,4,3.8,4.3z"/>
		</g>
	</g>
</g>
</svg>
