<?xml version="1.0" standalone="no"?>
<!DOCTYPE svg PUBLIC "-//W3C//DTD SVG 1.1//EN" "http://www.w3.org/Graphics/SVG/1.1/DTD/svg11.dtd">
<!--Generator: Xara Designer (www.xara.com), SVG filter version: 4.0.0.1-->
<svg stroke-width="0.501" stroke-linejoin="bevel" fill-rule="evenodd" xmlns:xlink="http://www.w3.org/1999/xlink" xmlns="http://www.w3.org/2000/svg" version="1.1" overflow="visible" width="27pt" height="26.999pt" viewBox="0 0 27 26.999">
 <defs>
  <marker id="DefaultArrow2" markerUnits="strokeWidth" viewBox="0 0 1 1" markerWidth="1" markerHeight="1" overflow="visible" orient="auto">
   <!-- REF_ARROW_STRAIGHT (-2) -->
   <g transform="scale(0.0092592592)">
    <!-- 1/108 -->
    <path d="M -9 54 L -9 -54 L 117 0 z"/>
   </g>
  </marker>
  <marker id="DefaultArrow3" markerUnits="strokeWidth" viewBox="0 0 1 1" markerWidth="1" markerHeight="1" overflow="visible" orient="auto">
   <!-- REF_ARROW_ANGLED -->
   <g transform="scale(0.0092592592)">
    <path d="M -27 54 L -9 0 L -27 -54 L 135 0 z"/>
   </g>
  </marker>
  <marker id="DefaultArrow4" markerUnits="strokeWidth" viewBox="0 0 1 1" markerWidth="1" markerHeight="1" overflow="visible" orient="auto">
   <!-- REF_ARROW_ROUNDED -->
   <g transform="scale(0.0092592592)">
    <path d="M -9,0 L -9,-45 C -9,-51.708 2.808,-56.580 9,-54 L 117,-9 C 120.916,-7.369 126.000,-4.242 126,0 C 126,4.242 120.916,7.369 117,9 L 9,54 C 2.808,56.580 -9,51.708 -9,45 z"/>
   </g>
  </marker>
  <marker id="DefaultArrow5" markerUnits="strokeWidth" viewBox="0 0 1 1" markerWidth="1" markerHeight="1" overflow="visible" orient="auto">
   <!-- REF_ARROW_SPOT -->
   <g transform="scale(0.0092592592)">
    <path d="M -54, 0 C -54,29.807 -29.807,54 0,54 C 29.807,54 54,29.807 54,0 C 54,-29.807 29.807,-54 0,-54 C -29.807,-54 -54,-29.807 -54,0 z"/>
   </g>
  </marker>
  <marker id="DefaultArrow6" markerUnits="strokeWidth" viewBox="0 0 1 1" markerWidth="1" markerHeight="1" overflow="visible" orient="auto">
   <!-- REF_ARROW_DIAMOND -->
   <g transform="scale(0.0092592592)">
    <path d="M -63,0 L 0,63 L 63,0 L 0,-63 z"/>
   </g>
  </marker>
  <marker id="DefaultArrow7" markerUnits="strokeWidth" viewBox="0 0 1 1" markerWidth="1" markerHeight="1" overflow="visible" orient="auto">
   <!-- REF_ARROW_FEATHER -->
   <g transform="scale(0.0092592592)">
    <path d="M 18,-54 L 108,-54 L 63,0 L 108,54 L 18, 54 L -36,0 z"/>
   </g>
  </marker>
  <marker id="DefaultArrow8" markerUnits="strokeWidth" viewBox="0 0 1 1" markerWidth="1" markerHeight="1" overflow="visible" orient="auto">
   <!-- REF_ARROW_FEATHER2 -->
   <g transform="scale(0.0092592592)">
    <path d="M -36,0 L 18,-54 L 54,-54 L 18,-18 L 27,-18 L 63,-54 L 99,-54 L 63,-18 L 72,-18 L 108,-54 L 144,-54 L 90,0 L 144,54 L 108,54 L 72,18 L 63,18 L 99,54 L 63,54 L 27,18 L 18,18 L 54,54 L 18,54 z"/>
   </g>
  </marker>
  <marker id="DefaultArrow9" markerUnits="strokeWidth" viewBox="0 0 1 1" markerWidth="1" markerHeight="1" overflow="visible" orient="auto">
   <!-- REF_ARROW_HOLLOWDIAMOND -->
   <g transform="scale(0.0092592592)">
    <path d="M 0,45 L -45,0 L 0, -45 L 45, 0 z M 0, 63 L-63, 0 L 0, -63 L 63, 0 z"/>
   </g>
  </marker>
  <filter id="StainedFilter">
   <feBlend mode="multiply" in2="BackgroundImage" in="SourceGraphic" result="blend"/>
   <feComposite in="blend" in2="SourceAlpha" operator="in" result="comp"/>
  </filter>
  <filter id="BleachFilter">
   <feBlend mode="screen" in2="BackgroundImage" in="SourceGraphic" result="blend"/>
   <feComposite in="blend" in2="SourceAlpha" operator="in" result="comp"/>
  </filter>
  <filter id="InvertTransparencyBitmapFilter">
   <feComponentTransfer>
    <feFuncR type="gamma" amplitude="1.055" exponent=".416666666" offset="-0.055"/>
    <feFuncG type="gamma" amplitude="1.055" exponent=".416666666" offset="-0.055"/>
    <feFuncB type="gamma" amplitude="1.055" exponent=".416666666" offset="-0.055"/>
   </feComponentTransfer>
   <feComponentTransfer>
    <feFuncR type="linear" slope="-1" intercept="1"/>
    <feFuncG type="linear" slope="-1" intercept="1"/>
    <feFuncB type="linear" slope="-1" intercept="1"/>
    <feFuncA type="linear" slope="1" intercept="0"/>
   </feComponentTransfer>
   <feComponentTransfer>
    <feFuncR type="gamma" amplitude="1" exponent="2.4" offset="0"/>
    <feFuncG type="gamma" amplitude="1" exponent="2.4" offset="0"/>
    <feFuncB type="gamma" amplitude="1" exponent="2.4" offset="0"/>
   </feComponentTransfer>
  </filter>
 </defs>
 <g id="Document" fill="none" stroke="black" font-family="Times New Roman" font-size="16" transform="scale(1 -1)">
  <g id="Spread" transform="translate(0 -26.999)">
   <g id="Layer 1">
    <path d="M 6.427,2.009 L 5.621,2.507 L 10.882,7.769 L 10.918,7.797 C 11.047,7.898 11.205,7.996 11.396,8.062 C 11.507,8.1 11.624,8.126 11.748,8.138 C 11.891,8.151 12.034,8.143 12.175,8.117 L 12.501,8.021 C 16.203,6.993 18.868,8.522 20.631,13.181 L 20.957,14.112 L 21.002,14.466 C 21.008,14.696 20.971,14.877 20.931,14.987 L 20.912,15.025 L 20.851,14.991 L 17.248,11.573 L 17.174,11.53 C 16.439,11.098 15.738,11.135 15.112,11.395 L 15.076,11.412 C 14.085,11.91 11.962,14.108 11.472,15.087 L 11.457,15.121 C 11.199,15.734 11.163,16.436 11.593,17.17 L 11.637,17.245 L 15.054,20.848 L 15.088,20.909 L 15.052,20.928 C 14.942,20.967 14.761,21.004 14.53,20.998 L 14.176,20.953 L 13.25,20.629 C 8.611,18.876 7.051,16.222 8.083,12.497 L 8.178,12.187 C 8.205,12.05 8.215,11.911 8.205,11.772 C 8.195,11.641 8.169,11.517 8.129,11.401 C 8.063,11.206 7.964,11.046 7.864,10.917 L 7.836,10.881 L 2.56,5.549 L 2.058,6.352 C 0.76,8.424 0.011,10.875 0.011,13.497 C 0.011,20.945 6.056,26.991 13.505,26.991 C 20.953,26.991 26.999,20.945 26.999,13.497 C 26.999,6.048 20.953,0.003 13.505,0.003 C 10.911,0.003 8.485,0.736 6.427,2.009 Z M 25.499,13.497 C 25.499,20.116 20.124,25.491 13.505,25.491 C 6.885,25.491 1.511,20.116 1.511,13.497 C 1.511,11.747 1.885,10.086 2.558,8.588 L 2.873,7.998 L 6.7,11.87 L 6.705,11.903 C 6.701,11.923 6.693,11.955 6.673,12.002 L 6.653,12.048 L 6.64,12.097 C 5.252,17.101 7.924,20.51 13.758,22.395 L 13.791,22.406 L 13.825,22.413 C 14.552,22.576 15.586,22.538 16.193,21.961 C 16.497,21.673 16.67,21.263 16.608,20.79 C 16.57,20.499 16.448,20.227 16.282,19.977 L 16.246,19.924 L 12.873,16.367 L 12.766,16.044 L 12.836,15.719 L 13.016,15.434 C 13.536,14.712 14.74,13.475 15.444,12.95 L 15.721,12.77 L 16.046,12.701 L 16.369,12.808 L 19.926,16.182 L 19.98,16.218 C 20.23,16.384 20.503,16.507 20.795,16.545 C 21.266,16.606 21.675,16.433 21.963,16.131 C 22.541,15.524 22.58,14.488 22.417,13.761 L 22.41,13.727 L 22.399,13.694 C 20.503,7.833 17.081,5.193 12.101,6.577 L 12.054,6.59 L 12.01,6.608 C 11.961,6.628 11.928,6.637 11.881,6.636 L 8.069,2.833 L 8.645,2.529 C 10.13,1.869 11.774,1.503 13.505,1.503 C 20.124,1.503 25.499,6.877 25.499,13.497 Z" stroke="none" stroke-width="0.5" fill="#000000" fill-rule="evenodd" marker-start="none" marker-end="none" stroke-miterlimit="79.8403193612775"/>
   </g>
  </g>
 </g>
</svg>
