<?xml version="1.0" standalone="no"?>
<!DOCTYPE svg PUBLIC "-//W3C//DTD SVG 1.1//EN" "http://www.w3.org/Graphics/SVG/1.1/DTD/svg11.dtd">
<!--Generator: Xara Designer (www.xara.com), SVG filter version: 4.0.0.1-->
<svg stroke-width="0.501" stroke-linejoin="bevel" fill-rule="evenodd" xmlns:xlink="http://www.w3.org/1999/xlink" xmlns="http://www.w3.org/2000/svg" version="1.1" overflow="visible" width="27pt" height="26.999pt" viewBox="0 0 27 26.999">
 <defs>
  <marker id="DefaultArrow2" markerUnits="strokeWidth" viewBox="0 0 1 1" markerWidth="1" markerHeight="1" overflow="visible" orient="auto">
   <!-- REF_ARROW_STRAIGHT (-2) -->
   <g transform="scale(0.0092592592)">
    <!-- 1/108 -->
    <path d="M -9 54 L -9 -54 L 117 0 z"/>
   </g>
  </marker>
  <marker id="DefaultArrow3" markerUnits="strokeWidth" viewBox="0 0 1 1" markerWidth="1" markerHeight="1" overflow="visible" orient="auto">
   <!-- REF_ARROW_ANGLED -->
   <g transform="scale(0.0092592592)">
    <path d="M -27 54 L -9 0 L -27 -54 L 135 0 z"/>
   </g>
  </marker>
  <marker id="DefaultArrow4" markerUnits="strokeWidth" viewBox="0 0 1 1" markerWidth="1" markerHeight="1" overflow="visible" orient="auto">
   <!-- REF_ARROW_ROUNDED -->
   <g transform="scale(0.0092592592)">
    <path d="M -9,0 L -9,-45 C -9,-51.708 2.808,-56.580 9,-54 L 117,-9 C 120.916,-7.369 126.000,-4.242 126,0 C 126,4.242 120.916,7.369 117,9 L 9,54 C 2.808,56.580 -9,51.708 -9,45 z"/>
   </g>
  </marker>
  <marker id="DefaultArrow5" markerUnits="strokeWidth" viewBox="0 0 1 1" markerWidth="1" markerHeight="1" overflow="visible" orient="auto">
   <!-- REF_ARROW_SPOT -->
   <g transform="scale(0.0092592592)">
    <path d="M -54, 0 C -54,29.807 -29.807,54 0,54 C 29.807,54 54,29.807 54,0 C 54,-29.807 29.807,-54 0,-54 C -29.807,-54 -54,-29.807 -54,0 z"/>
   </g>
  </marker>
  <marker id="DefaultArrow6" markerUnits="strokeWidth" viewBox="0 0 1 1" markerWidth="1" markerHeight="1" overflow="visible" orient="auto">
   <!-- REF_ARROW_DIAMOND -->
   <g transform="scale(0.0092592592)">
    <path d="M -63,0 L 0,63 L 63,0 L 0,-63 z"/>
   </g>
  </marker>
  <marker id="DefaultArrow7" markerUnits="strokeWidth" viewBox="0 0 1 1" markerWidth="1" markerHeight="1" overflow="visible" orient="auto">
   <!-- REF_ARROW_FEATHER -->
   <g transform="scale(0.0092592592)">
    <path d="M 18,-54 L 108,-54 L 63,0 L 108,54 L 18, 54 L -36,0 z"/>
   </g>
  </marker>
  <marker id="DefaultArrow8" markerUnits="strokeWidth" viewBox="0 0 1 1" markerWidth="1" markerHeight="1" overflow="visible" orient="auto">
   <!-- REF_ARROW_FEATHER2 -->
   <g transform="scale(0.0092592592)">
    <path d="M -36,0 L 18,-54 L 54,-54 L 18,-18 L 27,-18 L 63,-54 L 99,-54 L 63,-18 L 72,-18 L 108,-54 L 144,-54 L 90,0 L 144,54 L 108,54 L 72,18 L 63,18 L 99,54 L 63,54 L 27,18 L 18,18 L 54,54 L 18,54 z"/>
   </g>
  </marker>
  <marker id="DefaultArrow9" markerUnits="strokeWidth" viewBox="0 0 1 1" markerWidth="1" markerHeight="1" overflow="visible" orient="auto">
   <!-- REF_ARROW_HOLLOWDIAMOND -->
   <g transform="scale(0.0092592592)">
    <path d="M 0,45 L -45,0 L 0, -45 L 45, 0 z M 0, 63 L-63, 0 L 0, -63 L 63, 0 z"/>
   </g>
  </marker>
  <filter id="StainedFilter">
   <feBlend mode="multiply" in2="BackgroundImage" in="SourceGraphic" result="blend"/>
   <feComposite in="blend" in2="SourceAlpha" operator="in" result="comp"/>
  </filter>
  <filter id="BleachFilter">
   <feBlend mode="screen" in2="BackgroundImage" in="SourceGraphic" result="blend"/>
   <feComposite in="blend" in2="SourceAlpha" operator="in" result="comp"/>
  </filter>
  <filter id="InvertTransparencyBitmapFilter">
   <feComponentTransfer>
    <feFuncR type="gamma" amplitude="1.055" exponent=".416666666" offset="-0.055"/>
    <feFuncG type="gamma" amplitude="1.055" exponent=".416666666" offset="-0.055"/>
    <feFuncB type="gamma" amplitude="1.055" exponent=".416666666" offset="-0.055"/>
   </feComponentTransfer>
   <feComponentTransfer>
    <feFuncR type="linear" slope="-1" intercept="1"/>
    <feFuncG type="linear" slope="-1" intercept="1"/>
    <feFuncB type="linear" slope="-1" intercept="1"/>
    <feFuncA type="linear" slope="1" intercept="0"/>
   </feComponentTransfer>
   <feComponentTransfer>
    <feFuncR type="gamma" amplitude="1" exponent="2.4" offset="0"/>
    <feFuncG type="gamma" amplitude="1" exponent="2.4" offset="0"/>
    <feFuncB type="gamma" amplitude="1" exponent="2.4" offset="0"/>
   </feComponentTransfer>
  </filter>
 </defs>
 <g id="Document" fill="none" stroke="black" font-family="Times New Roman" font-size="16" transform="scale(1 -1)">
  <g id="Spread" transform="translate(0 -26.999)">
   <g id="Layer 1">
    <g id="Group" stroke-linejoin="miter" stroke="none">
     <path d="M 0.002,26.998 L 0.002,-0.001 L 27.003,-0.001 L 27.003,26.998 L 0.002,26.998 Z" marker-start="none" marker-end="none"/>
     <path d="M 3.753,2.999 L 3.753,8.913 L 2.146,15.875 C 0.907,16.243 0.003,17.391 0.003,18.749 C 0.003,20.404 1.348,21.747 3.003,21.747 C 4.658,21.747 6.003,20.404 6.003,18.749 C 6.003,18.318 5.912,17.909 5.748,17.539 L 8.802,14.103 L 11.362,19.649 C 10.831,20.19 10.503,20.931 10.503,21.749 C 10.503,23.404 11.848,24.747 13.503,24.747 C 15.158,24.747 16.503,23.404 16.503,21.749 C 16.503,20.932 16.175,20.192 15.645,19.651 L 18.204,14.104 L 21.257,17.539 C 21.093,17.909 21.003,18.318 21.003,18.749 C 21.003,20.404 22.348,21.747 24.003,21.747 C 25.658,21.747 27.003,20.404 27.003,18.749 C 27.003,17.391 26.098,16.243 24.859,15.875 L 23.253,8.913 L 23.253,2.999 C 23.253,2.585 22.916,2.249 22.503,2.249 L 4.503,2.249 C 4.089,2.249 3.753,2.585 3.753,2.999 Z M 21.753,3.749 L 21.753,8.999 C 21.753,9.055 21.759,9.112 21.772,9.167 L 23.13,15.054 C 23.146,15.077 23.16,15.102 23.173,15.128 L 24.243,17.268 C 24.957,17.383 25.504,18.002 25.504,18.749 C 25.504,19.577 24.831,20.249 24.003,20.249 C 23.175,20.249 22.502,19.577 22.502,18.749 C 22.502,18.503 22.561,18.271 22.664,18.068 C 22.678,18.056 22.69,18.046 22.703,18.036 C 22.765,17.979 22.816,17.915 22.855,17.846 L 21.978,16.092 L 18.563,12.25 C 18.204,11.847 17.548,11.944 17.321,12.434 L 14.351,18.872 C 14.318,18.862 14.285,18.853 14.253,18.845 L 14.253,20.449 C 14.701,20.709 15.004,21.194 15.004,21.749 C 15.004,22.577 14.331,23.249 13.503,23.249 C 12.675,23.249 12.002,22.577 12.002,21.749 C 12.002,21.194 12.304,20.709 12.752,20.449 L 12.752,18.845 C 12.72,18.853 12.687,18.862 12.655,18.872 L 9.683,12.434 C 9.457,11.944 8.8,11.847 8.442,12.25 L 5.026,16.092 L 4.164,17.816 C 4.199,17.879 4.244,17.937 4.298,17.991 C 4.428,18.213 4.504,18.472 4.504,18.749 C 4.504,19.577 3.831,20.249 3.003,20.249 C 2.175,20.249 1.502,19.577 1.502,18.749 C 1.502,18.038 1.997,17.443 2.66,17.288 C 2.689,17.292 2.719,17.294 2.748,17.294 L 3.832,15.128 C 3.844,15.102 3.858,15.077 3.874,15.054 L 5.233,9.167 C 5.246,9.112 5.253,9.055 5.253,8.999 L 5.253,3.749 L 21.753,3.749 Z" fill="#000000" marker-start="none" marker-end="none"/>
    </g>
   </g>
  </g>
 </g>
</svg>
