<?xml version="1.0" encoding="utf-8"?>
<!-- Generator: Adobe Illustrator 21.1.0, SVG Export Plug-In . SVG Version: 6.00 Build 0)  -->
<svg version="1.1" id="Слой_1" xmlns="http://www.w3.org/2000/svg" xmlns:xlink="http://www.w3.org/1999/xlink" x="0px" y="0px"
	 viewBox="0 0 14 15.3" style="enable-background:new 0 0 14 15.3;" xml:space="preserve">
<style type="text/css">
	.st0{fill:#FFFFFF;}
</style>
<title></title>
<g id="icomoon-ignore">
</g>
<path class="st0" d="M2.5,3.5H1.3V0h1.3V3.5z M3.8,7c0,0.3-0.3,0.6-0.6,0.6H0.6C0.3,7.6,0,7.3,0,7V4.5c0-0.3,0.3-0.6,0.6-0.6h2.5
	c0.3,0,0.6,0.3,0.6,0.6V7z M7.6,8.6H6.4V0h1.3V8.6z M12.7,2.2h-1.3V0h1.3L12.7,2.2L12.7,2.2z M2.5,15.3H1.3V8h1.3V15.3z M14,5.7
	c0,0.3-0.3,0.6-0.6,0.6h-2.5c-0.3,0-0.6-0.3-0.6-0.6V3.2c0-0.3,0.3-0.6,0.6-0.6h2.5c0.3,0,0.6,0.3,0.6,0.6V5.7z M8.9,12.1
	c0,0.3-0.3,0.6-0.6,0.6H5.7c-0.3,0-0.6-0.3-0.6-0.6V9.5c0-0.3,0.3-0.6,0.6-0.6h2.5c0.3,0,0.6,0.3,0.6,0.6V12.1z M7.6,15.3H6.4V13
	h1.3V15.3z M12.7,15.3h-1.3V6.7h1.3L12.7,15.3L12.7,15.3z"/>
</svg>
