<?xml version="1.0" encoding="utf-8"?>
<!-- Generator: Adobe Illustrator 17.0.0, SVG Export Plug-In . SVG Version: 6.00 Build 0)  -->
<!DOCTYPE svg PUBLIC "-//W3C//DTD SVG 1.1//EN" "http://www.w3.org/Graphics/SVG/1.1/DTD/svg11.dtd">
<svg version="1.1" id="Layer_1" xmlns="http://www.w3.org/2000/svg" xmlns:xlink="http://www.w3.org/1999/xlink" x="0px" y="0px"
	 width="119.962px" height="49.975px" viewBox="135.269 30.954 119.962 49.975"
	 enable-background="new 135.269 30.954 119.962 49.975" xml:space="preserve">
<g id="Слой_x0020_1">
	<rect x="135.269" y="30.954" fill="#0F1B4A" width="119.962" height="49.975"/>
	<path fill="#FEFEFE" d="M247.124,53.008c-0.425,2.665-3.515,2.693-3.969,0c-1.134,0-2.494-0.057-3.572,0
		c-1.304,0.085-1.02,1.361-1.02,2.551c0,2.466-0.028,2.069,5.216,2.069c1.191,0,2.381,0,3.572,0c1.134,0,2.721,0.283,2.976-0.737
		c0.113-0.425,0.113-3.005-0.085-3.373C249.874,52.753,248.145,53.008,247.124,53.008z"/>
	<path fill="#FDFDFD" d="M215.972,50.57c-0.454,3.628-3.77,6.775-7.937,6.265c-1.701-0.198-3.572-1.134-4.62-2.494
		c-1.077-1.389-1.928-2.976-1.644-5.443c0.425-3.6,3.77-6.69,7.937-6.208C213.279,43.087,216.482,46.46,215.972,50.57z
		 M208.035,41.726c-3.146,0.312-5.839,2.466-6.86,5.301c-0.397,1.106-0.567,2.353-0.425,3.6c0.567,5.584,6.945,9.014,12.076,6.208
		c0.85-0.482,1.729-1.219,2.239-1.843c0.595-0.737,1.106-1.389,1.502-2.523C218.608,46.8,213.902,41.131,208.035,41.726z"/>
	<path fill="#FEFEFE" d="M168.831,56.665v-6.69c2.693,0,7.143-0.595,7.143,3.345c0,1.531-1.049,2.665-2.183,3.09
		C172.743,56.835,170.135,56.636,168.831,56.665z M168.86,49.011l-0.028-6.18c1.134,0,3.175-0.085,4.082,0.312
		c1.984,0.907,2.353,4.394,0.057,5.556C171.978,49.181,170.079,48.983,168.86,49.011z M167.811,57.6
		c3.373,0.028,6.661,0.624,8.476-1.928c1.219-1.701,1.02-4.791-1.502-6.038c-0.312-0.17-0.709-0.227-0.964-0.397
		c0.794-0.51,1.531-1.191,1.701-2.523c0.312-2.438-0.85-4.507-3.572-4.791c-1.304-0.113-2.778-0.057-4.11-0.057L167.811,57.6z"/>
	<polygon fill="#FEFEFE" points="219.77,57.6 220.791,57.628 220.791,49.521 230.315,49.493 230.343,57.6 231.364,57.6 
		231.364,41.868 230.372,41.868 230.343,48.529 220.791,48.557 220.791,41.868 219.77,41.868 	"/>
	<path fill="#FEFEFE" d="M239.244,46.403c0.113-0.17,0.227-0.822,0.397-1.134c0.992-1.984,3.657-2.324,5.102-0.879
		c0.794,0.794,0.652,0.85,1.049,2.041c0.709,0.142,2.466,0.057,3.288,0.057c1.417,0,1.304-0.709,1.304-1.984
		c0-3.033,0.198-2.636-3.969-2.636c-2.183,0-4.365,0-6.548,0c-1.389,0.028-1.304,0.765-1.304,2.013
		C238.564,44.957,238.309,46.12,239.244,46.403z"/>
	<path fill="#FDFDFD" d="M184.932,43.994l3.061,7.483l-6.094,0.028c0.113-0.68,1.191-3.033,1.502-3.827
		C183.855,46.573,184.394,45.014,184.932,43.994z M178.356,57.6c1.361,0.028,0.85,0.397,2.069-2.523
		c0.312-0.822,0.794-1.843,1.049-2.636h6.775c0.283,0.057,1.077,2.324,1.162,2.58l0.822,1.984c0.283,0.765,0.17,0.624,1.276,0.595
		l-6.548-16.214c-0.227,0.255-2.92,7.058-3.317,8.05C181.219,50.542,178.611,56.75,178.356,57.6z"/>
	<path fill="#FEFEFE" d="M155.622,57.6h1.02v-5.868c0-0.85-0.17-1.247,0.397-1.587c0.283,0.17,5.443,5.386,6.151,6.066
		c1.644,1.672,1.049,1.417,2.693,1.417c-0.17-0.397-5.613-5.698-6.066-6.151c-0.68-0.68-1.332-1.389-2.041-2.013l5.754-5.669
		c0.283-0.283,1.814-1.757,1.899-1.928c-0.34,0-0.652-0.028-0.964,0c-0.454,0-0.454,0.085-0.68,0.312l-3.061,3.033
		c-1.191,1.247-2.778,2.693-4.054,3.94l-0.028-7.285h-0.992L155.622,57.6z"/>
	<path fill="#FEFEFE" d="M146.948,43.994l3.061,7.483l-6.066,0.028C143.972,51.222,146.523,44.816,146.948,43.994z M140.372,57.6
		h1.02l2.098-5.131l6.775-0.028c0.227,0.113,0.227,0.255,0.34,0.539c0.34,0.85,1.701,4.309,1.928,4.62h0.992l-6.548-16.214
		c-0.227,0.227-4.847,11.877-5.783,14.145C140.939,56.183,140.57,56.948,140.372,57.6z"/>
	<path fill="#FEFEFE" d="M248.202,48.586c1.502-0.283,2.013,2.069,0.454,2.381C247.068,51.279,246.586,48.898,248.202,48.586z
		 M239.386,47.48c-0.85,0.198-0.822,0.879-0.822,1.757c0,2.75-0.227,2.835,2.239,2.835c0.85,0,1.729,0,2.58-0.028
		c0,0,1.276-1.729,2.835-0.652c0.425,0.312,0.482,0.624,0.737,0.652c0.709,0.028,2.494,0.17,2.948-0.17
		c0.68-0.454,0.482-1.531,0.482-2.693c0-2.154-0.482-1.729-4.677-1.729C245.027,50.882,239.924,50.769,239.386,47.48z"/>
	<polygon fill="#FDFDFD" points="190.375,42.831 194.457,42.831 194.457,57.572 195.449,57.6 195.449,42.831 199.531,42.831 
		199.531,41.868 190.375,41.868 	"/>
	<path fill="#FDFDFD" d="M236.041,65.962v4.025h0.624v-4.989c-1.191,0-0.907-0.17-1.332,0.992c-0.283,0.68-0.964,2.665-1.191,3.033
		l-1.502-4.025h-0.992v4.989h0.652l0.028-3.969l1.559,3.969h0.539L236.041,65.962z"/>
	<path fill="#FDFDFD" d="M140.967,66.076c0.057,0.085,0.028,0,0.113,0.17l1.446,3.742h0.567c0.17-0.567,0.539-1.361,0.765-1.956
		c0.085-0.227,0.652-1.843,0.822-1.956v3.912h0.624v-4.989h-0.964l-1.531,4.025c-0.255-0.454-0.907-2.353-1.191-3.09
		c-0.425-1.106-0.113-0.935-1.304-0.907v4.961l0.624-0.028L140.967,66.076z"/>
	<path fill="#FDFDFD" d="M172.8,69.42c0.255-0.624,0.454-0.935,0.595-1.701c0.142-0.709,0.113-1.417,0.17-2.098h1.644v3.798H172.8z
		 M172.148,69.987h3.798v1.106h0.624V69.42h-0.652v-4.422l-3.005,0.028c-0.028,1.332-0.028,2.665-0.595,3.855
		c-0.255,0.482-0.227,0.482-0.822,0.567l0.057,1.644h0.595V69.987z"/>
	<path fill="#FDFDFD" d="M190.261,69.42V67.72c0.879,0,2.466-0.283,2.494,0.794C192.784,69.676,191.225,69.42,190.261,69.42z
		 M190.261,67.124v-1.502c0.879-0.028,2.268-0.255,2.268,0.709C192.529,67.38,191.14,67.124,190.261,67.124z M189.581,69.987
		c1.361,0,3.26,0.227,3.742-0.765c0.17-0.312,0.17-0.822,0-1.191c-0.17-0.425-0.368-0.482-0.85-0.652
		c1.304-0.794,0.964-2.381-0.794-2.381h-2.098V69.987z"/>
	<path fill="#FEFEFE" d="M151.568,67.691c0.709-0.198,2.098-0.142,2.353,0.369c0.17,0.368,0.142,0.822-0.142,1.077
		c-0.397,0.397-1.616,0.283-2.211,0.255V68.91V67.691z M151.568,65.65c0.539-0.142,2.098,0,2.806-0.057v-0.595h-3.487v4.989
		c0.765,0,1.729,0.057,2.494,0c0.737-0.085,1.219-0.425,1.332-1.162c0.34-2.268-2.211-1.672-3.146-1.786V65.65z"/>
	<path fill="#FDFDFD" d="M227.934,65.509c2.523-0.68,2.778,3.515,0.992,3.997C226.318,70.186,226.148,66.019,227.934,65.509z
		 M226.091,68.202c0.51,2.976,5.357,2.608,4.62-1.389c-0.227-1.361-1.304-2.211-2.92-1.871
		C226.46,65.225,225.808,66.586,226.091,68.202z"/>
	<path fill="#FDFDFD" d="M185.244,67.436c-1.02,0-2.466,0.255-2.438-0.935c0-1.162,1.417-0.879,2.438-0.879v0.085V67.436z
		 M185.839,64.998c-1.162,0-2.863-0.198-3.458,0.539c-0.397,0.482-0.68,2.211,0.992,2.381c-0.255,0.652-0.964,1.417-1.276,2.069
		h0.85c0.283-0.652,0.879-1.304,1.162-1.956h1.134v1.956h0.68L185.839,64.998z"/>
	<polygon fill="#FEFEFE" points="146.466,65.31 146.466,69.987 150.094,69.987 150.094,69.392 147.146,69.364 147.146,67.72 
		149.726,67.72 149.726,67.124 147.146,67.124 147.146,65.622 150.009,65.594 150.009,65.027 146.466,64.998 	"/>
	<polygon fill="#FDFDFD" points="156.274,65.622 159.137,65.594 159.137,64.998 155.622,65.055 155.622,69.987 159.25,69.987 
		159.25,69.364 156.274,69.364 156.274,67.72 158.854,67.72 158.854,67.124 156.274,67.124 	"/>
	<polygon fill="#FEFEFE" points="199.587,67.663 202.082,67.663 202.054,69.987 202.762,69.987 202.762,64.998 202.082,65.027 
		202.082,67.068 199.587,67.068 199.587,65.027 198.935,64.998 198.935,69.987 199.587,69.987 	"/>
	<polygon fill="#FDFDFD" points="237.855,69.987 238.535,69.987 238.535,67.663 240.973,67.663 240.973,69.987 241.654,69.987 
		241.654,64.998 240.973,65.027 240.973,67.068 238.535,67.068 238.535,65.027 237.855,64.998 	"/>
	<path fill="#FDFDFD" d="M176.797,69.987c2.098,0.17,1.899-2.438,1.899-4.365l1.757-0.028v4.394h0.68v-4.961h-3.09
		c0,0.879,0.028,1.871-0.057,2.721c-0.113,0.964-0.198,1.616-1.191,1.644V69.987z"/>
	<path fill="#FDFDFD" d="M159.477,69.987c2.126,0.198,1.899-2.466,1.899-4.337c0.454-0.113,1.276-0.028,1.757-0.028v4.365h0.68
		v-4.989l-3.061,0.057c-0.113,1.843,0.34,4.309-1.247,4.337L159.477,69.987z"/>
	<polygon fill="#FDFDFD" points="204.009,69.987 204.661,69.987 204.661,67.663 207.128,67.663 207.128,69.959 207.808,69.987 
		207.808,65.027 207.128,64.998 207.128,67.068 204.661,67.068 204.661,65.055 204.009,64.998 	"/>
	<path fill="#FDFDFD" d="M196.044,65.792l0.879,2.324h-1.701L196.044,65.792z M193.833,69.987h0.737l0.454-1.276
		c2.409,0,2.013-0.198,2.324,0.624c0.085,0.227,0.17,0.425,0.227,0.652h0.737l-1.871-4.989h-0.737L193.833,69.987z"/>
	<path fill="#FDFDFD" d="M243.666,68.117c0.113-0.482,0.624-1.928,0.85-2.296l0.794,2.296H243.666z M243.439,68.712h1.956
		c0.255,0.113,0.085-0.085,0.255,0.255l0.34,1.02h0.765l-1.871-4.989h-0.737l-1.871,4.989h0.709L243.439,68.712z"/>
	<path fill="#FDFDFD" d="M214.668,64.998l1.587,2.409c-0.17,0.482-1.304,1.899-1.672,2.58c1.077,0,0.822,0,1.332-0.794
		c0.255-0.369,0.482-0.822,0.794-1.191c0.227,0.17,1.134,1.701,1.304,1.984l0.85-0.028l-1.701-2.551
		c0.283-0.539,1.191-1.701,1.587-2.409h-0.794l-1.191,1.843c-0.028,0-0.028,0.028-0.057,0.028c-0.227-0.255-0.595-0.85-0.765-1.162
		C215.49,64.97,215.717,64.998,214.668,64.998z"/>
	<path fill="#FDFDFD" d="M165.742,69.42v-1.814c0.992,0,2.353-0.227,2.353,0.907C168.094,69.619,166.677,69.42,165.742,69.42z
		 M165.09,69.987c1.361,0.028,3.487,0.34,3.685-1.162c0.283-2.126-1.899-1.786-3.033-1.786v-2.013l-0.652-0.028V69.987z"/>
	<path fill="#FDFDFD" d="M209.735,67.606h1.191c0.879,0,1.531,0.652,0.992,1.417c-0.368,0.539-1.417,0.397-2.183,0.397V67.606z
		 M209.055,69.987c1.446,0.028,3.402,0.34,3.685-1.077c0.397-2.041-1.531-1.899-3.005-1.871v-2.013l-0.68-0.028V69.987z"/>
	<path fill="#FDFDFD" d="M221.868,69.987h0.68v-2.523c0.425,0.312,2.098,2.466,2.438,2.523h0.765
		c-0.227-0.397-0.879-0.935-1.219-1.332l-1.247-1.304c0.312-0.482,2.154-2.069,2.324-2.353c-1.049,0-0.737-0.057-1.814,1.02
		c-0.34,0.312-0.879,0.992-1.247,1.191v-2.211h-0.68V69.987z"/>
	<polygon fill="#FEFEFE" points="248.457,65.594 248.457,69.987 249.137,69.987 249.137,65.622 250.724,65.622 250.753,64.998 
		246.841,64.998 246.869,65.594 	"/>
	<polygon fill="#FEFEFE" points="213.25,69.987 213.931,69.987 213.931,65.083 213.931,64.998 213.25,64.998 213.25,65.083 	"/>
</g>
</svg>
