<?xml version="1.0" encoding="utf-8"?>
<!-- Generator: Adobe Illustrator 17.0.0, SVG Export Plug-In . SVG Version: 6.00 Build 0)  -->
<!DOCTYPE svg PUBLIC "-//W3C//DTD SVG 1.1//EN" "http://www.w3.org/Graphics/SVG/1.1/DTD/svg11.dtd">
<svg version="1.1" id="Layer_1" xmlns="http://www.w3.org/2000/svg" xmlns:xlink="http://www.w3.org/1999/xlink" x="0px" y="0px"
	 width="119.962px" height="49.975px" viewBox="135.269 30.954 119.962 49.975"
	 enable-background="new 135.269 30.954 119.962 49.975" xml:space="preserve">
<g>
	<g>
		<g>
			<g>
				<path fill="#00539E" d="M233.482,63.445c-1.378,0.223-2.156,0.302-2.905,0.302c-1.819,0-4.409-0.52-7.128-1.445l-4.076-1.379
					c-2.152-0.731-5.364-1.331-7.127-1.331c-1.745,0-4.967,0.602-7.116,1.331l-4.071,1.379c-2.724,0.923-5.318,1.445-7.135,1.445
					c-1.813,0-4.404-0.522-7.124-1.445l-4.081-1.379c-2.145-0.731-5.358-1.333-7.109-1.331c-1.763,0-4.982,0.601-7.13,1.331
					l-4.08,1.379c-2.716,0.925-5.304,1.445-7.123,1.445c-0.754,0-1.526-0.078-2.908-0.302l0.176,0.28
					c0.388,0.656,0.6,0.938,1.12,1.549c0.714,0.094,1.003,0.121,1.575,0.121c1.818,0,4.785-0.569,7.159-1.374l4.08-1.378
					c2.769-0.938,5.299-1.449,7.13-1.449c1.542,0,4.233,0.496,6.103,1.122l5.087,1.705c2.407,0.808,5.354,1.374,7.128,1.374
					c1.786,0,4.732-0.566,7.132-1.374l5.082-1.705c1.873-0.626,4.568-1.122,6.112-1.122c1.829,0,4.354,0.511,7.12,1.449l4.076,1.378
					c2.379,0.804,5.341,1.374,7.172,1.374c0.568,0,0.851-0.027,1.575-0.121c0.573-0.681,0.742-0.913,1.122-1.549L233.482,63.445"/>
				<path fill="#00539E" d="M227.406,69.176l-5.934-1.821c-2.66-0.823-3.695-1.099-5.118-1.423
					c-1.504-0.334-3.011-0.521-4.107-0.521c-1.722,0-5.001,0.613-7.116,1.325l-4.071,1.384c-2.759,0.929-5.297,1.446-7.155,1.446
					c-1.854,0-4.371-0.514-7.139-1.446l-4.084-1.384c-2.109-0.711-5.406-1.325-7.121-1.325c-1.088,0-2.611,0.188-4.102,0.521
					c-1.405,0.315-2.524,0.625-5.126,1.423l-5.922,1.821c0.631,0.581,0.8,0.711,1.509,1.191l3.293-1.002l2.721-0.802l1.095-0.325
					c2.896-0.858,4.866-1.223,6.537-1.223c1.513,0,4.268,0.504,6.103,1.118l5.098,1.713c2.377,0.802,5.335,1.366,7.141,1.366
					c1.803,0,4.782-0.571,7.153-1.366l5.082-1.713c1.83-0.613,4.599-1.118,6.112-1.118c1.677,0,3.628,0.366,6.529,1.223l1.087,0.325
					l2.728,0.802l3.297,1.002C226.605,69.885,226.771,69.754,227.406,69.176"/>
				<path fill="#00539E" d="M220.765,73.034l-0.368-0.136l-1.024-0.333c-2.953-0.893-5.322-1.34-7.127-1.34
					c-1.509,0-4.069,0.438-6.105,1.04l-1.011,0.3c-0.519,0.167-0.858,0.279-1.024,0.333l-1.02,0.354l-1.011,0.348l-1.017,0.343
					c-3.1,1.004-5.297,1.446-7.135,1.446c-1.57,0-3.908-0.427-6.107-1.125l-1.018-0.321l-1.017-0.343l-1.016-0.348l-1.011-0.354
					l-1.038-0.333c-2.946-0.893-5.317-1.34-7.109-1.34c-1.527,0-4.083,0.436-6.114,1.04l-1.016,0.3
					c-0.721,0.232-0.87,0.279-1.391,0.47l2.045,1.067l0.465-0.139c2.388-0.742,4.446-1.128,6.016-1.128
					c1.318,0,3.383,0.339,5.078,0.829l1.022,0.299l1.006,0.321l1.038,0.345l1.011,0.352l1.016,0.344l1.017,0.335
					c3.063,0.942,5.307,1.373,7.128,1.373c1.567,0,3.951-0.418,6.107-1.066l1.025-0.307l1.017-0.335l1.011-0.344l1.02-0.352
					l1.024-0.345l1.011-0.321c2.606-0.772,4.519-1.128,6.112-1.128c1.574,0.002,3.622,0.385,6.008,1.128l0.457,0.139L220.765,73.034
					"/>
				<path fill="#00539E" d="M162.58,48.968v4.457c-1.011,0.427-2.033,0.639-3.048,0.639c-2.613,0-4.452-2.017-4.452-4.89
					c0-3.09,2.197-5.242,5.347-5.242c1.766,0,3.51,0.495,5.627,1.573V42.54c-2.702-1.099-4.038-1.415-6.037-1.415
					c-5.52,0-9.041,3.121-9.041,8.006c0,4.644,3.421,7.736,8.561,7.736c2.295,0,5.012-0.727,6.991-1.889v-6.009H162.58"/>
				<path fill="#00539E" d="M169.795,41.561v14.876h3.887V44.363h1.675c2.194,0,3.174,0.7,3.174,2.263
					c0,1.601-1.099,2.504-3.033,2.504l-0.854-0.025h-0.43l5.393,7.332h4.965l-4.949-5.985c1.839-0.823,2.813-2.302,2.813-4.227
					c0-3.159-2.04-4.665-6.298-4.665L169.795,41.561"/>
				<polyline fill="#00539E" points="205.927,41.561 205.927,56.437 209.813,56.437 209.813,50.073 216.672,50.073 216.672,56.437 
					220.555,56.437 220.555,41.561 216.672,41.561 216.672,47.062 209.813,47.062 209.813,41.561 205.927,41.561 				"/>
				<polyline fill="#00539E" points="224.698,41.561 224.698,56.437 235.867,56.437 235.867,53.525 228.576,53.525 228.576,49.984 
					233.934,49.984 233.934,47.183 228.576,47.183 228.576,44.474 235.018,44.474 235.018,41.561 224.698,41.561 				"/>
				<path fill="#00539E" d="M184.858,49c0,4.624,3.873,8.011,9.156,8.011c5.277,0,9.155-3.387,9.148-8.012
					c0-4.633-3.866-8.018-9.148-8.018C188.727,40.981,184.858,44.365,184.858,49L184.858,49z M188.944,48.998
					c0.008-3.068,2.086-5.216,5.069-5.216s5.056,2.15,5.056,5.218c0,3.062-2.079,5.21-5.056,5.21
					C191.039,54.211,188.944,52.06,188.944,48.998"/>
			</g>
		</g>
	</g>
</g>
<g>
	<polygon display="none" fill="#FFFFFF" points="162.204,21.655 232.826,21.655 232.826,92.277 162.204,92.277 	"/>
</g>
</svg>
