<?xml version="1.0" encoding="utf-8"?>
<!-- Generator: Adobe Illustrator 17.0.0, SVG Export Plug-In . SVG Version: 6.00 Build 0)  -->
<!DOCTYPE svg PUBLIC "-//W3C//DTD SVG 1.1//EN" "http://www.w3.org/Graphics/SVG/1.1/DTD/svg11.dtd">
<svg version="1.1" id="Layer_1" xmlns="http://www.w3.org/2000/svg" xmlns:xlink="http://www.w3.org/1999/xlink" x="0px" y="0px"
	 width="119.962px" height="49.975px" viewBox="135.269 30.954 119.962 49.975"
	 enable-background="new 135.269 30.954 119.962 49.975" xml:space="preserve">
<g id="Слой_x0020_1">
	<rect x="135.269" y="30.954" fill="#00A785" width="119.962" height="49.975"/>
</g>
<g id="Слой_x0020_1_1_">
	<path fill="#FEFEFE" d="M196.54,53.23c4.197-1.116,5.768,5.758,1.42,6.706C193.721,60.859,192.107,54.414,196.54,53.23z
		 M200.731,60.817c-0.147,3.536-3.426,5.108-6.172,3.07c-0.77-0.566-1.535-0.43-3.133-0.335c0.278,2.122,5.391,6.219,10.138,1.64
		c1.959-1.897,1.619-3.337,1.619-6.554c0-1.546,0.189-6.952-0.12-8.047l-2.242,0.005l-0.178,1.163
		c-3.861-3.484-9.54-0.021-9.472,4.836c0.047,3.725,3.505,6.638,6.774,5.915C199.254,62.221,199.93,61.335,200.731,60.817z"/>
	<path fill="#FEFEFE" d="M229.761,42.37h-2.735v20.291l2.735,0.047c-0.005-1.975,0.005-3.95-0.005-5.92
		c-0.01-1.991,0.351-3.547,2.405-3.578c2.499-0.037,2.452,2.279,2.447,3.578c-0.01,1.954-0.005,3.914-0.005,5.873l2.641,0.047
		c0-2.379,0.398-8.372-0.534-10.096c-0.592-1.095-1.383-1.933-2.965-2.211c-1.498-0.267-3.29,0.372-3.903,1.132L229.761,42.37z"/>
	<path fill="#FEFEFE" d="M142.058,42.37h-2.719v20.375l2.719-0.005c0-1.986,0.01-3.971,0-5.957c-0.01-1.975,0.32-3.458,2.316-3.536
		c2.09-0.084,2.551,1.42,2.546,3.353c-0.005,2.049,0,4.092-0.005,6.14h2.63c0.016-5.035,1.205-11.259-3.316-12.265
		c-1.766-0.398-2.971,0.482-4.165,0.99L142.058,42.37z"/>
	<path fill="#FEFEFE" d="M157.639,53.183c4.307-0.77,5.433,6.13,1.095,6.879C154.27,60.832,153.144,53.99,157.639,53.183z
		 M161.469,61.498l0.094,1.163h2.562c0.162-1.346,0.21-11.128-0.063-12.071h-2.426l-0.141,1.221
		c-1.205-0.681-3.102-2.567-6.428-0.587c-1.53,0.917-3.138,2.897-3.081,5.559C152.101,61.608,157.482,64.809,161.469,61.498z"/>
	<path fill="#FEFEFE" d="M242.524,55.206c0.702-2.714,5.202-3.102,6.166,0.01L242.524,55.206z M251.022,58.915
		c-0.864-0.005-2.132-0.21-2.866,0.152c-0.681,0.335-0.791,0.938-2.127,1.1c-1.996,0.246-3.416-0.917-3.709-2.452l9.169-0.01
		c0.676-8.503-9.74-9.776-11.657-2.855c-1.032,3.709,1.184,6.648,3.641,7.639C246.867,63.85,250.383,61.519,251.022,58.915z"/>
	<path fill="#FEFEFE" d="M217.916,53.194c4.354-0.964,5.533,6.104,1.252,6.874C214.809,60.853,213.572,54.158,217.916,53.194z
		 M218.052,50.396c-8.299,1.006-6.554,13.276,1.137,12.448c3.164-0.341,5.653-3.212,5.381-6.795
		C224.333,52.916,221.431,49.987,218.052,50.396z"/>
	<path fill="#FEFEFE" d="M169.689,51.664l0.005-1.069h-2.593v12.066h2.73c0.435-4.7-1.153-9.294,2.447-9.41
		c3.924-0.131,2.211,4.804,2.63,9.41l2.656-0.01c0.173-2.269,0.361-8.425-0.571-10.022c-1.079-1.849-3.29-2.751-5.533-2.017
		C170.475,50.93,170.365,51.329,169.689,51.664z"/>
	<path fill="#FEFEFE" d="M182.258,58.737l-2.698-0.063c0.005,4.097,6.549,5.878,9.032,2.415c1.456-2.022,0.713-4.286-1.048-5.155
		c-0.88-0.43-1.923-0.566-2.918-0.765c-1.394-0.272-2.263-0.262-2.174-1.755c2.185-1.865,3.756,0.655,3.872,0.697h2.682
		c0.115-2.038-2.719-3.825-5.092-3.688c-4.17,0.241-6.203,5.129-1.745,6.816c1.085,0.414,2.871,0.519,3.699,0.922
		c2.179,1.053-0.566,3.233-2.667,1.928C182.473,59.638,182.756,59.433,182.258,58.737z"/>
	<path fill="#FEFEFE" d="M209.124,51.517c-0.933-1.179,0.781-0.922-2.876-0.922v12.066h2.766c0.555-6.125-1.425-9.163,2.855-9.703
		l-0.021-2.599C210.534,50.38,209.68,50.689,209.124,51.517z"/>
</g>
</svg>
