<?xml version="1.0" encoding="utf-8"?>
<!-- Generator: Adobe Illustrator 17.0.0, SVG Export Plug-In . SVG Version: 6.00 Build 0)  -->
<!DOCTYPE svg PUBLIC "-//W3C//DTD SVG 1.1//EN" "http://www.w3.org/Graphics/SVG/1.1/DTD/svg11.dtd">
<svg version="1.1" id="Capa_1" xmlns="http://www.w3.org/2000/svg" xmlns:xlink="http://www.w3.org/1999/xlink" x="0px" y="0px"
	 width="155.906px" height="53.408px" viewBox="0 0 155.906 53.408" enable-background="new 0 0 155.906 53.408"
	 xml:space="preserve">
<g>
	<path d="M154.931,21.457c-0.094,0.018-0.188,0.034-0.281,0.051c-0.237,0.01-0.505,0.098-0.677,0.229
		c-0.876,0.032-1.671-0.041-2.505-0.062c-0.737-0.018-1.421-0.005-2.138-0.056c-0.23-0.036-0.463-0.073-0.693-0.109
		c-0.519-0.066-1.026-0.031-1.57-0.046c-0.39-0.01-1.269-0.167-1.574-0.014c-0.617,0.007-1.236,0.013-1.854,0.02
		c-0.189-0.026-0.38-0.055-0.569-0.084c-0.428-0.032-0.859-0.067-1.288-0.102c-0.331-0.057-0.579-0.187-0.908-0.242
		c-0.337-0.059-0.648-0.129-0.971-0.175c-0.276-0.039-0.582-0.045-0.836-0.134c-0.851-0.299-1.237-1.254-2.274-1.165
		c-0.331,0.028-0.507,0.188-0.761,0.329c-0.521,0.283-0.97,0.646-1.47,0.965c-0.157,0.099-0.339,0.118-0.496,0.213
		c-0.898,0.033-1.173-0.804-1.877-1.195c-0.318-0.176-0.66-0.278-0.993-0.421c-0.118-0.058-0.238-0.115-0.355-0.172
		c-0.14-0.04-0.28-0.081-0.421-0.123c-0.091-0.042-0.184-0.088-0.274-0.132c-0.224-0.048-0.447-0.097-0.67-0.146
		c-0.417-0.15-0.741-0.521-1.143-0.708c-0.153-0.039-0.309-0.08-0.463-0.12c-0.338-0.094-0.91-0.321-1.302-0.128
		c-0.274,0.011-0.597,0.086-0.799,0.232c-1.043,0.039-2.063,0.932-2.654,1.732c-0.123,0.166-0.254,0.425-0.413,0.549
		c-0.166,0.125-0.354,0.271-0.55,0.337c-0.298,0.095-0.658,0.152-0.908,0.336c-0.093,0.017-0.187,0.033-0.282,0.051
		c-0.104,0.018-0.214,0.034-0.318,0.051c-0.294,0.013-0.62,0.116-0.837,0.274c-0.08,0.016-0.16,0.032-0.24,0.049
		c-0.12,0.019-0.241,0.036-0.362,0.054c-0.119,0.02-0.24,0.036-0.36,0.055c-0.246,0.01-0.531,0.063-0.719,0.188
		c-0.08,0.018-0.16,0.033-0.239,0.049c-0.205,0.009-0.474-0.011-0.643,0.065c-0.205,0.008-0.439,0.006-0.601,0.103
		c-0.08,0.017-0.16,0.032-0.24,0.05c-1.329,0.05-0.744-1.238-0.36-1.861c0.069-0.075,0.138-0.15,0.206-0.226
		c0.193-0.222,0.393-0.448,0.548-0.69c0.359-0.561,0.7-1.15,0.989-1.741c0.166-0.337,0.523-0.556,0.742-0.856
		c0.292-0.4,0.513-0.868,0.761-1.289c0.149-0.193,0.296-0.387,0.443-0.581c0.247-0.376,0.472-0.784,0.738-1.155
		c0.15-0.18,0.303-0.361,0.452-0.541c0.142-0.236,0.281-0.472,0.423-0.708c0.159-0.212,0.317-0.426,0.477-0.64
		c0.052-0.094,0.104-0.189,0.156-0.283c0.222-0.285,0.49-0.53,0.739-0.789c0.151-0.185,0.303-0.37,0.452-0.554
		c0.229-0.242,0.453-0.485,0.68-0.729c0.387-0.458,0.658-0.998,1.033-1.455c0.261-0.275,0.52-0.553,0.779-0.83
		c0.29-0.335,0.577-0.69,0.897-1.033c0.502-0.544,1.038-1.017,1.516-1.547c0.3-0.338,0.524-0.707,0.831-1.018
		c0.442-0.449,0.944-0.672,1.233-1.291c0.088-0.189,0.113-0.558-0.063-0.712c-0.422-0.365-0.821-0.209-1.223,0.085
		c-0.391,0.284-0.582,0.686-0.836,1.064c-0.161,0.235-0.414,0.498-0.603,0.716c-0.964,1.075-1.929,2.148-2.894,3.223
		c-0.37,0.398-0.621,0.839-0.971,1.24c-0.242,0.267-0.485,0.532-0.729,0.797c-0.628,0.804-1.259,1.606-1.889,2.41
		c-0.161,0.174-0.324,0.346-0.486,0.519c-0.146,0.166-0.274,0.362-0.441,0.523c-0.175,0.161-0.351,0.322-0.527,0.482
		c-0.509,0.619-1.016,1.203-1.607,1.733c-0.248,0.21-0.496,0.419-0.745,0.627c-0.109,0.081-0.223,0.161-0.334,0.241
		c-0.219,0.198-0.438,0.394-0.657,0.594c-0.133,0.144-0.278,0.336-0.423,0.456c-0.271,0.223-0.562,0.477-0.851,0.686
		c-0.382,0.274-0.811,0.486-1.187,0.781c-0.282,0.276-0.566,0.552-0.851,0.828c-0.133,0.099-0.296,0.123-0.444,0.195
		c-0.156,0.1-0.313,0.197-0.469,0.296c-0.714,0.501-1.376,1.032-2.115,1.479c-0.163,0.065-0.326,0.131-0.487,0.193
		c-0.085,0.056-0.171,0.112-0.259,0.166c-0.226,0.115-0.457,0.215-0.681,0.332c-0.281,0.145-0.597,0.243-0.854,0.43
		c-0.151,0.007-0.362-0.008-0.482,0.059c-0.12,0.018-0.24,0.035-0.36,0.054c-0.298,0.011-0.612,0.029-0.84-0.11
		c-0.456-0.284-0.191-1.281-0.099-1.706c0.043-0.19,0.157-0.354,0.136-0.571c-0.034-0.311-0.323-0.626-0.584-0.762
		c-0.133-0.068-0.308-0.175-0.469-0.162c-0.109,0.036-0.218,0.074-0.328,0.11c-0.125,0.046-0.252,0.093-0.378,0.141
		c-0.38,0.2-0.695,0.615-1.004,0.92c-0.413,0.404-0.86,0.755-1.298,1.134c-0.258,0.251-0.516,0.5-0.773,0.749
		c-0.416,0.311-0.949,0.454-1.361,0.764c-0.365,0.014-0.719,0.144-0.996,0.319c-0.079,0.018-0.159,0.033-0.239,0.05
		c-0.08,0.017-0.161,0.033-0.241,0.05c-0.326,0.013-0.676,0.014-0.961-0.073c-0.746-0.223-1.164-1.015-1.205-1.781
		c-0.015-0.283-0.037-0.606,0.086-0.826c0.26-0.464,0.7-0.752,1.022-1.174c0.252-0.332,0.536-0.622,0.822-0.948
		c0.111-0.146,0.222-0.289,0.332-0.433c0.204-0.199,0.408-0.398,0.612-0.599c0.449-0.552,0.857-1.131,1.285-1.686
		c0.17-0.19,0.342-0.38,0.512-0.569c0.236-0.333,0.42-0.711,0.609-1.068c0.051-0.107,0.102-0.217,0.153-0.325
		c0.509-0.722,1.134-1.382,1.614-2.118c0.048-0.115,0.096-0.23,0.146-0.345c0.146-0.206,0.292-0.413,0.439-0.619
		c0.054-0.111,0.108-0.223,0.162-0.333c0.225-0.304,0.451-0.608,0.677-0.911c0.08-0.149,0.159-0.3,0.237-0.449
		c0.136-0.168,0.273-0.337,0.408-0.505c0.165-0.267,0.277-0.583,0.442-0.843c0.117-0.188,0.16-0.415,0.284-0.599
		c0.468-0.706,1.032-1.333,1.477-2.045c0.145-0.236,0.331-0.456,0.423-0.717c0.074-0.212,0.093-0.464,0.081-0.715
		c-0.013-0.211-0.047-0.407-0.22-0.515c-0.201-0.128-0.527-0.133-0.748-0.02c-0.506,0.255-0.884,0.762-1.323,1.12
		c-0.253,0.205-0.48,0.47-0.74,0.675c-1,0.78-1.889,1.714-2.683,2.722c-0.681,0.86-1.268,1.789-1.926,2.654
		c-0.231,0.303-0.515,0.552-0.72,0.874c-0.28,0.436-0.48,0.91-0.731,1.361c-0.136,0.24-0.334,0.441-0.455,0.688
		c-0.15,0.301-0.256,0.616-0.413,0.918c-0.146,0.276-0.348,0.514-0.519,0.781c-0.188,0.293-0.345,0.587-0.506,0.895
		c-0.128,0.311-0.258,0.62-0.387,0.932c-0.143,0.268-0.384,0.483-0.497,0.764c-0.041,0.154-0.083,0.309-0.124,0.462
		c-0.115,0.343-0.325,0.661-0.442,1.002c-0.188,0.54-0.359,1.135-0.735,1.58c-0.517,0.61-1.207,1.031-1.853,1.438
		c-0.568,0.388-1.138,0.775-1.707,1.164c-0.295,0.177-0.601,0.319-0.909,0.48c-0.104,0.067-0.212,0.135-0.318,0.201
		c-0.37,0.173-0.837,0.176-1.188,0.386c-0.334,0.013-1.007-0.016-0.947-0.481c0.053-0.423,1.303-1.391,1.64-1.79
		c0.58-0.693,1.247-1.629,1.556-2.448c0.03-0.133,0.058-0.268,0.086-0.401c0.054-0.194,0.235-0.473,0.093-0.688
		c-0.067-0.1-0.179-0.152-0.27-0.209c-0.46-0.287-0.76-0.094-1.217,0.036c-0.162,0.045-0.319,0.053-0.449,0.149
		c-0.307,0.228-0.74,0.914-1.119,0.929c-0.068,0.003-0.131-0.028-0.154-0.086c-0.031-0.074-0.023-0.188,0.004-0.253
		c0.154-0.203,0.309-0.405,0.463-0.608c0.199-0.261,0.377-0.542,0.547-0.814c0.249-0.367,0.496-0.734,0.744-1.102
		c0.146-0.2,0.291-0.4,0.435-0.6c0.094-0.178,0.115-0.365,0.179-0.555c0.242-0.709,0.465-1.462,0.447-2.287
		c-0.016-0.74-0.172-1.394-0.336-2.049c-0.062-0.291-0.126-0.582-0.188-0.872c-0.202-0.641-0.505-1.244-0.809-1.833
		c-0.093-0.178-0.106-0.412-0.206-0.587c-0.07-0.099-0.144-0.195-0.217-0.295c-0.149-0.24-0.274-0.494-0.427-0.728
		c-0.186-0.285-0.412-0.54-0.606-0.816c-0.095-0.114-0.191-0.228-0.287-0.343c-0.146-0.218-0.305-0.464-0.491-0.654
		c-0.314-0.321-0.699-0.584-1.033-0.856c-0.51-0.416-1.027-0.781-1.567-1.126c-0.192-0.124-0.348-0.285-0.541-0.407
		c-0.525-0.337-1.113-0.675-1.711-0.877c-0.241-0.083-0.504-0.078-0.758-0.134c-0.126-0.049-0.254-0.099-0.38-0.146
		c-0.147-0.033-0.291-0.068-0.436-0.102c-0.183-0.07-0.365-0.142-0.549-0.212c-0.172-0.03-0.345-0.064-0.517-0.095
		c-0.235-0.058-0.448-0.159-0.699-0.192C78.785,0.038,78.581,0.02,78.379,0c-0.188-0.034-0.376-0.069-0.566-0.103
		c-1.464-0.135-3.04-0.058-4.595,0.002c-0.254,0.037-0.509,0.073-0.763,0.108c-0.215,0.009-0.508-0.02-0.683,0.066
		c-0.29,0.011-0.651,0.098-0.878,0.235c-0.376,0.014-0.751,0.027-1.128,0.042c-0.178,0.007-0.42-0.01-0.563,0.061
		c-0.345,0.013-0.737,0.105-0.998,0.279c-0.269,0.011-0.664-0.035-0.884,0.074c-0.435,0.017-1.178,0.118-1.48,0.338
		c-0.106,0.018-0.215,0.035-0.32,0.053c-0.347,0.013-0.571,0.177-0.851,0.28c-0.19,0.054-0.383,0.107-0.574,0.162
		c-0.111,0.068-0.224,0.137-0.334,0.207c-0.541,0.24-1.671,0.672-1.691,1.418c-0.012,0.411,0.367,0.646,0.569,0.949
		c0.254,0.386,0.542,0.768,1.047,0.807c0.238,0.018,0.313-0.189,0.229-0.377c-0.092-0.147-0.184-0.293-0.276-0.44
		c-0.313-0.887,0.276-1.17,0.894-1.507c0.115-0.064,0.231-0.128,0.348-0.193c0.16-0.044,0.32-0.088,0.481-0.132
		c0.148-0.065,0.294-0.131,0.441-0.197c0.195-0.049,0.391-0.099,0.587-0.147c0.137-0.06,0.271-0.12,0.406-0.18
		c0.293-0.068,0.586-0.137,0.878-0.204c0.159-0.057,0.319-0.112,0.478-0.169c0.535-0.102,1.075-0.115,1.646-0.163
		c0.4-0.075,0.802-0.152,1.201-0.229c0.523-0.039,1.044-0.078,1.567-0.118c0.308-0.034,0.616-0.069,0.925-0.105
		c0.645-0.025,1.288-0.052,1.932-0.079c0.255-0.03,0.509-0.061,0.764-0.09c0.476,0.004,0.951,0.037,1.411,0.11
		c0.214,0.034,0.395,0.115,0.619,0.144c0.427,0.054,0.906,0.015,1.324,0.108c0.101,0.038,0.199,0.076,0.298,0.114
		c0.3,0.089,0.598,0.161,0.89,0.271c0.228,0.053,0.456,0.104,0.683,0.156c0.146,0.059,0.286,0.114,0.43,0.171
		c0.154,0.041,0.309,0.081,0.464,0.121c0.604,0.274,1.144,0.666,1.706,1.037c0.693,0.457,1.366,0.945,1.979,1.552
		c0.209,0.203,0.346,0.463,0.543,0.676c0.271,0.295,0.571,0.565,0.795,0.889c0.17,0.245,0.3,0.517,0.472,0.764
		c0.153,0.224,0.322,0.426,0.475,0.65c0.074,0.165,0.149,0.328,0.222,0.492c0.067,0.094,0.133,0.187,0.197,0.281
		c0.176,0.327,0.286,0.672,0.415,1.029c0.07,0.194,0.234,0.348,0.27,0.562c0.011,0.361,0.02,0.724,0.029,1.085
		c0.058,0.493,0.121,1.03,0.125,1.567c-0.015,0.19-0.031,0.379-0.046,0.568c-0.003,0.293,0.063,0.536-0.028,0.804
		c-0.082,0.237-0.149,0.503-0.257,0.733c-0.138,0.254-0.274,0.509-0.413,0.764c-0.055,0.166-0.109,0.33-0.164,0.495
		c-0.126,0.163-0.254,0.326-0.38,0.489c-0.228,0.279-0.469,0.576-0.711,0.858c-0.158,0.199-0.318,0.398-0.479,0.598
		c-0.226,0.179-0.453,0.312-0.683,0.468c-0.066,0.054-0.134,0.107-0.2,0.161c-0.215,0.127-0.434,0.215-0.632,0.384
		c-0.092,0.018-0.185,0.034-0.279,0.051c-0.165,0.007-0.396-0.01-0.522,0.061c-0.08,0.017-0.16,0.032-0.24,0.049
		c-0.235,0.009-0.499,0.072-0.679,0.187c-0.495,0.016-0.993,0.031-1.489,0.049c-0.387-0.012-1.259-0.196-1.576-0.055
		c-0.106,0.019-0.214,0.035-0.32,0.053c-0.423,0.016-0.811-0.036-1.212-0.032c-1.141,0.007-2.267,0.002-3.426,0.046
		c-0.318,0.012-0.961-0.035-1.205,0.086c-0.107,0.017-0.215,0.034-0.321,0.052c-0.447,0.017-0.947-0.005-1.282,0.21
		c-0.209,0.009-0.517-0.025-0.683,0.066c-0.424,0.016-0.851,0.095-1.157,0.326c-0.094,0.017-0.188,0.033-0.281,0.051
		c-0.141,0.005-0.33-0.005-0.441,0.057c-0.135,0.005-0.261,0.03-0.359,0.095c-0.271,0.01-0.638,0.018-0.766-0.238
		c-0.122-0.242,0.116-1.139,0.207-1.383c0.07-0.145,0.141-0.289,0.212-0.435c0.106-0.338,0.23-0.759,0.427-1.056
		c0.344-0.523,0.553-1.096,0.824-1.647c0.222-0.449,0.523-0.876,0.731-1.329c0.058-0.165,0.112-0.331,0.167-0.496
		c0.134-0.231,0.269-0.461,0.401-0.691c0.053-0.127,0.104-0.254,0.157-0.381c0.139-0.252,0.292-0.488,0.439-0.736
		c0.065-0.126,0.128-0.253,0.193-0.379c0.246-0.3,0.491-0.602,0.736-0.902c0.292-0.441,0.457-1,0.803-1.397
		c0.441-0.508,2.025-1.852,0.992-2.468c-0.381-0.227-0.979,0.296-1.187,0.608c-0.162,0.243-0.251,0.522-0.407,0.758
		c-0.202,0.298-0.398,0.626-0.603,0.915c-0.167,0.236-0.354,0.457-0.481,0.714c-0.143,0.28-0.354,0.521-0.527,0.792
		c-0.164,0.256-0.275,0.542-0.459,0.791c-0.162,0.212-0.324,0.423-0.486,0.634c-0.263,0.426-0.448,0.88-0.681,1.315
		c-0.24,0.446-0.544,0.859-0.739,1.327c-0.047,0.169-0.096,0.337-0.145,0.507c-0.184,0.393-0.594,0.697-0.738,1.109
		c-0.053,0.227-0.107,0.454-0.16,0.682c-0.134,0.316-0.267,0.628-0.4,0.943c-0.041,0.269-0.081,0.537-0.121,0.804
		c-0.053,0.192-0.105,0.384-0.159,0.575c-0.091,0.586-0.003,0.794-0.349,1.281c-0.252,0.353-0.674,0.464-0.994,0.705
		c-0.08,0.017-0.16,0.032-0.239,0.049c-0.26,0.009-0.713,0.194-0.916,0.316c-0.343,0.013-0.705,0.137-0.955,0.318
		c-0.623,0.024-1.044,0.427-1.556,0.65c-1.165,0.503-2.352,1.095-3.323,1.935c-0.107,0.071-0.218,0.142-0.325,0.211
		c-0.274,0.235-0.511,0.477-0.711,0.774c-0.095,0.137-0.103,0.287-0.16,0.443c-0.074,0.2-0.172,0.367-0.142,0.613
		c0.023,0.197,0.151,0.32,0.23,0.483c0.314,0.657,1.007,1.012,1.676,1.196c0.555,0.151,1.106,0.065,1.728,0.043
		c0.32-0.014,0.629,0.04,0.927,0.02c0.389-0.042,0.776-0.086,1.166-0.13c0.295-0.016,0.589-0.033,0.884-0.051
		c0.496-0.05,0.981-0.108,1.484-0.185c0.507-0.13,1.015-0.26,1.521-0.391c0.479-0.083,0.956-0.167,1.435-0.253
		c0.345-0.108,0.688-0.219,1.032-0.327c0.165-0.08,0.329-0.163,0.494-0.244c0.192-0.053,0.385-0.106,0.578-0.16
		c0.146-0.059,0.261-0.156,0.414-0.204c0.252-0.047,0.503-0.094,0.753-0.14c0.187-0.071,0.371-0.142,0.558-0.212
		c0.236-0.058,0.474-0.117,0.711-0.175c0.289-0.104,0.623-0.196,0.912-0.32c0.114-0.065,0.226-0.131,0.34-0.198
		c0.194-0.05,0.388-0.102,0.582-0.152c0.123-0.056,0.246-0.111,0.37-0.167c0.143-0.046,0.283-0.094,0.424-0.14
		c0.136-0.074,0.27-0.151,0.404-0.227c0.155-0.047,0.309-0.094,0.461-0.144c0.358-0.161,0.719-0.377,1.085-0.523
		c0.174-0.051,0.345-0.102,0.517-0.152c0.146-0.066,0.293-0.133,0.439-0.2c0.155-0.047,0.309-0.096,0.464-0.145
		c0.097-0.058,0.193-0.117,0.292-0.175c0.129-0.054,0.258-0.105,0.387-0.158c0.118-0.07,0.237-0.14,0.354-0.21
		c0.497-0.26,0.985-0.523,1.461-0.822c0.24-0.163,0.479-0.328,0.719-0.491c0.308-0.183,0.617-0.339,0.936-0.504
		c0.087-0.057,0.171-0.112,0.256-0.169c0.115-0.053,0.23-0.105,0.346-0.159c0.19-0.156,0.378-0.315,0.566-0.473
		c0.274-0.12,0.548-0.24,0.822-0.359c0.186-0.068,0.673-0.177,0.835-0.021c0.063,0.062,0.072,0.179,0.063,0.275
		c-0.032,0.339-0.37,0.59-0.513,0.887c-0.074,0.163-0.15,0.327-0.227,0.489c-0.182,0.464-0.238,1.009-0.643,1.357
		c-0.249,0.214-0.546,0.348-0.834,0.488c-0.098,0.068-0.198,0.138-0.296,0.207c-0.378,0.198-0.805,0.425-1.134,0.706
		c-0.197,0.007-0.378,0.038-0.562,0.008c-0.143-0.024-0.208-0.085-0.25-0.221c-0.322-1.032-1.707,0.471-2.041,0.832
		c-0.138,0.148-0.314,0.294-0.378,0.485c-0.048,0.141-0.017,0.344,0.074,0.457c0.227,0.283,0.605,0.406,0.972,0.41
		c1.155,0.008,1.797-0.532,2.678-1.001c0.33-0.178,0.68-0.309,1.014-0.472c0.394-0.192,0.734-0.473,1.237-0.393
		c0.32,0.051,0.546,0.226,0.834,0.335c0.365,0.082,0.728,0.163,1.092,0.244c0.91,0.161,1.891-0.53,2.598-0.887
		c0.346-0.176,0.703-0.309,1.034-0.507c0.313-0.19,0.694-0.488,0.985-0.713c0.347-0.274,1.167-1.059,1.587-1.067
		c0.602-0.014,0.831,0.782,1.146,1.135c0.456,0.511,0.973,0.985,1.642,1.115c0.282,0.054,0.726,0.177,1.011,0.149
		c0.668-0.069,1.229-0.504,1.918-0.531c0.336-0.012,0.515,0.125,0.787,0.221c0.315,0.11,0.716,0.101,1.03-0.029
		c0.264-0.109,0.724-0.506,0.923-0.727c0.225-0.252,0.456-0.55,0.81-0.59c0.566-0.07,0.674,0.291,1.069,0.537
		c0.15,0.051,0.297,0.101,0.446,0.15c0.113,0.039,0.225,0.076,0.338,0.114c0.358,0.08,0.794,0.049,1.151-0.031
		c0.231-0.063,0.459-0.128,0.687-0.192c0.219-0.05,0.438-0.072,0.634-0.166c0.463-0.229,0.856-0.564,1.31-0.794
		c0.4-0.205,0.771-0.436,1.157-0.673c0.118-0.065,0.235-0.131,0.354-0.195c0.333-0.261,0.628-0.556,0.977-0.79
		c0.322-0.218,0.656-0.429,0.984-0.641c0.148-0.087,0.297-0.175,0.445-0.261c0.322-0.272,0.607-0.61,0.942-0.874
		c0.424-0.334,0.811-0.677,1.251-0.979c0.235-0.164,0.896-0.866,1.204-0.677c0.132,0.081,0.14,0.251,0.101,0.391
		c-0.092,0.305-0.386,0.487-0.554,0.756c-0.134,0.208-0.256,0.433-0.399,0.644c-0.067,0.091-0.135,0.18-0.201,0.271
		c-0.137,0.252-0.275,0.503-0.413,0.755c-0.049,0.067-0.101,0.132-0.149,0.198c-0.123,0.25-0.249,0.524-0.422,0.748
		c-0.168,0.21-0.389,0.317-0.598,0.451c-0.487,0.018-1.298-0.204-1.462,0.383c-0.049,0.173-0.039,0.381,0.018,0.555
		c0.055,0.167,0.166,0.271,0.256,0.415c0.168,0.272,0.151,0.605,0.048,0.901c-0.088,0.255-0.297,0.466-0.455,0.691
		c-0.334,0.468-0.745,0.933-1.05,1.411c-0.139,0.214-0.284,0.398-0.406,0.616c-0.056,0.124-0.109,0.248-0.164,0.371
		c-0.339,0.497-0.68,0.993-1.02,1.488c-0.258,0.432-0.439,0.893-0.71,1.333c-0.156,0.177-0.314,0.352-0.474,0.527
		c-0.234,0.276-0.402,0.61-0.603,0.913c-0.053,0.111-0.107,0.22-0.163,0.329c-0.217,0.363-0.46,0.703-0.678,1.068
		c-0.063,0.126-0.127,0.252-0.189,0.378c-0.448,0.625-0.881,1.265-1.279,1.918c-0.065,0.163-0.13,0.324-0.193,0.487
		c-0.129,0.228-0.257,0.453-0.384,0.682c-0.066,0.138-0.133,0.276-0.198,0.414c-0.135,0.192-0.27,0.385-0.405,0.578
		c-0.047,0.129-0.095,0.258-0.143,0.387c-0.085,0.2-0.189,0.403-0.285,0.6c-0.246,0.398-0.493,0.796-0.738,1.194
		c-0.055,0.153-0.109,0.305-0.162,0.456c-0.148,0.321-0.291,0.632-0.43,0.955c-0.101,0.235-0.094,0.509-0.141,0.771
		c-0.046,0.154-0.093,0.308-0.14,0.461c-0.025,0.149-0.051,0.297-0.074,0.444c-0.058,0.191-0.115,0.383-0.171,0.574
		c-0.043,0.24-0.087,0.479-0.13,0.719c-0.044,0.182-0.129,0.343-0.15,0.536c-0.031,0.273,0.053,0.509,0.083,0.761
		c0.017,0.214,0.034,0.427,0.051,0.641c0.138,0.671,0.565,1.51,1.301,1.66c0.317,0.063,0.768-0.005,1.017-0.161
		c0.076-0.056,0.149-0.11,0.222-0.164c0.541-0.281,1.105-0.652,1.548-1.101c0.461-0.518,0.922-1.037,1.382-1.554
		c0.481-0.458,0.826-0.947,1.166-1.492c0.159-0.226,0.317-0.452,0.477-0.678c0.161-0.278,0.26-0.615,0.435-0.887
		c0.525-0.822,1.05-1.622,1.528-2.459c0.071-0.171,0.142-0.343,0.213-0.514c0.148-0.257,0.295-0.516,0.442-0.772
		c0.042-0.14,0.085-0.277,0.127-0.417c0.155-0.354,0.381-0.671,0.581-1.002c0.065-0.111,0.15-0.188,0.194-0.309
		c0.121-0.4,0.241-0.802,0.36-1.203c0.134-0.352,0.34-0.682,0.456-1.036c0.046-0.238,0.093-0.476,0.139-0.713
		c0.047-0.115,0.095-0.231,0.142-0.348c0.038-0.16,0.076-0.324,0.113-0.487c0.057-0.138,0.112-0.276,0.167-0.415
		c0.037-0.2,0.074-0.402,0.111-0.604c0.045-0.163,0.09-0.326,0.135-0.489c0.029-0.319,0.058-0.64,0.087-0.96
		c0.04-0.182,0.139-0.328,0.18-0.503c0.039-0.349,0.077-0.698,0.116-1.045c0.038-0.177,0.075-0.355,0.114-0.532
		c0.04-0.543,0.015-1.086,0.057-1.616c0.033-0.456-0.241-1.144-0.111-1.521c0.033-0.095,0.098-0.186,0.193-0.233
		c0.026-0.013,0.053-0.025,0.08-0.039c0.598-0.263,1.378-0.024,2.034-0.157c0.413-0.084,0.911-0.138,1.322-0.25
		c0.213-0.079,0.427-0.157,0.642-0.237c0.348-0.066,0.718-0.063,1.045-0.161c0.226-0.077,0.449-0.153,0.676-0.229
		c0.208-0.049,0.417-0.099,0.625-0.148c0.31-0.111,0.588-0.266,0.967-0.26c0.054,0.01,0.105,0.019,0.157,0.029
		c0.282,0.087,0.303,0.371,0.424,0.591c0.111,0.143,0.221,0.286,0.331,0.43c0.207,0.238,0.799,0.563,1.096,0.641
		c0.254,0.044,0.508,0.085,0.761,0.128c0.154,0.05,0.306,0.098,0.459,0.146c0.251,0.045,0.618,0.016,0.881-0.02
		c0.249-0.033,0.403-0.16,0.638-0.211c0.253-0.056,0.504-0.11,0.757-0.168c0.15-0.059,0.298-0.119,0.448-0.18
		c0.182-0.049,0.363-0.097,0.543-0.145c0.281-0.111,0.597-0.357,0.799-0.604c0.162-0.2,0.28-0.492,0.309-0.753
		c0.033-0.309-0.282-1.31,0.17-1.334c0.166-0.01,0.313,0.114,0.462,0.157c0.549,0.16,1.495,0.66,1.629,1.302
		c0.122,0.584-0.497,1.065-0.009,1.535c0.081,0.077,0.17,0.155,0.271,0.187c0.235,0.071,0.653,0.059,0.862-0.053
		c0.212-0.116,0.355-0.339,0.531-0.507c0.418-0.4,0.895-0.77,1.343-1.13c0.226-0.183,0.465-0.406,0.721-0.529
		c0.635-0.311,1.276,0.026,1.814,0.293c0.132,0.065,0.233,0.153,0.384,0.191c0.185,0.034,0.37,0.064,0.556,0.098
		c0.194,0.054,0.366,0.134,0.576,0.16c0.431,0.046,0.86,0.091,1.291,0.138c0.232,0.036,0.462,0.071,0.694,0.106
		c0.623,0.036,1.219,0.013,1.854,0.028c0.621,0.042,1.241,0.082,1.862,0.121c0.616-0.021,1.233-0.041,1.852-0.063
		c1.23-0.026,2.482,0.003,3.748-0.064c0.269-0.022,0.537-0.046,0.803-0.068c0.513-0.02,1.023-0.039,1.531-0.058
		c0.731-0.017,2.518,0.069,2.891-0.535C156.16,21.362,155.218,21.328,154.931,21.457 M97.659,15.54
		c0.042-0.112,0.083-0.223,0.124-0.334c0.147-0.233,0.345-0.424,0.477-0.663c0.118-0.221,0.25-0.438,0.349-0.671
		c0.118-0.277,0.331-0.517,0.488-0.772c0.06-0.117,0.118-0.234,0.177-0.351c0.145-0.2,0.289-0.399,0.432-0.6
		c0.245-0.401,0.486-0.802,0.729-1.203c0.154-0.191,0.31-0.382,0.464-0.573c0.171-0.223,0.281-0.493,0.452-0.714
		c0.238-0.314,0.503-0.591,0.734-0.904c0.429-0.58,0.829-1.233,1.326-1.768c0.162-0.148,0.322-0.298,0.483-0.446
		c0.173-0.182,0.318-0.409,0.533-0.552c0.115-0.062,0.232-0.122,0.349-0.183c0.094-0.005,0.188-0.009,0.282-0.012
		c0.008,0.204,0.092,0.349,0.004,0.556c-0.229,0.341-0.458,0.679-0.687,1.02c-0.161,0.267-0.306,0.56-0.465,0.829
		c-0.14,0.232-0.302,0.442-0.423,0.683c-0.059,0.13-0.119,0.261-0.178,0.39c-0.129,0.185-0.317,0.328-0.453,0.502
		c-0.194,0.273-0.389,0.546-0.582,0.818c-0.383,0.597-0.793,1.176-1.18,1.781c-0.252,0.393-0.466,0.816-0.725,1.206
		c-0.175,0.261-0.415,0.5-0.633,0.729c-0.084,0.143-0.17,0.285-0.254,0.429c-0.209,0.289-1.626,2.154-1.964,1.903
		C97.192,16.397,97.572,15.775,97.659,15.54 M89.492,18.683c0.095,0.01,0.189,0.019,0.284,0.028
		c0.005,0.134,0.049,0.257,0.019,0.392c-0.15,0.654-0.964,1.192-1.308,1.755c-0.112,0.004-0.204-0.067-0.287-0.11
		C88.177,20.105,89.233,19.28,89.492,18.683 M80.567,21.97c-0.189,0.067-0.38,0.137-0.568,0.203c-0.3,0.127-0.581,0.295-0.859,0.457
		c-0.086,0.041-0.173,0.081-0.26,0.122c-0.307,0.013-0.47,0.163-0.72,0.259c-0.168,0.059-0.336,0.116-0.504,0.175
		c-0.321,0.145-0.626,0.343-0.935,0.505c-0.286,0.146-0.6,0.191-0.856,0.385c-0.093,0.018-0.187,0.034-0.281,0.051
		c-0.321,0.013-0.495,0.175-0.756,0.275c-0.344,0.132-0.688,0.265-1.033,0.397c-0.375,0.015-0.513,0.182-0.802,0.293
		c-0.196,0.06-0.392,0.118-0.588,0.178c-0.135,0.059-0.272,0.119-0.408,0.178c-0.383,0.116-0.809,0.188-1.146,0.39
		c-0.094,0.018-0.187,0.034-0.281,0.052c-0.374,0.014-0.831,0.101-1.118,0.283c-0.093,0.019-0.186,0.034-0.28,0.052
		c-0.243,0.01-0.561-0.021-0.764,0.069c-0.277,0.01-0.519,0.115-0.716,0.27c-0.08,0.016-0.16,0.031-0.24,0.049
		c-0.093,0.017-0.186,0.033-0.28,0.051c-0.273,0.01-0.455,0.131-0.684,0.207c-0.078,0.023-0.156,0.046-0.233,0.069
		c-0.188,0.007-0.455-0.021-0.603,0.063c-0.195,0.007-0.488-0.021-0.644,0.065c-0.854,0.033-1.72,0.024-2.537,0.057
		c-0.535,0.02-1.166,0.107-1.65,0.002c-0.155-0.035-0.559-0.243-0.637-0.375c-0.718-1.204,1.445-2.386,2.191-2.836
		c0.077-0.063,0.153-0.128,0.229-0.19c0.123-0.061,0.246-0.12,0.369-0.181c0.269-0.16,0.52-0.341,0.808-0.475
		c0.17-0.056,0.339-0.109,0.509-0.163c0.379-0.189,0.777-0.391,1.192-0.518c0.289-0.065,0.576-0.134,0.863-0.2
		c0.099-0.055,0.195-0.109,0.296-0.163c0.191-0.063,0.385-0.126,0.578-0.189c0.111-0.054,0.222-0.11,0.333-0.166
		c0.231-0.075,0.523-0.065,0.743-0.157c0.139-0.067,0.277-0.136,0.416-0.204c0.211-0.058,0.42-0.114,0.63-0.171
		c0.156-0.06,0.311-0.164,0.479-0.203c0.291-0.051,0.582-0.102,0.873-0.152c0.255-0.067,0.51-0.133,0.764-0.199
		c0.508-0.061,1.034-0.061,1.524-0.161c0.198-0.039,0.33-0.188,0.521-0.232c0.796-0.191,1.783-0.078,2.612-0.188
		c0.134-0.019,0.266-0.041,0.401-0.063c0.402,0.011,0.807,0.022,1.211,0.034c0.793-0.03,1.584-0.06,2.376-0.092
		c0.281-0.031,0.56-0.064,0.841-0.097c0.244,0.013,0.487,0.025,0.728,0.037c0.323-0.004,0.662,0.005,0.97-0.002
		c0.331-0.007,0.603-0.065,0.889,0.056C83.543,20.265,80.97,21.759,80.567,21.97 M102.239,22.481
		c-0.13,0.069-0.352,0.142-0.474,0.022c-0.088-0.083-0.094-0.207-0.045-0.311c0.214-0.474,0.772-0.77,1.127-1.113
		c0.334-0.326,0.586-0.625,0.98-0.841c0.129,0.029,0.261,0.051,0.24,0.225C104.025,20.812,102.578,22.288,102.239,22.481
		 M113.67,27.56c-0.051,0.197-0.133,0.37-0.165,0.587c-0.048,0.319-0.026,0.653-0.082,0.962c-0.088,0.479-0.254,0.961-0.347,1.435
		c-0.034,0.351-0.071,0.698-0.106,1.046c-0.057,0.46-0.348,0.856-0.491,1.28c-0.034,0.131-0.069,0.261-0.104,0.391
		c-0.059,0.125-0.118,0.25-0.178,0.375c-0.046,0.156-0.093,0.314-0.138,0.471c-0.045,0.079-0.089,0.158-0.133,0.237
		c-0.054,0.167-0.106,0.335-0.158,0.501c-0.271,0.592-0.581,1.179-0.851,1.773c-0.062,0.079-0.125,0.158-0.187,0.237
		c-0.075,0.124-0.152,0.247-0.226,0.371c-0.042,0.126-0.082,0.253-0.122,0.378c-0.063,0.129-0.127,0.257-0.189,0.384
		c-0.046,0.213-0.093,0.423-0.139,0.635c-0.083,0.165-0.168,0.33-0.252,0.494c-0.254,0.383-0.507,0.764-0.76,1.147
		c-0.26,0.433-0.481,0.901-0.768,1.32c-0.14,0.168-0.278,0.333-0.417,0.498c-0.146,0.216-0.285,0.466-0.462,0.665
		c-0.208,0.207-0.416,0.415-0.624,0.621c-0.234,0.2-0.511,0.348-0.735,0.569c-0.37,0.36-0.694,0.729-1.093,1.04
		c-0.271,0.139-0.542,0.275-0.814,0.415c-0.382,0.014-0.724-0.146-0.872-0.489c-0.232-0.529-0.037-1.235,0.046-1.742
		c0.123-0.768,0.164-1.523,0.365-2.257c0.071-0.145,0.141-0.29,0.209-0.435c0.054-0.154,0.104-0.309,0.157-0.464
		c0.116-0.244,0.155-0.483,0.255-0.738c0.187-0.477,0.456-0.912,0.68-1.373c0.062-0.156,0.123-0.313,0.184-0.468
		c0.166-0.242,0.331-0.484,0.496-0.727c0.132-0.283,0.262-0.566,0.392-0.85c0.143-0.261,0.304-0.488,0.434-0.756
		c0.041-0.094,0.081-0.188,0.12-0.281c0.156-0.227,0.313-0.454,0.472-0.682c0.364-0.589,0.726-1.184,1.104-1.774
		c0.064-0.142,0.127-0.282,0.191-0.422c0.115-0.191,0.232-0.381,0.346-0.571c0.281-0.412,0.561-0.826,0.842-1.24
		c0.073-0.082,0.147-0.166,0.221-0.249c0.077-0.122,0.151-0.244,0.229-0.366c0.061-0.129,0.119-0.26,0.179-0.39
		c0.146-0.173,0.292-0.349,0.438-0.521c0.252-0.352,0.438-0.744,0.684-1.086c0.342-0.481,0.683-0.965,1.025-1.446
		c0.063-0.127,0.125-0.256,0.187-0.383c0.081-0.12,0.16-0.24,0.24-0.361c0.122-0.144,0.243-0.29,0.363-0.434
		c0.162-0.001,0.313-0.001,0.446,0.064c0.063-0.003,0.043,0.022,0.049,0.077c0.051,0.519,0.075,1.1,0.096,1.652
		C113.72,26.962,113.734,27.297,113.67,27.56 M128.703,21.902c-0.165,0.267-0.477,0.369-0.717,0.531
		c-0.092,0.017-0.185,0.033-0.279,0.05c-0.106,0.019-0.215,0.035-0.321,0.054c-0.236,0.008-0.507,0.098-0.677,0.227
		c-0.08,0.018-0.16,0.032-0.241,0.05c-0.367,0.014-0.821,0.076-1.161,0.016c-0.169-0.03-0.315-0.118-0.469-0.171
		c-0.152-0.054-0.307-0.109-0.46-0.164c-0.399-0.224-0.753-0.762-0.494-1.23c0.16-0.292,0.658-0.487,0.933-0.644
		c0.246-0.143,0.476-0.303,0.719-0.454c0.149-0.074,0.297-0.15,0.447-0.226c0.347-0.219,0.709-0.551,0.949-0.897
		c0.229-0.008,0.449-0.005,0.645,0.063c0.342,0.116,0.965,0.579,1.109,0.928c0.104,0.25,0.114,0.624,0.13,0.916
		C128.833,21.283,128.859,21.646,128.703,21.902"/>
	<path d="M58.781,12.742c-0.581,0.022-1.299,1.004-1.695,1.42c-0.194,0.201-0.439,0.348-0.638,0.537
		c-0.231,0.218-0.4,0.498-0.615,0.709c-0.214,0.203-0.43,0.406-0.644,0.61c-0.095,0.131-0.192,0.26-0.289,0.39
		c-0.305,0.286-0.645,0.537-0.932,0.848c-0.544,0.586-1.039,1.189-1.619,1.724c-0.344,0.315-0.743,0.568-1.12,0.83
		c-0.189,0.158-0.381,0.313-0.571,0.471c-0.169,0.116-0.384,0.141-0.573,0.223c-0.105,0.057-0.212,0.113-0.316,0.171
		c-0.134,0.055-0.27,0.107-0.405,0.159c-0.08,0.054-0.161,0.104-0.243,0.154c-0.358,0.154-0.781,0.206-1.103,0.428
		c-0.129,0.005-0.298-0.002-0.401,0.057c-0.281,0.01-0.554,0.116-0.756,0.27c-0.092,0.018-0.186,0.033-0.279,0.051
		c-0.161,0.014-0.323,0.027-0.484,0.041c-0.254,0.014-0.574-0.056-0.803,0.047c-0.587,0.023-0.929,0.528-1.342,0.856
		c-0.125,0.081-0.252,0.16-0.377,0.238c-0.353,0.269-0.731,0.572-1.045,0.893c-0.144,0.144-0.259,0.307-0.392,0.451
		c-0.398,0.429-0.891,0.798-1.325,1.185c-0.173,0.152-0.323,0.321-0.507,0.452c-0.289,0.2-0.617,0.349-0.918,0.525
		c-0.215,0.125-0.431,0.241-0.639,0.372c-0.083,0.059-0.168,0.116-0.253,0.175c-0.266,0.122-0.533,0.225-0.778,0.382
		c-0.145,0.006-0.323-0.003-0.442,0.058c-0.315,0.012-0.712,0.038-0.959-0.106c-0.117-0.07-0.183-0.215-0.223-0.336
		c-0.091-0.269-0.035-0.602,0.069-0.836c0.173-0.395,0.471-0.712,0.744-1.046c0.633-0.779,1.358-1.685,2.23-2.114
		c0.224-0.112,0.555-0.226,0.623,0.111c0.023,0.111,0.049,0.223,0.073,0.333c0.128,0.246,0.533,0.45,0.785,0.279
		c0.258-0.177,0.84-0.821,0.927-1.094c0.182-0.574-0.122-1.138-0.706-1.22c-0.132-0.021-0.327-0.035-0.443,0.021
		c-0.349,0.014-0.551,0.136-0.834,0.245c-0.143,0.047-0.29,0.094-0.435,0.142c-0.406,0.177-0.811,0.441-1.174,0.697
		c-0.301,0.211-0.536,0.5-0.816,0.744c-0.402,0.347-0.841,0.704-1.284,0.984c-0.31,0.194-0.656,0.352-0.958,0.564
		c-0.216,0.152-0.434,0.318-0.662,0.453c-0.124,0.06-0.249,0.119-0.374,0.179c-0.249,0.146-0.484,0.318-0.731,0.469
		c-0.247,0.147-0.501,0.248-0.732,0.422c-0.08,0.017-0.16,0.033-0.24,0.05c-0.307,0.011-0.473-0.198-0.336-0.488
		c0.089-0.092,0.176-0.184,0.265-0.277c0.334-0.42,0.86-0.778,1.009-1.298c0.087-0.314-0.037-0.533-0.147-0.794
		c-0.089-0.206-0.144-0.459-0.362-0.573c-0.125-0.064-0.332-0.108-0.478-0.036c-0.353,0.014-0.529,0.166-0.803,0.296
		c-0.72,0.336-1.415,0.801-1.974,1.404c-0.281,0.374-0.566,0.746-0.848,1.119c-0.21,0.22-0.421,0.439-0.63,0.658
		c-0.165,0.211-0.331,0.423-0.496,0.635c-0.209,0.28-0.489,0.54-0.709,0.814c-0.2,0.246-0.238,0.599-0.479,0.836
		c-0.198,0.193-0.497,0.272-0.725,0.418c-0.325,0.013-0.832,0.176-1.077,0.323c-0.093,0.017-0.186,0.034-0.279,0.051
		c-0.094,0.018-0.188,0.033-0.28,0.051c-0.081,0.017-0.161,0.032-0.241,0.05c-0.159,0.006-0.354,0.023-0.479,0.099
		c-0.194,0.007-0.45,0.053-0.6,0.143c-0.093,0.019-0.187,0.033-0.281,0.052c-0.319,0.012-0.51,0.137-0.768,0.242
		c-0.152,0.051-0.305,0.101-0.459,0.15c-0.12,0.064-0.243,0.128-0.364,0.192c-0.12,0.031-0.238,0.063-0.358,0.094
		c-0.188,0.007-0.495,0.028-0.569-0.156c-0.214-0.526,0.359-1.104,0.574-1.505c0.172-0.323,0.359-0.623,0.546-0.938
		c0.063-0.138,0.124-0.274,0.186-0.411c0.233-0.324,0.467-0.649,0.699-0.975c0.065-0.125,0.13-0.251,0.194-0.376
		c0.418-0.568,0.853-1.114,1.151-1.738c0.252-0.524,0.737-0.875,1.065-1.365c0.23-0.386,0.459-0.774,0.688-1.161
		c0.225-0.35,0.472-0.675,0.683-1.025c0.066-0.15,0.132-0.304,0.198-0.455c0.139-0.229,0.304-0.435,0.443-0.659
		c0.057-0.096,0.11-0.191,0.165-0.287c0.144-0.191,0.336-0.328,0.464-0.531c0.246-0.399,0.413-0.825,0.673-1.213
		c0.326-0.493,0.725-0.941,1.026-1.444c0.405-0.682,0.775-1.388,1.241-2.044c0.092-0.156,0.183-0.312,0.276-0.468
		c0.057-0.157,0.066-0.32,0.158-0.457c0.14-0.166,0.278-0.332,0.416-0.497c0.241-0.348,0.483-0.696,0.725-1.044
		c0.143-0.164,0.284-0.328,0.427-0.492c0.058-0.13,0.114-0.26,0.172-0.391c0.242-0.384,0.484-0.77,0.727-1.154
		c0.058-0.131,0.114-0.263,0.173-0.393c0.235-0.331,0.472-0.662,0.707-0.994c0.053-0.124,0.105-0.249,0.159-0.375
		c0.36-0.565,0.696-1.135,1.017-1.723c0.218-0.401,0.435-0.841,0.597-1.269c0.042-0.153,0.084-0.305,0.126-0.458
		c0.057-0.093,0.11-0.187,0.164-0.281c0.041-0.14,0.081-0.282,0.121-0.423c0.048-0.09,0.095-0.181,0.143-0.271
		c0.096-0.299,0.191-0.597,0.286-0.894c0.042-0.281,0.082-0.562,0.121-0.842c0.056-0.138,0.109-0.278,0.163-0.416
		c0.085-0.368,0.074-1.003-0.057-1.357c-0.186-0.506-0.785-0.687-1.295-0.684c-0.065,0.03-0.132,0.059-0.198,0.088
		c-0.403,0.016-0.751,0.141-1.035,0.362c-0.283,0.011-0.407,0.138-0.611,0.277c-0.356,0.239-0.741,0.498-1.053,0.823
		c-0.251,0.262-0.496,0.557-0.787,0.775c-0.126,0.066-0.253,0.134-0.379,0.201c-0.384,0.257-0.727,0.507-1.073,0.827
		c-0.813,0.746-1.719,1.396-2.538,2.124c-0.191,0.224-0.384,0.445-0.574,0.667c-0.328,0.292-0.658,0.586-0.986,0.878
		c-0.154,0.179-0.31,0.357-0.465,0.535c-0.362,0.275-0.725,0.551-1.088,0.824c-0.234,0.258-0.471,0.518-0.705,0.775
		c-0.245,0.226-0.491,0.451-0.736,0.677c-0.308,0.248-0.635,0.503-0.921,0.783c-0.188,0.183-0.288,0.4-0.464,0.58
		c-0.298,0.299-0.641,0.501-0.972,0.734c-0.535,0.377-1.012,0.849-1.39,1.394c-0.104,0.148-0.247,0.228-0.323,0.394
		c-0.297,0.013-0.688,0.48-0.903,0.679c-0.387,0.343-0.773,0.685-1.16,1.026c-0.537,0.511-1.017,1.059-1.55,1.55
		c-0.435,0.396-0.79,0.87-1.233,1.267c-0.284,0.254-0.596,0.457-0.909,0.665c-0.129,0.078-0.259,0.153-0.39,0.23
		c-0.463,0.465-0.927,0.93-1.389,1.393c-0.439,0.396-0.952,0.758-1.384,1.169c-0.368,0.355-0.738,0.712-1.108,1.068
		c-0.221,0.173-0.442,0.344-0.662,0.515c-0.252,0.269-0.506,0.54-0.757,0.81c-0.231,0.202-0.461,0.401-0.692,0.604
		c-0.176,0.226-0.351,0.452-0.526,0.678c-0.243,0.287-0.516,0.53-0.782,0.79c-0.421,0.412-0.695,0.911-1.033,1.373
		c-0.256,0.348-0.624,0.714-0.744,1.124c-0.102,0.351-0.053,0.706,0.205,0.961c0.174,0.171,0.328,0.26,0.587,0.275
		c0.428,0.023,0.588-0.133,0.888-0.319c0.122-0.079,0.238-0.121,0.339-0.238c0.163-0.195,0.137-0.483,0.177-0.731
		c0.053-0.166,0.103-0.333,0.157-0.5c0.057-0.209,0.068-0.41,0.177-0.595c0.461-0.797,1.223-1.539,1.852-2.239
		c0.504-0.562,0.942-1.141,1.469-1.67c0.31-0.314,0.645-0.646,0.945-0.989c0.081-0.108,0.162-0.213,0.242-0.32
		c0.332-0.288,0.663-0.578,0.995-0.867c0.231-0.275,0.461-0.552,0.693-0.828c0.45-0.39,0.93-0.711,1.372-1.105
		c0.168-0.166,0.334-0.332,0.502-0.499c0.229-0.176,0.459-0.353,0.688-0.531c0.592-0.543,1.125-1.167,1.709-1.719
		c0.205-0.197,0.48-0.361,0.69-0.566c0.15-0.17,0.301-0.341,0.452-0.512c0.358-0.364,0.756-0.714,1.097-1.081
		c0.238-0.257,0.418-0.533,0.675-0.773c0.341-0.306,0.682-0.612,1.021-0.918c0.215-0.195,0.498-0.34,0.713-0.549
		c0.363-0.358,0.729-0.719,1.093-1.079c0.118-0.099,0.234-0.198,0.351-0.298c0.191-0.226,0.381-0.45,0.571-0.676
		c0.343-0.291,0.685-0.583,1.028-0.874c1.044-1.025,2.184-1.943,3.274-2.911c0.313-0.278,0.627-0.559,0.94-0.839
		c0.2-0.185,0.367-0.402,0.575-0.587c0.198-0.168,0.396-0.335,0.594-0.502c0.383-0.367,0.714-0.799,1.124-1.127
		c0.232-0.187,0.471-0.321,0.713-0.481c0.22-0.167,0.438-0.334,0.658-0.501c0.289-0.203,0.643-0.358,0.904-0.605
		c0.304-0.291,1.924-1.202,2.153-0.45c0.053,0.169,0.046,0.399,0.054,0.594c0.01,0.263,0.051,0.557,0.003,0.799
		c-0.035,0.174-0.127,0.307-0.182,0.465c-0.04,0.16-0.08,0.321-0.12,0.482c-0.134,0.322-0.311,0.624-0.441,0.946
		c-0.045,0.131-0.09,0.262-0.136,0.393c-0.135,0.285-0.326,0.562-0.442,0.851c-0.146,0.358-0.262,0.775-0.452,1.116
		c-0.202,0.364-0.441,0.677-0.683,1.025c-0.202,0.29-0.31,0.652-0.494,0.953c-0.137,0.218-0.313,0.396-0.45,0.618
		c-0.319,0.563-0.639,1.126-0.959,1.688c-0.199,0.31-0.524,0.555-0.718,0.873c-0.057,0.139-0.113,0.275-0.168,0.412
		c-0.072,0.108-0.145,0.215-0.217,0.322c-0.134,0.238-0.262,0.493-0.4,0.725c-0.513,0.856-1.097,1.646-1.608,2.503
		c-0.274,0.46-0.462,0.956-0.76,1.406c-0.184,0.282-0.37,0.562-0.554,0.843c-0.24,0.315-0.516,0.589-0.73,0.915
		c-0.176,0.267-0.289,0.581-0.473,0.85c-0.314,0.449-0.696,0.858-0.991,1.32c-0.056,0.118-0.113,0.237-0.169,0.354
		c-0.186,0.341-0.377,0.666-0.562,1.009c-0.175,0.234-0.351,0.468-0.525,0.701c-0.23,0.386-0.463,0.77-0.696,1.155
		c-0.212,0.309-0.529,0.512-0.727,0.828c-0.14,0.265-0.28,0.528-0.42,0.792c-0.201,0.317-0.403,0.634-0.606,0.951
		c-0.155,0.201-0.313,0.403-0.471,0.604c-0.26,0.407-0.5,0.81-0.752,1.216c-0.231,0.354-0.462,0.705-0.693,1.057
		c-0.163,0.302-0.278,0.631-0.443,0.923c-0.062,0.093-0.122,0.185-0.184,0.278c-0.125,0.248-0.228,0.529-0.418,0.748
		c-0.338,0.388-0.755,0.698-1.169,0.967c-0.115,0.064-0.23,0.126-0.347,0.188c-0.688,0.481-1.358,0.967-2.056,1.432
		c-0.146,0.064-0.295,0.129-0.441,0.194c-0.157,0.1-0.313,0.199-0.47,0.3c-0.332,0.271-0.666,0.54-1,0.81
		c-0.124,0.08-0.25,0.161-0.375,0.241c-0.186,0.158-0.344,0.356-0.54,0.497c-0.623,0.45-1.283,0.91-1.864,1.428
		c-0.38,0.385-0.761,0.769-1.142,1.151c-0.303,0.267-0.604,0.531-0.907,0.797c-0.443,0.448-0.789,0.965-1.189,1.425
		c-0.333,0.375-0.668,0.749-1.003,1.125c-0.158,0.192-0.294,0.433-0.458,0.63C4.384,42.926,4.2,43.13,4.019,43.335
		c-0.159,0.229-0.216,0.492-0.376,0.709c-0.139,0.178-0.28,0.354-0.421,0.532c-0.238,0.392-0.479,0.781-0.716,1.171
		c-0.133,0.209-0.292,0.372-0.402,0.592c-0.058,0.156-0.118,0.313-0.177,0.472c-0.147,0.271-0.294,0.542-0.44,0.813
		c-0.054,0.191-0.109,0.384-0.165,0.576c-0.109,0.235-0.277,0.442-0.389,0.675c-0.076,0.157-0.099,0.357-0.138,0.533
		c-0.065,0.207-0.13,0.413-0.194,0.617c-0.04,0.254-0.018,0.482-0.098,0.716c-0.059,0.118-0.117,0.235-0.177,0.35
		c-0.035,0.212-0.071,0.421-0.107,0.63c-0.05,0.114-0.101,0.228-0.152,0.341c-0.141,0.458-0.072,0.931,0.339,1.202
		c0.309,0.204,1.01,0.182,1.332-0.007c0.304-0.179,0.59-0.521,0.813-0.791c0.42-0.517,0.886-0.981,1.312-1.5
		c0.067-0.118,0.136-0.236,0.202-0.356c0.088-0.114,0.174-0.231,0.26-0.348c0.09-0.084,0.179-0.168,0.268-0.252
		c0.286-0.331,0.599-0.653,0.822-1.023c0.06-0.102,0.118-0.205,0.179-0.308c0.233-0.234,0.468-0.471,0.703-0.704
		c0.163-0.203,0.314-0.435,0.496-0.63c0.141-0.152,0.279-0.308,0.419-0.46c0.151-0.209,0.29-0.47,0.468-0.66
		c0.316-0.355,0.632-0.709,0.949-1.064c0.071-0.129,0.144-0.259,0.216-0.388c0.299-0.425,0.591-0.839,0.915-1.247
		c0.415-0.528,0.877-0.963,1.271-1.495c0.265-0.358,0.498-0.768,0.77-1.121c0.442-0.583,0.885-1.167,1.328-1.75
		c0.247-0.376,0.414-0.79,0.699-1.149c0.165-0.169,0.329-0.338,0.493-0.508c0.503-0.637,0.867-1.359,1.309-2.022
		c0.164-0.18,0.328-0.361,0.492-0.543c0.386-0.489,0.728-0.985,1.16-1.452c0.3-0.323,0.508-0.678,0.889-0.913
		c0.405-0.251,0.839-0.516,1.281-0.693c0.172-0.054,0.341-0.107,0.511-0.16c0.109-0.061,0.22-0.121,0.33-0.182
		c0.182-0.056,0.362-0.114,0.545-0.171c0.379-0.164,0.799-0.337,1.208-0.445c0.33-0.066,0.661-0.133,0.99-0.199
		c0.242-0.091,0.483-0.181,0.725-0.269c0.292-0.05,0.583-0.1,0.874-0.149c0.162-0.062,0.322-0.122,0.483-0.185
		c0.363-0.069,0.872-0.088,1.243-0.046c0.391,0.041,0.773,0.207,1.166,0.04c0.914-0.392,1.541-1.307,2.45-1.713
		c0.339-0.153,0.707,0.006,1.043,0.005c0.292-0.003,0.705-0.143,0.945-0.278c0.222-0.126,0.404-0.31,0.621-0.453
		c0.283-0.188,0.588-0.342,0.873-0.528c0.238-0.158,0.614-0.516,0.92-0.511c0.487,0.006,0.449,0.809,0.639,1.101
		c0.257,0.396,0.787,0.778,1.225,0.91c0.375,0.111,0.999,0.077,1.349-0.081c0.133-0.07,0.266-0.14,0.398-0.209
		c0.391-0.157,0.767-0.281,1.144-0.462c0.324-0.157,0.458-0.313,0.889-0.344c0.414-0.03,0.683,0.331,1.004,0.516
		c0.387,0.22,0.987,0.185,1.434,0.079c0.997-0.239,1.79-1.041,2.493-1.799c0.16-0.175,0.35-0.301,0.517-0.49
		c0.167-0.193,0.22-0.379,0.323-0.601c0.069-0.126,0.138-0.253,0.206-0.381c0.081-0.205,0.159-0.412,0.239-0.619
		c0.059-0.25-0.03-0.633,0.125-0.838c0.2-0.267,0.459-0.363,0.729-0.501c0.099-0.055,0.197-0.111,0.295-0.168
		c0.181-0.05,0.361-0.099,0.542-0.148c0.127-0.065,0.253-0.131,0.379-0.196c0.166-0.053,0.33-0.105,0.495-0.158
		c0.305-0.124,0.526-0.345,0.923-0.308c0.801,0.076-0.211,1.494-0.295,1.764c-0.107,0.334-0.321,0.605-0.479,0.911
		c-0.104,0.2-0.106,0.423-0.18,0.633c-0.058,0.129-0.116,0.259-0.174,0.39c-0.064,0.257-0.04,0.546-0.029,0.843
		c0.013,0.311-0.005,0.649,0.101,0.912c0.338,0.842,1.383,1.192,2.31,1.037c0.72-0.123,0.996-0.563,1.51-1.034
		c0.435-0.4,0.923-0.835,1.24-1.331c0.205-0.321,0.33-0.681,0.461-1.034c0.075-0.209,0.2-0.364,0.247-0.595
		c0.054-0.278,0.032-0.577,0.036-0.88c0.001-0.29,0.092-0.583,0.017-0.886c-0.146-0.59-0.509-1.156-0.891-1.619
		c-0.15-0.18-0.392-0.32-0.492-0.533c-0.082-0.17-0.088-0.408-0.014-0.575c0.163-0.378,0.546-0.685,0.841-0.963
		c0.278-0.267,0.505-0.56,0.785-0.825c0.186-0.177,0.416-0.316,0.598-0.499c0.42-0.426,0.83-0.813,1.242-1.255
		c0.257-0.291,0.513-0.583,0.771-0.874c0.289-0.266,0.575-0.53,0.864-0.796C58.564,14.354,59.937,12.929,58.781,12.742
		 M13.523,36.519c-0.055,0.139-0.108,0.277-0.163,0.417c-0.369,0.658-0.926,1.179-1.319,1.824c-0.144,0.231-0.25,0.488-0.406,0.721
		c-0.099,0.144-0.219,0.268-0.321,0.401c-0.314,0.409-0.543,0.849-0.884,1.24c-0.346,0.376-0.693,0.753-1.041,1.129
		c-0.191,0.241-0.278,0.548-0.462,0.783c-0.255,0.265-0.512,0.53-0.768,0.795c-0.256,0.345-0.451,0.719-0.713,1.055
		c-0.149,0.171-0.301,0.341-0.453,0.51c-0.149,0.212-0.3,0.423-0.45,0.636c-0.142,0.164-0.283,0.328-0.427,0.492
		c-0.256,0.334-0.513,0.668-0.769,1.001c-0.062,0.058-0.125,0.114-0.187,0.172c-0.348,0.439-0.7,0.862-1.092,1.285
		c-0.294,0.348-0.588,0.693-0.883,1.041c-0.349,0.503-0.549,0.807-1.067,1.152c-0.253,0.011-0.451,0.006-0.648-0.096
		c-0.02-0.519,0.196-0.943,0.384-1.369c0.047-0.09,0.093-0.181,0.139-0.271c0.076-0.276,0.044-0.602,0.14-0.872
		c0.09-0.256,0.275-0.447,0.414-0.683c0.052-0.113,0.101-0.228,0.152-0.342c0.145-0.237,0.289-0.476,0.435-0.714
		c0.058-0.14,0.113-0.28,0.172-0.419c0.368-0.676,0.747-1.355,1.165-1.999c0.14-0.219,0.332-0.386,0.489-0.584
		c0.226-0.297,0.449-0.595,0.676-0.893c0.252-0.27,0.504-0.542,0.756-0.812c0.506-0.621,1.021-1.216,1.573-1.809
		c0.136-0.171,0.269-0.345,0.405-0.516c0.793-0.804,1.638-1.587,2.526-2.279c0.221-0.176,0.466-0.319,0.691-0.49
		c0.329-0.256,0.612-0.576,0.957-0.813c0.136-0.061,0.271-0.123,0.406-0.184c0.136-0.08,0.27-0.159,0.404-0.239
		c0.137-0.001,0.388-0.029,0.431,0.12C13.858,36.157,13.613,36.327,13.523,36.519 M29.522,27.077
		c-0.194,0.208-0.435,0.351-0.627,0.543c-1.144,0.044,0.45-1.662,0.708-1.906c0.114-0.09,0.227-0.18,0.339-0.27
		c0.104,0.038,0.209,0.085,0.247,0.204C30.292,25.972,29.744,26.835,29.522,27.077 M44.999,24.429
		c-0.017,0.105-0.091,0.195-0.134,0.286c-0.187,0.39-0.399,0.765-0.701,1.093c-0.102,0.106-0.242,0.138-0.359,0.218
		c-0.397,0.267-0.801,0.582-1.248,0.756c-0.127,0.047-0.333,0.06-0.439-0.018c-0.532-0.389,0.193-0.965,0.429-1.249
		c0.252-0.31,0.479-0.64,0.771-0.916c0.336-0.322,0.712-0.565,1.079-0.828c0.208,0.011,0.308,0.043,0.443,0.19
		C44.968,24.1,45.03,24.21,44.999,24.429 M53.41,23.916c-0.077,0.615-0.184,1.153-0.559,1.631c-0.405,0.515-0.984,0.98-1.516,1.317
		c-0.187,0.099-0.372,0.197-0.56,0.295c-0.734,0.027-0.989-0.35-1.004-1.052c-0.007-0.271,0.002-0.576,0.08-0.813
		c0.109-0.338,0.297-0.665,0.428-0.992c0.317-0.813,0.709-1.929,1.507-2.425c0.34-0.012,0.725-0.065,0.994,0.073
		C53.523,22.335,53.505,23.153,53.41,23.916"/>
</g>
<g>
	<path d="M53.693,32.486h0.177c0.655,0,1.445,0.098,1.445,0.931c0.001,0.846-0.732,0.973-1.409,0.974h-0.212L53.693,32.486z
		 M53.694,34.982h0.382c1.008,0,1.86-0.431,1.86-1.553c-0.001-0.973-0.509-1.537-2.145-1.536l-0.763,0.001l0.005,5.317h0.662
		L53.694,34.982z"/>
	<path d="M64.311,35.266l-1.891,0.001l0.943-2.151L64.311,35.266z M64.585,35.872l0.608,1.333l0.712-0.001l-2.543-5.542
		l-2.535,5.545h0.712l0.606-1.334L64.585,35.872z"/>
	<path d="M72.44,32.475l0.177-0.001c0.655,0,1.445,0.12,1.446,0.952c0,0.847-0.733,0.974-1.41,0.975h-0.211L72.44,32.475z
		 M73.407,34.886c0.769-0.092,1.276-0.727,1.275-1.488c0-0.508-0.254-1.009-0.698-1.27c-0.424-0.239-0.931-0.246-1.404-0.246
		l-0.804,0.001l0.003,5.318l0.663-0.001l-0.001-2.25h0.274l1.567,2.249l0.804-0.001L73.407,34.886z"/>
	<rect x="81.018" y="31.877" width="0.662" height="5.318"/>
	<path d="M90.466,32.88c-0.197-0.332-0.451-0.501-0.854-0.5c-0.423,0-0.889,0.289-0.888,0.755c0,0.416,0.409,0.634,0.741,0.761
		l0.38,0.148c0.755,0.296,1.32,0.711,1.32,1.6c0.001,0.967-0.746,1.658-1.698,1.658c-0.861,0.001-1.531-0.634-1.645-1.487
		l0.67-0.141c-0.006,0.585,0.46,1.008,1.03,1.008c0.572-0.001,0.981-0.479,0.98-1.038c0-0.57-0.458-0.816-0.918-1.008l-0.366-0.155
		c-0.606-0.26-1.157-0.604-1.157-1.346c-0.001-0.859,0.761-1.376,1.564-1.376c0.593-0.001,1.08,0.289,1.368,0.803L90.466,32.88z"/>
</g>
</svg>
