<?xml version="1.0" encoding="utf-8"?>
<!-- Generator: Adobe Illustrator 17.0.0, SVG Export Plug-In . SVG Version: 6.00 Build 0)  -->
<!DOCTYPE svg PUBLIC "-//W3C//DTD SVG 1.1//EN" "http://www.w3.org/Graphics/SVG/1.1/DTD/svg11.dtd">
<svg version="1.1" xmlns="http://www.w3.org/2000/svg" xmlns:xlink="http://www.w3.org/1999/xlink" x="0px" y="0px" width="64px"
	 height="36px" viewBox="0 0 64 36" enable-background="new 0 0 64 36" xml:space="preserve">
<g id="Layer_1" display="none">
	<g display="inline">
		<g>
			<g>
				<g>
					<path fill="#00539E" d="M56.879,21.355c-0.853,0.138-1.334,0.187-1.798,0.187c-1.126,0-2.728-0.322-4.411-0.894l-2.522-0.853
						c-1.332-0.452-3.319-0.824-4.41-0.824c-1.08,0-3.074,0.373-4.404,0.824l-2.519,0.853c-1.686,0.571-3.291,0.894-4.415,0.894
						c-1.122,0-2.725-0.323-4.409-0.894l-2.525-0.853c-1.327-0.452-3.316-0.825-4.399-0.824c-1.091,0-3.083,0.372-4.412,0.824
						l-2.525,0.853c-1.681,0.572-3.282,0.894-4.408,0.894c-0.467,0-0.944-0.048-1.8-0.187l0.109,0.173
						c0.24,0.406,0.371,0.58,0.693,0.959c0.442,0.058,0.621,0.075,0.975,0.075c1.125,0,2.961-0.352,4.43-0.85l2.525-0.853
						c1.714-0.58,3.279-0.897,4.412-0.897c0.954,0,2.619,0.307,3.777,0.694l3.148,1.055c1.49,0.5,3.313,0.85,4.411,0.85
						c1.105,0,2.928-0.35,4.413-0.85l3.145-1.055c1.159-0.387,2.827-0.694,3.782-0.694c1.132,0,2.694,0.316,4.406,0.897l2.522,0.853
						c1.472,0.498,3.305,0.85,4.438,0.85c0.351,0,0.527-0.017,0.975-0.075c0.355-0.421,0.459-0.565,0.694-0.959L56.879,21.355"/>
					<path fill="#00539E" d="M53.119,24.901l-3.672-1.127c-1.646-0.509-2.287-0.68-3.167-0.881
						c-0.931-0.207-1.863-0.322-2.542-0.322c-1.066,0-3.095,0.379-4.404,0.82l-2.519,0.856c-1.707,0.575-3.278,0.895-4.428,0.895
						c-1.147,0-2.705-0.318-4.418-0.895l-2.527-0.856c-1.305-0.44-3.345-0.82-4.407-0.82c-0.673,0-1.616,0.116-2.538,0.322
						c-0.869,0.195-1.562,0.387-3.172,0.881l-3.665,1.127c0.39,0.36,0.495,0.44,0.934,0.737l2.038-0.62l1.684-0.496l0.678-0.201
						c1.792-0.531,3.011-0.757,4.045-0.757c0.936,0,2.641,0.312,3.777,0.692l3.155,1.06c1.471,0.496,3.301,0.845,4.419,0.845
						c1.116,0,2.959-0.353,4.426-0.845l3.145-1.06c1.132-0.379,2.846-0.692,3.782-0.692c1.038,0,2.245,0.226,4.04,0.757l0.673,0.201
						l1.688,0.496l2.04,0.62C52.623,25.34,52.726,25.259,53.119,24.901"/>
					<path fill="#00539E" d="M49.01,27.289l-0.228-0.084l-0.634-0.206c-1.827-0.553-3.293-0.829-4.41-0.829
						c-0.934,0-2.518,0.271-3.778,0.644l-0.626,0.186c-0.321,0.103-0.531,0.173-0.634,0.206l-0.631,0.219l-0.626,0.215l-0.629,0.212
						c-1.918,0.621-3.278,0.895-4.415,0.895c-0.972,0-2.418-0.264-3.779-0.696l-0.63-0.199l-0.629-0.212l-0.629-0.215l-0.626-0.219
						l-0.642-0.206c-1.823-0.553-3.29-0.829-4.399-0.829c-0.945,0-2.527,0.27-3.784,0.644l-0.629,0.186
						c-0.446,0.144-0.538,0.173-0.861,0.291l1.265,0.66l0.288-0.086c1.478-0.459,2.751-0.698,3.723-0.698
						c0.816,0,2.093,0.21,3.142,0.513l0.632,0.185l0.623,0.199l0.642,0.213l0.626,0.218l0.629,0.213l0.629,0.207
						c1.895,0.583,3.284,0.85,4.411,0.85c0.97,0,2.445-0.259,3.779-0.66l0.634-0.19l0.629-0.207l0.626-0.213l0.631-0.218
						l0.634-0.213l0.626-0.199c1.613-0.478,2.796-0.698,3.782-0.698c0.974,0.001,2.241,0.238,3.718,0.698l0.283,0.086L49.01,27.289"
						/>
					<path fill="#00539E" d="M13.003,12.396v2.758c-0.626,0.264-1.258,0.395-1.886,0.395c-1.617,0-2.755-1.248-2.755-3.026
						c0-1.912,1.36-3.244,3.309-3.244c1.093,0,2.172,0.306,3.482,0.973V8.418c-1.672-0.68-2.499-0.876-3.736-0.876
						c-3.416,0-5.595,1.931-5.595,4.954c0,2.874,2.117,4.787,5.298,4.787c1.42,0,3.102-0.45,4.326-1.169v-3.719L13.003,12.396"/>
					<path fill="#00539E" d="M17.468,7.813v9.206h2.405V9.546h1.037c1.358,0,1.964,0.433,1.964,1.4c0,0.991-0.68,1.55-1.877,1.55
						l-0.528-0.015h-0.266l3.337,4.537h3.072l-3.063-3.704c1.138-0.509,1.741-1.425,1.741-2.616c0-1.955-1.262-2.887-3.897-2.887
						L17.468,7.813"/>
					<polyline fill="#00539E" points="39.827,7.813 39.827,17.018 42.232,17.018 42.232,13.08 46.477,13.08 46.477,17.018 
						48.88,17.018 48.88,7.813 46.477,7.813 46.477,11.217 42.232,11.217 42.232,7.813 39.827,7.813 					"/>
					<polyline fill="#00539E" points="51.443,7.813 51.443,17.018 58.355,17.018 58.355,15.216 53.843,15.216 53.843,13.025 
						57.159,13.025 57.159,11.292 53.843,11.292 53.843,9.615 57.83,9.615 57.83,7.813 51.443,7.813 					"/>
					<path fill="#00539E" d="M26.789,12.416c0,2.861,2.397,4.957,5.666,4.957c3.266,0,5.665-2.096,5.661-4.958
						c0-2.867-2.392-4.962-5.661-4.962C29.184,7.454,26.789,9.548,26.789,12.416L26.789,12.416z M29.318,12.415
						c0.005-1.899,1.291-3.228,3.137-3.228c1.846,0,3.129,1.33,3.129,3.229c0,1.895-1.287,3.224-3.129,3.224
						C30.614,15.641,29.318,14.31,29.318,12.415"/>
				</g>
			</g>
		</g>
	</g>
</g>
<g id="Layer_2">
	<path fill="#007DC4" d="M18.939,11.353c-0.034,1.973-1.088,3.01-2.823,3.623l3.435,6.174h-4.864
		c-0.85-1.752-1.82-3.639-2.772-5.323l-1.837,0.017v5.306l-4.286-0.017V7.577l8.181-0.034C17.068,7.526,18.905,8.716,18.939,11.353
		L18.939,11.353z"/>
	<path fill="#FFFFFF" d="M14.636,11.353c-0.425,2.177-2.67,2.398-4.558,2.466V9.601h2.058C13.343,9.601,14.636,9.941,14.636,11.353
		L14.636,11.353z"/>
	<path fill="#007DC4" d="M58.207,14.601v5.867c-1.582,0.527-3.384,0.901-5.221,0.901c-2.347,0-6.139-0.612-6.156-3.333
		c0.017-3.198,4.031-3.47,7.347-3.452c0-1.496-0.221-2.041-1.803-2.041c-1.888,0-2.483,0.204-3.639,0.731l-0.578-1.582
		c0.493-0.238,2.007-0.714,4.711-0.714C55.674,10.978,58.207,11.709,58.207,14.601L58.207,14.601z"/>
	<path fill="#007DC4" d="M39.224,16.177c0.023-1.686,0.569-3.135,2.623-3.135c0.869,0.034,1.754,0.213,2.537,0.547l0.8-1.87
		c-1.277-0.558-2.963-0.73-4.545-0.73c-2.548,0-5.373,1.582-5.373,5.189c-0.006,3.607,2.819,5.188,5.368,5.188
		c1.582,0,3.268-0.173,4.545-0.73l-0.8-1.87c-0.782,0.334-1.668,0.512-2.537,0.547C39.788,19.312,39.241,17.862,39.224,16.177
		L39.224,16.177z"/>
	<path fill="#FFFFFF" d="M54.194,19.396c-1.564,0.221-3.537,0.085-3.537-1.701c-0.017-1.531,2.16-1.531,3.537-1.531V19.396
		L54.194,19.396z"/>
	<path fill="#007DC4" d="M36.388,25.587c2.16,0,4.031-0.17,6.36-0.408l-7.194,4.643c-5.17-0.017-14.201-2.33-18.248-2.313
		c-3.946,0-7.755,0.647-11.513,1.48v-4.201c5.391-1.445,8.129-1.445,12.296-1.429C24.33,23.342,30.197,25.587,36.388,25.587
		L36.388,25.587z"/>
	<polygon fill="#007DC4" points="58.207,23.785 58.207,28.461 43.463,28.461 46.319,23.785 	"/>
	<path fill="#007DC4" d="M26.953,11.004c4.746-0.034,6.253,2.341,6.253,5.183c0,2.848-1.547,5.177-6.253,5.177
		c-4.504,0-6.253-2.307-6.253-5.177C20.7,13.346,22.408,10.97,26.953,11.004L26.953,11.004z"/>
	<path fill="#FFFFFF" d="M26.993,19.507c-2.163-0.017-2.163-1.381-2.163-3.319c0-1.904-0.052-3.273,2.174-3.29
		c2.226,0.017,2.152,1.392,2.152,3.296C29.157,18.133,29.157,19.496,26.993,19.507L26.993,19.507z"/>
</g>
<g id="Layer_3" display="none">
	<g display="inline">
		<path d="M61.619,16.398c-0.036,0.007-0.072,0.013-0.107,0.019c-0.09,0.004-0.193,0.037-0.258,0.087
			c-0.334,0.012-0.638-0.016-0.956-0.024c-0.281-0.007-0.542-0.002-0.816-0.021c-0.088-0.014-0.177-0.028-0.265-0.042
			c-0.198-0.025-0.392-0.012-0.599-0.018c-0.149-0.004-0.484-0.064-0.601-0.005c-0.236,0.003-0.472,0.005-0.708,0.008
			c-0.072-0.01-0.145-0.021-0.217-0.032c-0.163-0.012-0.328-0.026-0.492-0.039c-0.126-0.022-0.221-0.071-0.347-0.092
			c-0.129-0.023-0.247-0.049-0.371-0.067c-0.105-0.015-0.222-0.017-0.319-0.051c-0.325-0.114-0.472-0.479-0.868-0.445
			c-0.126,0.011-0.194,0.072-0.29,0.126c-0.199,0.108-0.37,0.247-0.561,0.368c-0.06,0.038-0.129,0.045-0.189,0.081
			c-0.343,0.013-0.448-0.307-0.716-0.456c-0.121-0.067-0.252-0.106-0.379-0.161c-0.045-0.022-0.091-0.044-0.136-0.066
			c-0.053-0.015-0.107-0.031-0.161-0.047c-0.035-0.016-0.07-0.034-0.105-0.05c-0.086-0.018-0.171-0.037-0.256-0.056
			c-0.159-0.057-0.283-0.199-0.436-0.27c-0.058-0.015-0.118-0.031-0.177-0.046c-0.129-0.036-0.347-0.123-0.497-0.049
			c-0.105,0.004-0.228,0.033-0.305,0.089c-0.398,0.015-0.787,0.356-1.013,0.661c-0.047,0.063-0.097,0.162-0.158,0.21
			c-0.063,0.048-0.135,0.103-0.21,0.129c-0.114,0.036-0.251,0.058-0.347,0.128c-0.036,0.006-0.071,0.013-0.108,0.019
			c-0.04,0.007-0.082,0.013-0.121,0.019c-0.112,0.005-0.237,0.044-0.319,0.105c-0.031,0.006-0.061,0.012-0.092,0.019
			c-0.046,0.007-0.092,0.014-0.138,0.021c-0.045,0.008-0.092,0.014-0.137,0.021c-0.094,0.004-0.203,0.024-0.274,0.072
			c-0.031,0.007-0.061,0.013-0.091,0.019c-0.078,0.003-0.181-0.004-0.245,0.025c-0.078,0.003-0.168,0.002-0.229,0.039
			c-0.031,0.006-0.061,0.012-0.092,0.019c-0.507,0.019-0.284-0.473-0.137-0.71c0.026-0.029,0.053-0.057,0.079-0.086
			c0.074-0.085,0.15-0.171,0.209-0.263c0.137-0.214,0.267-0.439,0.378-0.665c0.063-0.129,0.2-0.212,0.283-0.327
			c0.111-0.153,0.196-0.331,0.29-0.492c0.057-0.074,0.113-0.148,0.169-0.222c0.094-0.144,0.18-0.299,0.282-0.441
			c0.057-0.069,0.116-0.138,0.173-0.207c0.054-0.09,0.107-0.18,0.161-0.27c0.061-0.081,0.121-0.163,0.182-0.244
			c0.02-0.036,0.04-0.072,0.06-0.108c0.085-0.109,0.187-0.202,0.282-0.301c0.058-0.071,0.116-0.141,0.173-0.211
			c0.087-0.092,0.173-0.185,0.26-0.278c0.148-0.175,0.251-0.381,0.394-0.555c0.1-0.105,0.198-0.211,0.297-0.317
			c0.111-0.128,0.22-0.263,0.342-0.394c0.192-0.208,0.396-0.388,0.579-0.591c0.115-0.129,0.2-0.27,0.317-0.389
			c0.169-0.171,0.36-0.257,0.471-0.493c0.034-0.072,0.043-0.213-0.024-0.272c-0.161-0.139-0.313-0.08-0.467,0.032
			c-0.149,0.108-0.222,0.262-0.319,0.406c-0.061,0.09-0.158,0.19-0.23,0.273c-0.368,0.41-0.736,0.82-1.105,1.23
			c-0.141,0.152-0.237,0.32-0.371,0.473c-0.092,0.102-0.185,0.203-0.278,0.304c-0.24,0.307-0.481,0.613-0.721,0.92
			c-0.061,0.066-0.124,0.132-0.186,0.198c-0.056,0.063-0.105,0.138-0.168,0.2c-0.067,0.061-0.134,0.123-0.201,0.184
			c-0.194,0.236-0.388,0.459-0.613,0.662c-0.095,0.08-0.189,0.16-0.284,0.239c-0.042,0.031-0.085,0.061-0.127,0.092
			c-0.084,0.076-0.167,0.15-0.251,0.227c-0.051,0.055-0.106,0.128-0.161,0.174c-0.103,0.085-0.215,0.182-0.325,0.262
			c-0.146,0.105-0.31,0.186-0.453,0.298c-0.108,0.105-0.216,0.211-0.325,0.316c-0.051,0.038-0.113,0.047-0.169,0.074
			c-0.06,0.038-0.119,0.075-0.179,0.113c-0.273,0.191-0.525,0.394-0.807,0.565c-0.062,0.025-0.124,0.05-0.186,0.074
			c-0.032,0.021-0.065,0.043-0.099,0.063c-0.086,0.044-0.174,0.082-0.26,0.127c-0.107,0.055-0.228,0.093-0.326,0.164
			c-0.058,0.003-0.138-0.003-0.184,0.023c-0.046,0.007-0.092,0.013-0.137,0.021c-0.114,0.004-0.234,0.011-0.321-0.042
			c-0.174-0.108-0.073-0.489-0.038-0.651c0.016-0.073,0.06-0.135,0.052-0.218c-0.013-0.119-0.123-0.239-0.223-0.291
			c-0.051-0.026-0.118-0.067-0.179-0.062c-0.042,0.014-0.083,0.028-0.125,0.042c-0.048,0.018-0.096,0.036-0.144,0.054
			c-0.145,0.076-0.265,0.235-0.383,0.351c-0.158,0.154-0.328,0.288-0.495,0.433c-0.098,0.096-0.197,0.191-0.295,0.286
			c-0.159,0.119-0.362,0.173-0.52,0.292c-0.139,0.005-0.274,0.055-0.38,0.122c-0.03,0.007-0.061,0.013-0.091,0.019
			c-0.031,0.006-0.061,0.013-0.092,0.019c-0.124,0.005-0.258,0.005-0.367-0.028c-0.285-0.085-0.444-0.387-0.46-0.68
			c-0.006-0.108-0.014-0.231,0.033-0.315c0.099-0.177,0.267-0.287,0.39-0.448c0.096-0.127,0.205-0.237,0.314-0.362
			c0.042-0.056,0.085-0.11,0.127-0.165c0.078-0.076,0.156-0.152,0.234-0.229c0.171-0.211,0.327-0.432,0.491-0.644
			c0.065-0.073,0.131-0.145,0.195-0.217c0.09-0.127,0.16-0.271,0.232-0.408c0.019-0.041,0.039-0.083,0.058-0.124
			c0.194-0.276,0.433-0.528,0.616-0.808c0.018-0.044,0.037-0.088,0.056-0.132c0.056-0.079,0.111-0.158,0.168-0.236
			c0.021-0.042,0.041-0.085,0.062-0.127c0.086-0.116,0.172-0.232,0.258-0.348c0.031-0.057,0.061-0.115,0.09-0.171
			c0.052-0.064,0.104-0.129,0.156-0.193c0.063-0.102,0.106-0.223,0.169-0.322c0.045-0.072,0.061-0.158,0.108-0.229
			c0.179-0.269,0.394-0.509,0.564-0.781c0.055-0.09,0.126-0.174,0.161-0.274c0.028-0.081,0.036-0.177,0.031-0.273
			c-0.005-0.081-0.018-0.155-0.084-0.197c-0.077-0.049-0.201-0.051-0.286-0.008c-0.193,0.097-0.337,0.291-0.505,0.428
			c-0.097,0.078-0.183,0.179-0.282,0.258c-0.382,0.298-0.721,0.654-1.024,1.039c-0.26,0.328-0.484,0.683-0.735,1.013
			c-0.088,0.116-0.197,0.211-0.275,0.334c-0.107,0.166-0.183,0.347-0.279,0.52c-0.052,0.092-0.127,0.168-0.174,0.263
			c-0.057,0.115-0.098,0.235-0.158,0.35c-0.056,0.105-0.133,0.196-0.198,0.298c-0.072,0.112-0.132,0.224-0.193,0.342
			c-0.049,0.119-0.098,0.237-0.148,0.356c-0.055,0.102-0.147,0.184-0.19,0.292c-0.016,0.059-0.032,0.118-0.047,0.176
			c-0.044,0.131-0.124,0.252-0.169,0.382c-0.072,0.206-0.137,0.433-0.281,0.603c-0.197,0.233-0.461,0.394-0.707,0.549
			c-0.217,0.148-0.434,0.296-0.652,0.444c-0.113,0.068-0.229,0.122-0.347,0.183c-0.04,0.026-0.081,0.052-0.121,0.077
			c-0.141,0.066-0.319,0.067-0.453,0.147c-0.127,0.005-0.384-0.006-0.361-0.184c0.02-0.161,0.497-0.531,0.626-0.683
			c0.221-0.265,0.476-0.622,0.594-0.934c0.011-0.051,0.022-0.102,0.033-0.153c0.021-0.074,0.09-0.181,0.036-0.263
			c-0.026-0.038-0.068-0.058-0.103-0.08c-0.176-0.11-0.29-0.036-0.465,0.014c-0.062,0.017-0.122,0.02-0.171,0.057
			c-0.117,0.087-0.282,0.349-0.427,0.355c-0.026,0.001-0.05-0.011-0.059-0.033c-0.012-0.028-0.009-0.072,0.002-0.097
			c0.059-0.077,0.118-0.155,0.177-0.232c0.076-0.1,0.144-0.207,0.209-0.311c0.095-0.14,0.189-0.28,0.284-0.421
			c0.056-0.076,0.111-0.153,0.166-0.229c0.036-0.068,0.044-0.139,0.068-0.212c0.092-0.271,0.177-0.558,0.171-0.873
			c-0.006-0.282-0.066-0.532-0.128-0.782c-0.024-0.111-0.048-0.222-0.072-0.333c-0.077-0.245-0.193-0.475-0.309-0.7
			c-0.035-0.068-0.04-0.157-0.079-0.224c-0.027-0.038-0.055-0.074-0.083-0.113c-0.057-0.092-0.105-0.189-0.163-0.278
			c-0.071-0.109-0.157-0.206-0.231-0.311c-0.036-0.044-0.073-0.087-0.11-0.131c-0.056-0.083-0.116-0.177-0.187-0.25
			c-0.12-0.123-0.267-0.223-0.394-0.327c-0.195-0.159-0.392-0.298-0.598-0.43c-0.073-0.047-0.133-0.109-0.207-0.155
			c-0.2-0.129-0.425-0.258-0.653-0.335c-0.092-0.032-0.192-0.03-0.289-0.051c-0.048-0.019-0.097-0.038-0.145-0.056
			c-0.056-0.013-0.111-0.026-0.166-0.039c-0.07-0.027-0.139-0.054-0.21-0.081c-0.066-0.011-0.132-0.024-0.197-0.036
			c-0.09-0.022-0.171-0.061-0.267-0.073c-0.078-0.008-0.156-0.015-0.233-0.023c-0.072-0.013-0.144-0.026-0.216-0.039
			c-0.559-0.052-1.16-0.022-1.754,0.001c-0.097,0.014-0.194,0.028-0.291,0.041c-0.082,0.003-0.194-0.008-0.261,0.025
			c-0.111,0.004-0.248,0.037-0.335,0.09c-0.144,0.005-0.287,0.01-0.431,0.016c-0.068,0.003-0.16-0.004-0.215,0.023
			c-0.132,0.005-0.281,0.04-0.381,0.106c-0.103,0.004-0.253-0.013-0.337,0.028c-0.166,0.006-0.45,0.045-0.565,0.129
			c-0.04,0.007-0.082,0.013-0.122,0.02c-0.132,0.005-0.218,0.068-0.325,0.107c-0.073,0.021-0.146,0.041-0.219,0.062
			c-0.042,0.026-0.086,0.052-0.127,0.079c-0.207,0.092-0.638,0.257-0.645,0.541c-0.005,0.157,0.14,0.247,0.217,0.362
			c0.097,0.147,0.207,0.293,0.4,0.308c0.091,0.007,0.119-0.072,0.087-0.144c-0.035-0.056-0.07-0.112-0.105-0.168
			c-0.119-0.339,0.105-0.447,0.341-0.575c0.044-0.024,0.088-0.049,0.133-0.074c0.061-0.017,0.122-0.034,0.184-0.05
			c0.056-0.025,0.112-0.05,0.168-0.075c0.074-0.019,0.149-0.038,0.224-0.056c0.052-0.023,0.103-0.046,0.155-0.069
			c0.112-0.026,0.224-0.052,0.335-0.078c0.061-0.022,0.122-0.043,0.182-0.065c0.204-0.039,0.41-0.044,0.628-0.062
			c0.153-0.029,0.306-0.058,0.458-0.087c0.2-0.015,0.399-0.03,0.598-0.045c0.118-0.013,0.235-0.026,0.353-0.04
			c0.246-0.01,0.492-0.02,0.737-0.03c0.097-0.011,0.194-0.023,0.292-0.034c0.182,0.002,0.363,0.014,0.539,0.042
			c0.082,0.013,0.151,0.044,0.236,0.055c0.163,0.021,0.346,0.006,0.505,0.041c0.039,0.015,0.076,0.029,0.114,0.044
			c0.115,0.034,0.228,0.061,0.34,0.103c0.087,0.02,0.174,0.04,0.261,0.06c0.056,0.023,0.109,0.044,0.164,0.065
			c0.059,0.016,0.118,0.031,0.177,0.046c0.231,0.105,0.437,0.254,0.651,0.396c0.265,0.174,0.521,0.361,0.755,0.592
			c0.08,0.077,0.132,0.177,0.207,0.258c0.103,0.113,0.218,0.216,0.303,0.339c0.065,0.094,0.115,0.197,0.18,0.292
			c0.058,0.086,0.123,0.163,0.181,0.248c0.028,0.063,0.057,0.125,0.085,0.188c0.026,0.036,0.051,0.071,0.075,0.107
			c0.067,0.125,0.109,0.257,0.158,0.393c0.027,0.074,0.089,0.133,0.103,0.215c0.004,0.138,0.008,0.276,0.011,0.414
			c0.022,0.188,0.046,0.393,0.048,0.598c-0.006,0.073-0.012,0.145-0.018,0.217c-0.001,0.112,0.024,0.205-0.011,0.307
			c-0.031,0.09-0.057,0.192-0.098,0.28c-0.053,0.097-0.105,0.194-0.158,0.292c-0.021,0.063-0.042,0.126-0.063,0.189
			c-0.048,0.062-0.097,0.124-0.145,0.187c-0.087,0.106-0.179,0.22-0.271,0.328c-0.06,0.076-0.121,0.152-0.183,0.228
			c-0.086,0.068-0.173,0.119-0.261,0.179c-0.025,0.021-0.051,0.041-0.076,0.061c-0.082,0.048-0.166,0.082-0.241,0.147
			c-0.035,0.007-0.071,0.013-0.106,0.019c-0.063,0.003-0.151-0.004-0.199,0.023c-0.031,0.006-0.061,0.012-0.092,0.019
			c-0.09,0.003-0.19,0.027-0.259,0.071c-0.189,0.006-0.379,0.012-0.568,0.019c-0.148-0.005-0.481-0.075-0.602-0.021
			c-0.04,0.007-0.082,0.013-0.122,0.02c-0.161,0.006-0.31-0.014-0.463-0.012c-0.436,0.003-0.865,0.001-1.308,0.018
			c-0.121,0.005-0.367-0.013-0.46,0.033c-0.041,0.006-0.082,0.013-0.123,0.02c-0.171,0.006-0.361-0.002-0.489,0.08
			c-0.08,0.003-0.197-0.01-0.261,0.025c-0.162,0.006-0.325,0.036-0.442,0.124c-0.036,0.006-0.072,0.013-0.107,0.019
			c-0.054,0.002-0.126-0.002-0.168,0.022c-0.052,0.002-0.1,0.011-0.137,0.036c-0.103,0.004-0.244,0.007-0.292-0.091
			c-0.047-0.092,0.044-0.435,0.079-0.528c0.027-0.055,0.054-0.11,0.081-0.166c0.04-0.129,0.088-0.29,0.163-0.403
			c0.131-0.2,0.211-0.418,0.315-0.629c0.085-0.171,0.2-0.334,0.279-0.507c0.022-0.063,0.043-0.126,0.064-0.189
			c0.051-0.088,0.103-0.176,0.153-0.264c0.02-0.048,0.04-0.097,0.06-0.145c0.053-0.096,0.111-0.186,0.168-0.281
			c0.025-0.048,0.049-0.097,0.074-0.145c0.094-0.115,0.187-0.23,0.281-0.344c0.111-0.168,0.174-0.382,0.307-0.533
			c0.168-0.194,0.773-0.707,0.379-0.942c-0.145-0.087-0.374,0.113-0.453,0.232c-0.062,0.093-0.096,0.199-0.155,0.289
			c-0.077,0.114-0.152,0.239-0.23,0.349c-0.064,0.09-0.135,0.174-0.184,0.273c-0.055,0.107-0.135,0.199-0.201,0.302
			c-0.063,0.098-0.105,0.207-0.175,0.302c-0.062,0.081-0.124,0.161-0.186,0.242c-0.1,0.163-0.171,0.336-0.26,0.502
			c-0.092,0.17-0.208,0.328-0.282,0.507c-0.018,0.065-0.037,0.129-0.055,0.194c-0.07,0.15-0.227,0.266-0.282,0.423
			c-0.02,0.087-0.041,0.173-0.061,0.26c-0.051,0.121-0.102,0.24-0.153,0.36c-0.016,0.103-0.031,0.205-0.046,0.307
			c-0.02,0.073-0.04,0.147-0.061,0.219c-0.035,0.224-0.001,0.303-0.133,0.489c-0.096,0.135-0.257,0.177-0.379,0.269
			c-0.031,0.006-0.061,0.012-0.091,0.019c-0.099,0.003-0.272,0.074-0.35,0.121c-0.131,0.005-0.269,0.052-0.365,0.121
			c-0.238,0.009-0.399,0.163-0.594,0.248c-0.445,0.192-0.898,0.418-1.268,0.739c-0.041,0.027-0.083,0.054-0.124,0.081
			c-0.105,0.09-0.195,0.182-0.271,0.295c-0.036,0.052-0.039,0.11-0.061,0.169c-0.028,0.076-0.066,0.14-0.054,0.234
			c0.009,0.075,0.058,0.122,0.088,0.184c0.12,0.251,0.384,0.386,0.64,0.457c0.212,0.058,0.422,0.025,0.66,0.016
			c0.122-0.005,0.24,0.015,0.354,0.008c0.148-0.016,0.296-0.033,0.445-0.05c0.113-0.006,0.225-0.013,0.337-0.019
			c0.189-0.019,0.374-0.041,0.566-0.071c0.194-0.05,0.387-0.099,0.581-0.149c0.183-0.032,0.365-0.064,0.548-0.097
			c0.132-0.041,0.263-0.084,0.394-0.125c0.063-0.031,0.126-0.062,0.189-0.093c0.073-0.02,0.147-0.04,0.221-0.061
			c0.056-0.023,0.1-0.06,0.158-0.078c0.096-0.018,0.192-0.036,0.287-0.053c0.071-0.027,0.142-0.054,0.213-0.081
			c0.09-0.022,0.181-0.045,0.271-0.067c0.11-0.04,0.238-0.075,0.348-0.122c0.044-0.025,0.086-0.05,0.13-0.076
			c0.074-0.019,0.148-0.039,0.222-0.058c0.047-0.021,0.094-0.042,0.141-0.064c0.055-0.018,0.108-0.036,0.162-0.053
			c0.052-0.028,0.103-0.058,0.154-0.087c0.059-0.018,0.118-0.036,0.176-0.055c0.137-0.061,0.274-0.144,0.414-0.2
			c0.066-0.019,0.132-0.039,0.197-0.058c0.056-0.025,0.112-0.051,0.168-0.076c0.059-0.018,0.118-0.037,0.177-0.055
			c0.037-0.022,0.074-0.045,0.111-0.067c0.049-0.021,0.098-0.04,0.148-0.06c0.045-0.027,0.09-0.053,0.135-0.08
			c0.19-0.099,0.376-0.2,0.558-0.314c0.092-0.062,0.183-0.125,0.274-0.187c0.118-0.07,0.236-0.129,0.357-0.192
			c0.033-0.022,0.065-0.043,0.098-0.065c0.044-0.02,0.088-0.04,0.132-0.061c0.073-0.06,0.144-0.12,0.216-0.181
			c0.105-0.046,0.209-0.092,0.314-0.137c0.071-0.026,0.257-0.068,0.319-0.008c0.024,0.024,0.027,0.068,0.024,0.105
			c-0.012,0.129-0.141,0.225-0.196,0.339c-0.028,0.062-0.057,0.125-0.087,0.187c-0.069,0.177-0.091,0.385-0.245,0.518
			c-0.095,0.082-0.208,0.133-0.318,0.186c-0.037,0.026-0.076,0.053-0.113,0.079c-0.144,0.076-0.307,0.162-0.433,0.269
			c-0.075,0.003-0.144,0.015-0.215,0.003c-0.055-0.009-0.079-0.032-0.095-0.084c-0.123-0.394-0.652,0.18-0.779,0.318
			c-0.053,0.056-0.12,0.112-0.144,0.185c-0.018,0.054-0.006,0.131,0.028,0.174c0.087,0.108,0.231,0.155,0.371,0.157
			c0.441,0.003,0.686-0.203,1.022-0.382c0.126-0.068,0.26-0.118,0.387-0.18c0.15-0.073,0.28-0.181,0.472-0.15
			c0.122,0.019,0.208,0.086,0.318,0.128c0.139,0.031,0.278,0.062,0.417,0.093c0.347,0.061,0.722-0.202,0.992-0.339
			c0.132-0.067,0.268-0.118,0.395-0.194c0.119-0.073,0.265-0.186,0.376-0.272c0.132-0.105,0.445-0.404,0.606-0.407
			c0.23-0.005,0.317,0.299,0.437,0.433c0.174,0.195,0.371,0.376,0.627,0.426c0.108,0.021,0.277,0.068,0.386,0.057
			c0.255-0.026,0.469-0.192,0.732-0.203c0.128-0.005,0.197,0.048,0.3,0.084c0.12,0.042,0.273,0.039,0.393-0.011
			c0.101-0.042,0.276-0.193,0.352-0.278c0.086-0.096,0.174-0.21,0.309-0.225c0.216-0.027,0.257,0.111,0.408,0.205
			c0.057,0.019,0.113,0.039,0.17,0.057c0.043,0.015,0.086,0.029,0.129,0.044c0.137,0.031,0.303,0.019,0.439-0.012
			c0.088-0.024,0.175-0.049,0.262-0.073c0.084-0.019,0.167-0.027,0.242-0.063c0.177-0.087,0.327-0.215,0.5-0.303
			c0.153-0.078,0.294-0.166,0.442-0.257c0.045-0.025,0.09-0.05,0.135-0.074c0.127-0.1,0.24-0.212,0.373-0.302
			c0.123-0.083,0.25-0.164,0.376-0.245c0.056-0.033,0.113-0.067,0.17-0.1c0.123-0.104,0.232-0.233,0.36-0.334
			c0.162-0.127,0.31-0.258,0.478-0.374c0.09-0.063,0.342-0.331,0.46-0.258c0.05,0.031,0.053,0.096,0.039,0.149
			c-0.035,0.116-0.147,0.186-0.211,0.289c-0.051,0.079-0.098,0.165-0.152,0.246c-0.026,0.035-0.052,0.069-0.077,0.103
			c-0.052,0.096-0.105,0.192-0.158,0.288c-0.019,0.026-0.039,0.05-0.057,0.076c-0.047,0.095-0.095,0.2-0.161,0.286
			c-0.064,0.08-0.148,0.121-0.228,0.172c-0.186,0.007-0.495-0.078-0.558,0.146c-0.019,0.066-0.015,0.145,0.007,0.212
			c0.021,0.064,0.063,0.103,0.098,0.158c0.064,0.104,0.058,0.231,0.018,0.344c-0.034,0.097-0.113,0.178-0.174,0.264
			c-0.127,0.179-0.284,0.356-0.401,0.539c-0.053,0.082-0.108,0.152-0.155,0.235c-0.021,0.047-0.042,0.095-0.063,0.142
			c-0.129,0.19-0.26,0.379-0.389,0.568c-0.098,0.165-0.168,0.341-0.271,0.509c-0.06,0.068-0.12,0.134-0.181,0.201
			c-0.089,0.105-0.153,0.233-0.23,0.349c-0.02,0.042-0.041,0.084-0.062,0.126c-0.083,0.139-0.176,0.268-0.259,0.408
			c-0.024,0.048-0.048,0.096-0.072,0.144c-0.171,0.239-0.336,0.483-0.488,0.732c-0.025,0.062-0.05,0.124-0.074,0.186
			c-0.049,0.087-0.098,0.173-0.147,0.26c-0.025,0.053-0.051,0.105-0.076,0.158c-0.052,0.073-0.103,0.147-0.155,0.221
			c-0.018,0.049-0.036,0.098-0.055,0.148c-0.032,0.076-0.072,0.154-0.109,0.229c-0.094,0.152-0.188,0.304-0.282,0.456
			c-0.021,0.058-0.042,0.116-0.062,0.174c-0.056,0.123-0.111,0.241-0.164,0.365c-0.039,0.09-0.036,0.194-0.054,0.294
			c-0.018,0.059-0.035,0.118-0.053,0.176c-0.01,0.057-0.019,0.113-0.028,0.169c-0.022,0.073-0.044,0.146-0.065,0.219
			c-0.016,0.092-0.033,0.183-0.05,0.274c-0.017,0.069-0.049,0.131-0.057,0.205c-0.012,0.104,0.02,0.194,0.032,0.29
			c0.006,0.082,0.013,0.163,0.019,0.245c0.053,0.256,0.216,0.576,0.497,0.634c0.121,0.024,0.293-0.002,0.388-0.061
			c0.029-0.021,0.057-0.042,0.085-0.063c0.207-0.107,0.422-0.249,0.591-0.42c0.176-0.198,0.352-0.396,0.528-0.593
			c0.184-0.175,0.315-0.361,0.445-0.57c0.061-0.086,0.121-0.173,0.182-0.259c0.061-0.106,0.099-0.235,0.166-0.339
			c0.2-0.314,0.401-0.619,0.583-0.939c0.027-0.065,0.054-0.131,0.081-0.196c0.056-0.098,0.113-0.197,0.169-0.295
			c0.016-0.053,0.032-0.106,0.048-0.159c0.059-0.135,0.145-0.256,0.222-0.382c0.025-0.042,0.057-0.072,0.074-0.118
			c0.046-0.153,0.092-0.306,0.137-0.459c0.051-0.134,0.13-0.26,0.174-0.395c0.018-0.091,0.035-0.182,0.053-0.272
			c0.018-0.044,0.036-0.088,0.054-0.133c0.015-0.061,0.029-0.124,0.043-0.186c0.022-0.053,0.043-0.105,0.064-0.158
			c0.014-0.076,0.028-0.153,0.042-0.231c0.017-0.062,0.034-0.124,0.052-0.187c0.011-0.122,0.022-0.244,0.033-0.366
			c0.015-0.069,0.053-0.125,0.069-0.192c0.015-0.133,0.029-0.266,0.044-0.399c0.015-0.068,0.029-0.136,0.044-0.203
			c0.015-0.207,0.006-0.415,0.022-0.617c0.013-0.174-0.092-0.437-0.042-0.581c0.013-0.036,0.037-0.071,0.074-0.089
			c0.01-0.005,0.02-0.01,0.031-0.015c0.228-0.1,0.526-0.009,0.776-0.06c0.158-0.032,0.348-0.053,0.505-0.095
			c0.081-0.03,0.163-0.06,0.245-0.09c0.133-0.025,0.274-0.024,0.399-0.061c0.086-0.029,0.171-0.058,0.258-0.087
			c0.079-0.019,0.159-0.038,0.239-0.056c0.118-0.042,0.224-0.102,0.369-0.099c0.021,0.004,0.04,0.007,0.06,0.011
			c0.108,0.033,0.116,0.142,0.162,0.226c0.042,0.055,0.084,0.109,0.126,0.164c0.079,0.091,0.305,0.215,0.418,0.245
			c0.097,0.017,0.194,0.032,0.29,0.049c0.059,0.019,0.117,0.037,0.175,0.056c0.096,0.017,0.236,0.006,0.336-0.008
			c0.095-0.013,0.154-0.061,0.244-0.081c0.097-0.021,0.192-0.042,0.289-0.064c0.057-0.023,0.114-0.045,0.171-0.069
			c0.069-0.019,0.139-0.037,0.207-0.055c0.107-0.042,0.228-0.136,0.305-0.231c0.062-0.076,0.107-0.188,0.118-0.287
			c0.013-0.118-0.108-0.5,0.065-0.509c0.063-0.004,0.119,0.044,0.176,0.06c0.21,0.061,0.571,0.252,0.622,0.497
			c0.047,0.223-0.19,0.407-0.003,0.586c0.031,0.029,0.065,0.059,0.103,0.071c0.09,0.027,0.249,0.023,0.329-0.02
			c0.081-0.044,0.136-0.129,0.203-0.194c0.16-0.153,0.342-0.294,0.513-0.431c0.086-0.07,0.177-0.155,0.275-0.202
			c0.242-0.119,0.487,0.01,0.692,0.112c0.05,0.025,0.089,0.058,0.147,0.073c0.071,0.013,0.141,0.024,0.212,0.037
			c0.074,0.021,0.14,0.051,0.22,0.061c0.165,0.018,0.328,0.035,0.493,0.053c0.089,0.014,0.176,0.027,0.265,0.04
			c0.238,0.014,0.465,0.005,0.708,0.011c0.237,0.016,0.474,0.031,0.711,0.046c0.235-0.008,0.471-0.016,0.707-0.024
			c0.47-0.01,0.947,0.001,1.431-0.024c0.103-0.008,0.205-0.018,0.307-0.026c0.196-0.008,0.39-0.015,0.584-0.022
			c0.279-0.006,0.961,0.026,1.104-0.204C62.088,16.361,61.728,16.348,61.619,16.398 M39.757,14.139
			c0.016-0.043,0.032-0.085,0.047-0.127c0.056-0.089,0.132-0.162,0.182-0.253c0.045-0.084,0.095-0.167,0.133-0.256
			c0.045-0.106,0.126-0.197,0.186-0.295c0.023-0.045,0.045-0.089,0.068-0.134c0.055-0.076,0.11-0.152,0.165-0.229
			c0.094-0.153,0.186-0.306,0.278-0.459c0.059-0.073,0.118-0.146,0.177-0.219c0.065-0.085,0.107-0.188,0.173-0.273
			c0.091-0.12,0.192-0.226,0.28-0.345c0.164-0.221,0.316-0.471,0.506-0.675c0.062-0.056,0.123-0.114,0.184-0.17
			c0.066-0.069,0.121-0.156,0.203-0.211c0.044-0.024,0.089-0.047,0.133-0.07c0.036-0.002,0.072-0.003,0.108-0.005
			c0.003,0.078,0.035,0.133,0.002,0.212c-0.087,0.13-0.175,0.259-0.262,0.389c-0.061,0.102-0.117,0.214-0.177,0.316
			c-0.053,0.089-0.115,0.169-0.161,0.261c-0.023,0.05-0.045,0.1-0.068,0.149c-0.049,0.071-0.121,0.125-0.173,0.192
			c-0.074,0.104-0.148,0.208-0.222,0.312c-0.146,0.228-0.303,0.449-0.45,0.68c-0.096,0.15-0.178,0.311-0.277,0.46
			c-0.067,0.1-0.158,0.191-0.242,0.278c-0.032,0.055-0.065,0.109-0.097,0.164c-0.08,0.11-0.621,0.822-0.75,0.726
			C39.579,14.466,39.724,14.229,39.757,14.139 M36.64,15.339c0.036,0.004,0.072,0.007,0.108,0.011
			c0.002,0.051,0.019,0.098,0.007,0.15c-0.057,0.25-0.368,0.455-0.499,0.67c-0.043,0.002-0.078-0.026-0.11-0.042
			C36.138,15.882,36.541,15.567,36.64,15.339 M33.233,16.593c-0.072,0.026-0.145,0.052-0.217,0.077
			c-0.115,0.048-0.222,0.113-0.328,0.174c-0.033,0.016-0.066,0.031-0.099,0.047c-0.117,0.005-0.179,0.062-0.275,0.099
			c-0.064,0.023-0.128,0.044-0.192,0.067c-0.123,0.055-0.239,0.131-0.357,0.193c-0.109,0.056-0.229,0.073-0.327,0.147
			c-0.035,0.007-0.071,0.013-0.107,0.019c-0.123,0.005-0.189,0.067-0.289,0.105c-0.131,0.05-0.263,0.101-0.394,0.152
			c-0.143,0.006-0.196,0.069-0.306,0.112c-0.075,0.023-0.15,0.045-0.224,0.068c-0.052,0.023-0.104,0.045-0.156,0.068
			c-0.146,0.044-0.309,0.072-0.437,0.149c-0.036,0.007-0.071,0.013-0.107,0.02c-0.143,0.005-0.317,0.039-0.427,0.108
			c-0.036,0.007-0.071,0.013-0.107,0.02c-0.093,0.004-0.214-0.008-0.292,0.026c-0.106,0.004-0.198,0.044-0.273,0.103
			c-0.031,0.006-0.061,0.012-0.092,0.019c-0.036,0.006-0.071,0.013-0.107,0.019c-0.104,0.004-0.174,0.05-0.261,0.079
			c-0.03,0.009-0.06,0.018-0.089,0.026c-0.072,0.003-0.174-0.008-0.23,0.024c-0.074,0.003-0.186-0.008-0.246,0.025
			c-0.326,0.013-0.657,0.009-0.968,0.022c-0.204,0.008-0.445,0.041-0.63,0.001c-0.059-0.013-0.213-0.093-0.243-0.143
			c-0.274-0.46,0.552-0.911,0.836-1.083c0.029-0.024,0.058-0.049,0.087-0.073c0.047-0.023,0.094-0.046,0.141-0.069
			c0.103-0.061,0.198-0.13,0.308-0.181c0.065-0.021,0.129-0.042,0.194-0.062c0.145-0.072,0.297-0.149,0.455-0.198
			c0.11-0.025,0.22-0.051,0.329-0.076c0.038-0.021,0.074-0.042,0.113-0.062c0.073-0.024,0.147-0.048,0.221-0.072
			c0.042-0.021,0.085-0.042,0.127-0.063c0.088-0.029,0.2-0.025,0.284-0.06c0.053-0.026,0.106-0.052,0.159-0.078
			c0.081-0.022,0.16-0.044,0.24-0.065c0.06-0.023,0.119-0.063,0.183-0.077c0.111-0.019,0.222-0.039,0.333-0.058
			c0.097-0.026,0.195-0.051,0.292-0.076c0.194-0.023,0.395-0.023,0.582-0.061c0.076-0.015,0.126-0.072,0.199-0.089
			c0.304-0.073,0.681-0.03,0.997-0.072c0.051-0.007,0.102-0.016,0.153-0.024c0.153,0.004,0.308,0.008,0.462,0.013
			c0.303-0.011,0.605-0.023,0.907-0.035c0.107-0.012,0.214-0.024,0.321-0.037c0.093,0.005,0.186,0.01,0.278,0.014
			c0.123-0.002,0.253,0.002,0.37-0.001c0.126-0.003,0.23-0.025,0.339,0.021C34.369,15.943,33.387,16.513,33.233,16.593
			 M41.505,16.789c-0.05,0.026-0.134,0.054-0.181,0.008c-0.034-0.032-0.036-0.079-0.017-0.119c0.082-0.181,0.295-0.294,0.43-0.425
			c0.127-0.124,0.224-0.239,0.374-0.321c0.049,0.011,0.1,0.019,0.092,0.086C42.187,16.151,41.635,16.715,41.505,16.789
			 M45.869,18.727c-0.019,0.075-0.051,0.141-0.063,0.224c-0.018,0.122-0.01,0.249-0.031,0.367c-0.034,0.183-0.097,0.367-0.132,0.548
			c-0.013,0.134-0.027,0.266-0.04,0.399c-0.022,0.176-0.133,0.327-0.187,0.489c-0.013,0.05-0.026,0.1-0.04,0.149
			c-0.023,0.048-0.045,0.095-0.068,0.143c-0.018,0.06-0.036,0.12-0.053,0.18c-0.017,0.03-0.034,0.06-0.051,0.09
			c-0.021,0.064-0.04,0.128-0.06,0.191c-0.103,0.226-0.222,0.45-0.325,0.677c-0.024,0.03-0.048,0.06-0.071,0.09
			c-0.029,0.047-0.058,0.094-0.086,0.142c-0.016,0.048-0.031,0.097-0.047,0.144c-0.024,0.049-0.048,0.098-0.072,0.147
			c-0.018,0.081-0.035,0.161-0.053,0.242c-0.032,0.063-0.064,0.126-0.096,0.189c-0.097,0.146-0.194,0.292-0.29,0.438
			c-0.099,0.165-0.184,0.344-0.293,0.504c-0.053,0.064-0.106,0.127-0.159,0.19c-0.056,0.082-0.109,0.178-0.176,0.254
			c-0.079,0.079-0.159,0.158-0.238,0.237c-0.089,0.076-0.195,0.133-0.281,0.217c-0.141,0.137-0.265,0.278-0.417,0.397
			c-0.103,0.053-0.207,0.105-0.311,0.158c-0.146,0.005-0.276-0.056-0.333-0.187c-0.089-0.202-0.014-0.471,0.018-0.665
			c0.047-0.293,0.063-0.581,0.139-0.862c0.027-0.055,0.054-0.111,0.08-0.166c0.021-0.059,0.04-0.118,0.06-0.177
			c0.044-0.093,0.059-0.184,0.097-0.282c0.071-0.182,0.174-0.348,0.26-0.524c0.024-0.06,0.047-0.119,0.07-0.179
			c0.063-0.092,0.126-0.185,0.189-0.278c0.05-0.108,0.1-0.216,0.15-0.324c0.055-0.1,0.116-0.186,0.166-0.289
			c0.016-0.036,0.031-0.072,0.046-0.107c0.06-0.087,0.119-0.173,0.18-0.26c0.139-0.225,0.277-0.452,0.421-0.677
			c0.024-0.054,0.048-0.108,0.073-0.161c0.044-0.073,0.089-0.145,0.132-0.218c0.107-0.157,0.214-0.315,0.321-0.473
			c0.028-0.031,0.056-0.063,0.084-0.095c0.029-0.047,0.058-0.093,0.087-0.14c0.023-0.049,0.045-0.099,0.068-0.149
			c0.056-0.066,0.111-0.133,0.167-0.199c0.096-0.134,0.167-0.284,0.261-0.415c0.131-0.184,0.261-0.368,0.391-0.552
			c0.024-0.048,0.048-0.098,0.071-0.146c0.031-0.046,0.061-0.092,0.092-0.138c0.047-0.055,0.093-0.111,0.139-0.166
			c0.062,0,0.119,0,0.17,0.024c0.024-0.001,0.016,0.008,0.019,0.029c0.019,0.198,0.029,0.42,0.037,0.631
			C45.888,18.499,45.893,18.627,45.869,18.727 M51.607,16.568c-0.063,0.102-0.182,0.141-0.274,0.203
			c-0.035,0.006-0.071,0.013-0.106,0.019c-0.04,0.007-0.082,0.013-0.123,0.021c-0.09,0.003-0.194,0.037-0.258,0.087
			c-0.031,0.007-0.061,0.012-0.092,0.019c-0.14,0.005-0.313,0.029-0.443,0.006c-0.065-0.011-0.12-0.045-0.179-0.065
			c-0.058-0.021-0.117-0.042-0.176-0.063c-0.152-0.086-0.287-0.291-0.189-0.47c0.061-0.111,0.251-0.186,0.356-0.246
			c0.094-0.055,0.182-0.116,0.274-0.173c0.057-0.028,0.113-0.057,0.171-0.086c0.132-0.084,0.271-0.21,0.362-0.342
			c0.087-0.003,0.171-0.002,0.246,0.024c0.131,0.044,0.368,0.221,0.423,0.354c0.04,0.095,0.044,0.238,0.05,0.35
			C51.657,16.331,51.667,16.47,51.607,16.568"/>
		<path d="M24.917,13.071c-0.222,0.008-0.496,0.383-0.647,0.542c-0.074,0.077-0.168,0.133-0.244,0.205
			c-0.088,0.083-0.153,0.19-0.235,0.271c-0.082,0.077-0.164,0.155-0.246,0.233c-0.036,0.05-0.073,0.099-0.11,0.149
			c-0.116,0.109-0.246,0.205-0.356,0.324c-0.208,0.224-0.397,0.454-0.618,0.658c-0.131,0.12-0.284,0.217-0.428,0.317
			c-0.072,0.06-0.145,0.119-0.218,0.18c-0.065,0.044-0.147,0.054-0.219,0.085c-0.04,0.022-0.081,0.043-0.121,0.065
			c-0.051,0.021-0.103,0.041-0.155,0.061c-0.031,0.021-0.061,0.04-0.093,0.059c-0.137,0.059-0.298,0.079-0.421,0.163
			c-0.049,0.002-0.114-0.001-0.153,0.022c-0.107,0.004-0.211,0.044-0.289,0.103c-0.035,0.007-0.071,0.013-0.106,0.019
			c-0.061,0.005-0.123,0.01-0.185,0.016c-0.097,0.005-0.219-0.021-0.307,0.018c-0.224,0.009-0.355,0.202-0.512,0.327
			c-0.048,0.031-0.096,0.061-0.144,0.091c-0.135,0.103-0.279,0.218-0.399,0.341c-0.055,0.055-0.099,0.117-0.15,0.172
			c-0.152,0.164-0.34,0.305-0.506,0.452c-0.066,0.058-0.123,0.123-0.194,0.173c-0.11,0.076-0.236,0.133-0.35,0.2
			c-0.082,0.048-0.165,0.092-0.244,0.142c-0.032,0.023-0.064,0.044-0.097,0.067c-0.102,0.047-0.203,0.086-0.297,0.146
			c-0.055,0.002-0.123-0.001-0.169,0.022c-0.12,0.005-0.272,0.015-0.366-0.04c-0.045-0.027-0.07-0.082-0.085-0.128
			c-0.035-0.103-0.013-0.23,0.026-0.319c0.066-0.151,0.18-0.272,0.284-0.399c0.242-0.297,0.518-0.643,0.851-0.807
			c0.086-0.043,0.212-0.086,0.238,0.042c0.009,0.042,0.019,0.085,0.028,0.127c0.049,0.094,0.203,0.172,0.3,0.106
			c0.098-0.068,0.321-0.313,0.354-0.418c0.069-0.219-0.047-0.434-0.269-0.466c-0.05-0.008-0.125-0.013-0.169,0.008
			c-0.133,0.005-0.21,0.052-0.318,0.094c-0.055,0.018-0.111,0.036-0.166,0.054c-0.155,0.068-0.31,0.168-0.448,0.266
			c-0.115,0.081-0.205,0.191-0.311,0.284c-0.153,0.132-0.321,0.269-0.49,0.376c-0.118,0.074-0.25,0.134-0.366,0.215
			c-0.082,0.058-0.166,0.121-0.253,0.173c-0.047,0.023-0.095,0.045-0.143,0.068c-0.095,0.056-0.185,0.121-0.279,0.179
			c-0.094,0.056-0.191,0.095-0.279,0.161c-0.031,0.006-0.061,0.013-0.092,0.019c-0.117,0.004-0.181-0.076-0.128-0.186
			c0.034-0.035,0.067-0.07,0.101-0.106c0.127-0.16,0.328-0.297,0.385-0.495c0.033-0.12-0.014-0.203-0.056-0.303
			c-0.034-0.079-0.055-0.175-0.138-0.219c-0.048-0.024-0.127-0.041-0.182-0.014c-0.135,0.005-0.202,0.063-0.307,0.113
			c-0.275,0.128-0.54,0.306-0.754,0.536c-0.107,0.143-0.216,0.285-0.324,0.427c-0.08,0.084-0.161,0.168-0.24,0.251
			c-0.063,0.081-0.126,0.161-0.189,0.242c-0.08,0.107-0.187,0.206-0.271,0.311c-0.076,0.094-0.091,0.229-0.183,0.319
			c-0.076,0.074-0.19,0.104-0.277,0.16c-0.124,0.005-0.318,0.067-0.411,0.123c-0.035,0.006-0.071,0.013-0.106,0.019
			c-0.036,0.007-0.072,0.013-0.107,0.019c-0.031,0.006-0.061,0.012-0.092,0.019c-0.061,0.002-0.135,0.009-0.183,0.038
			c-0.074,0.003-0.172,0.02-0.229,0.055c-0.035,0.007-0.071,0.013-0.107,0.02c-0.122,0.005-0.195,0.052-0.293,0.092
			c-0.058,0.019-0.116,0.039-0.175,0.057c-0.046,0.024-0.093,0.049-0.139,0.073c-0.046,0.012-0.091,0.024-0.137,0.036
			c-0.072,0.003-0.189,0.011-0.217-0.06c-0.082-0.201,0.137-0.421,0.219-0.574c0.066-0.123,0.137-0.238,0.208-0.358
			c0.024-0.053,0.047-0.105,0.071-0.157c0.089-0.124,0.178-0.248,0.267-0.372c0.025-0.048,0.05-0.096,0.074-0.144
			c0.16-0.217,0.326-0.425,0.439-0.663c0.096-0.2,0.281-0.334,0.407-0.521c0.088-0.147,0.175-0.295,0.263-0.443
			c0.086-0.134,0.18-0.258,0.261-0.391c0.025-0.057,0.05-0.116,0.076-0.174c0.053-0.087,0.116-0.166,0.169-0.252
			c0.022-0.037,0.042-0.073,0.063-0.11c0.055-0.073,0.128-0.125,0.177-0.203c0.094-0.152,0.158-0.315,0.257-0.463
			c0.124-0.188,0.277-0.359,0.392-0.551c0.155-0.26,0.296-0.53,0.474-0.78c0.035-0.06,0.07-0.119,0.105-0.179
			c0.022-0.06,0.025-0.122,0.06-0.174c0.053-0.063,0.106-0.127,0.159-0.19c0.092-0.133,0.184-0.266,0.277-0.399
			c0.055-0.063,0.108-0.125,0.163-0.188c0.022-0.05,0.044-0.099,0.066-0.149c0.092-0.147,0.185-0.294,0.278-0.441
			c0.022-0.05,0.044-0.1,0.066-0.15c0.09-0.126,0.18-0.253,0.27-0.379c0.02-0.047,0.04-0.095,0.061-0.143
			c0.137-0.216,0.266-0.433,0.388-0.658c0.083-0.153,0.166-0.321,0.228-0.484c0.016-0.058,0.032-0.116,0.048-0.175
			C16,9.917,16.02,9.881,16.041,9.845c0.016-0.053,0.031-0.108,0.046-0.161c0.018-0.034,0.036-0.069,0.055-0.103
			c0.037-0.114,0.073-0.228,0.109-0.341c0.016-0.107,0.031-0.215,0.046-0.321c0.021-0.053,0.042-0.106,0.062-0.159
			c0.032-0.14,0.028-0.383-0.022-0.518c-0.071-0.193-0.3-0.262-0.494-0.261c-0.025,0.011-0.05,0.023-0.076,0.034
			c-0.154,0.006-0.287,0.054-0.395,0.138c-0.108,0.004-0.155,0.053-0.233,0.106c-0.136,0.091-0.283,0.19-0.402,0.314
			c-0.096,0.1-0.189,0.213-0.3,0.296c-0.048,0.025-0.097,0.051-0.145,0.077c-0.147,0.098-0.278,0.194-0.41,0.316
			c-0.31,0.285-0.656,0.533-0.969,0.811c-0.073,0.086-0.147,0.17-0.219,0.255c-0.125,0.111-0.251,0.224-0.376,0.335
			c-0.059,0.068-0.118,0.136-0.177,0.204c-0.138,0.105-0.277,0.21-0.415,0.315c-0.089,0.098-0.18,0.198-0.269,0.296
			c-0.094,0.086-0.187,0.172-0.281,0.258c-0.118,0.095-0.242,0.192-0.352,0.299c-0.072,0.07-0.11,0.153-0.177,0.221
			c-0.114,0.114-0.245,0.191-0.371,0.28c-0.204,0.144-0.386,0.324-0.531,0.532c-0.04,0.056-0.094,0.087-0.123,0.15
			c-0.113,0.005-0.263,0.183-0.345,0.259c-0.148,0.131-0.295,0.261-0.443,0.392c-0.205,0.195-0.388,0.404-0.592,0.592
			c-0.166,0.151-0.302,0.332-0.471,0.484c-0.108,0.097-0.228,0.174-0.347,0.254c-0.049,0.03-0.099,0.058-0.149,0.088
			c-0.177,0.177-0.354,0.355-0.53,0.532c-0.168,0.151-0.363,0.289-0.528,0.446c-0.14,0.136-0.282,0.272-0.423,0.408
			c-0.084,0.066-0.169,0.131-0.253,0.197c-0.096,0.103-0.193,0.206-0.289,0.309c-0.088,0.077-0.176,0.153-0.264,0.231
			c-0.067,0.086-0.134,0.173-0.201,0.259c-0.093,0.11-0.197,0.202-0.299,0.302c-0.161,0.157-0.265,0.348-0.394,0.524
			c-0.098,0.133-0.238,0.273-0.284,0.429c-0.039,0.134-0.02,0.269,0.078,0.367c0.066,0.065,0.125,0.099,0.224,0.105
			c0.163,0.009,0.224-0.051,0.339-0.122c0.047-0.03,0.091-0.046,0.129-0.091c0.062-0.074,0.052-0.184,0.068-0.279
			c0.02-0.063,0.039-0.127,0.06-0.191c0.022-0.08,0.026-0.157,0.068-0.227c0.176-0.304,0.467-0.587,0.707-0.855
			c0.192-0.215,0.36-0.436,0.561-0.637c0.118-0.12,0.246-0.247,0.361-0.378c0.031-0.041,0.062-0.081,0.092-0.122
			c0.127-0.11,0.253-0.221,0.38-0.331c0.088-0.105,0.176-0.211,0.265-0.316c0.172-0.149,0.355-0.271,0.524-0.422
			c0.064-0.063,0.127-0.127,0.192-0.19c0.087-0.067,0.175-0.135,0.263-0.203c0.226-0.207,0.429-0.445,0.652-0.656
			c0.078-0.075,0.183-0.138,0.263-0.216c0.057-0.065,0.115-0.13,0.173-0.195c0.137-0.139,0.289-0.273,0.419-0.413
			c0.091-0.098,0.16-0.203,0.258-0.295c0.13-0.117,0.26-0.234,0.39-0.35c0.082-0.074,0.19-0.13,0.272-0.21
			c0.139-0.137,0.278-0.274,0.417-0.412c0.045-0.038,0.089-0.076,0.134-0.114c0.073-0.086,0.145-0.172,0.218-0.258
			c0.131-0.111,0.261-0.223,0.392-0.334c0.399-0.391,0.834-0.742,1.25-1.111c0.119-0.106,0.239-0.213,0.359-0.32
			c0.076-0.071,0.14-0.153,0.219-0.224c0.076-0.064,0.151-0.128,0.227-0.192c0.146-0.14,0.273-0.305,0.429-0.43
			c0.089-0.071,0.18-0.123,0.272-0.184c0.084-0.064,0.167-0.127,0.251-0.191c0.11-0.077,0.245-0.137,0.345-0.231
			c0.116-0.111,0.734-0.459,0.822-0.172c0.02,0.065,0.018,0.152,0.021,0.227c0.004,0.1,0.019,0.213,0.001,0.305
			c-0.013,0.066-0.048,0.117-0.069,0.177c-0.015,0.061-0.031,0.123-0.046,0.184c-0.051,0.123-0.119,0.238-0.168,0.361
			c-0.017,0.05-0.034,0.1-0.052,0.15c-0.052,0.109-0.124,0.215-0.169,0.325c-0.056,0.137-0.1,0.296-0.173,0.426
			c-0.077,0.139-0.168,0.258-0.261,0.391c-0.077,0.111-0.118,0.249-0.189,0.364c-0.052,0.083-0.119,0.151-0.172,0.236
			c-0.122,0.215-0.244,0.43-0.366,0.644c-0.076,0.118-0.2,0.212-0.274,0.333c-0.022,0.053-0.043,0.105-0.064,0.157
			c-0.027,0.041-0.055,0.082-0.083,0.123c-0.051,0.091-0.1,0.188-0.153,0.277c-0.196,0.327-0.419,0.628-0.614,0.955
			c-0.105,0.176-0.176,0.365-0.29,0.537c-0.07,0.108-0.141,0.215-0.211,0.322c-0.092,0.12-0.197,0.225-0.279,0.349
			c-0.067,0.102-0.11,0.222-0.181,0.324c-0.12,0.171-0.266,0.328-0.378,0.504c-0.021,0.045-0.043,0.09-0.065,0.135
			c-0.071,0.13-0.144,0.254-0.215,0.385c-0.067,0.089-0.134,0.179-0.2,0.268c-0.088,0.147-0.177,0.294-0.266,0.441
			c-0.081,0.118-0.202,0.195-0.278,0.316c-0.053,0.101-0.107,0.202-0.16,0.302c-0.077,0.121-0.154,0.242-0.231,0.363
			c-0.059,0.077-0.119,0.154-0.18,0.231c-0.099,0.155-0.191,0.309-0.287,0.464c-0.088,0.135-0.176,0.269-0.265,0.403
			c-0.062,0.115-0.106,0.241-0.169,0.352c-0.024,0.035-0.047,0.071-0.07,0.106c-0.048,0.095-0.087,0.202-0.16,0.286
			c-0.129,0.148-0.288,0.266-0.446,0.369c-0.044,0.024-0.088,0.048-0.132,0.072c-0.263,0.184-0.518,0.369-0.785,0.547
			c-0.056,0.024-0.113,0.049-0.168,0.074c-0.06,0.038-0.119,0.076-0.179,0.115c-0.127,0.103-0.254,0.206-0.382,0.309
			c-0.047,0.031-0.095,0.061-0.143,0.092c-0.071,0.06-0.131,0.136-0.206,0.19c-0.238,0.172-0.49,0.347-0.712,0.545
			c-0.145,0.147-0.29,0.294-0.436,0.439c-0.116,0.102-0.231,0.203-0.346,0.304c-0.169,0.171-0.301,0.368-0.454,0.544
			c-0.127,0.143-0.255,0.286-0.383,0.429c-0.06,0.073-0.112,0.165-0.175,0.24c-0.069,0.078-0.14,0.156-0.209,0.234
			c-0.061,0.087-0.082,0.188-0.144,0.271c-0.053,0.068-0.107,0.135-0.161,0.203c-0.091,0.15-0.183,0.298-0.273,0.447
			c-0.051,0.08-0.111,0.142-0.153,0.226c-0.022,0.06-0.045,0.119-0.068,0.18c-0.056,0.103-0.112,0.207-0.168,0.31
			c-0.021,0.073-0.042,0.147-0.063,0.22c-0.042,0.09-0.106,0.169-0.148,0.258C2.806,26.923,2.797,27,2.783,27.067
			c-0.025,0.079-0.05,0.158-0.074,0.236c-0.015,0.097-0.007,0.184-0.037,0.273c-0.023,0.045-0.045,0.09-0.068,0.134
			C2.59,27.79,2.576,27.87,2.563,27.95c-0.019,0.044-0.039,0.087-0.058,0.13c-0.054,0.175-0.027,0.355,0.129,0.459
			c0.118,0.078,0.386,0.069,0.508-0.003c0.116-0.068,0.225-0.199,0.31-0.302c0.16-0.197,0.338-0.374,0.501-0.573
			c0.026-0.045,0.052-0.09,0.077-0.136c0.034-0.044,0.066-0.088,0.099-0.133c0.034-0.032,0.068-0.064,0.102-0.096
			c0.109-0.126,0.229-0.249,0.314-0.39c0.023-0.039,0.045-0.078,0.068-0.118c0.089-0.089,0.179-0.18,0.268-0.269
			c0.062-0.077,0.12-0.166,0.189-0.24c0.054-0.058,0.106-0.118,0.16-0.176c0.058-0.08,0.111-0.179,0.179-0.252
			c0.121-0.136,0.241-0.271,0.362-0.406c0.027-0.049,0.055-0.099,0.082-0.148c0.114-0.162,0.226-0.32,0.349-0.476
			c0.158-0.202,0.335-0.368,0.485-0.571c0.101-0.137,0.19-0.293,0.294-0.428c0.169-0.223,0.338-0.445,0.507-0.668
			c0.094-0.144,0.158-0.302,0.267-0.439c0.063-0.065,0.126-0.129,0.188-0.194c0.192-0.243,0.331-0.519,0.5-0.772
			c0.063-0.069,0.125-0.138,0.188-0.207c0.147-0.187,0.278-0.376,0.443-0.554c0.115-0.123,0.194-0.259,0.339-0.349
			c0.155-0.096,0.32-0.197,0.489-0.265c0.066-0.021,0.13-0.041,0.195-0.061c0.042-0.023,0.084-0.046,0.126-0.069
			c0.069-0.021,0.138-0.044,0.208-0.065c0.145-0.063,0.305-0.129,0.461-0.17c0.126-0.025,0.252-0.051,0.378-0.076
			c0.092-0.035,0.184-0.069,0.277-0.103c0.111-0.019,0.223-0.038,0.334-0.057c0.062-0.024,0.123-0.047,0.184-0.071
			c0.139-0.026,0.333-0.034,0.474-0.018c0.149,0.016,0.295,0.079,0.445,0.015c0.349-0.15,0.588-0.499,0.935-0.654
			c0.129-0.058,0.27,0.002,0.398,0.002c0.111-0.001,0.269-0.055,0.361-0.106c0.085-0.048,0.154-0.118,0.237-0.173
			c0.108-0.072,0.224-0.131,0.333-0.202c0.091-0.06,0.234-0.197,0.351-0.195c0.186,0.002,0.171,0.309,0.244,0.42
			c0.098,0.151,0.3,0.297,0.468,0.347c0.143,0.042,0.381,0.029,0.515-0.031c0.051-0.027,0.102-0.053,0.152-0.08
			c0.149-0.06,0.293-0.107,0.437-0.176c0.124-0.06,0.175-0.119,0.339-0.131c0.158-0.011,0.261,0.126,0.383,0.197
			c0.148,0.084,0.377,0.071,0.547,0.03c0.381-0.091,0.683-0.397,0.952-0.687c0.061-0.067,0.134-0.115,0.197-0.187
			c0.064-0.074,0.084-0.145,0.123-0.229c0.026-0.048,0.053-0.097,0.079-0.145c0.031-0.078,0.061-0.157,0.091-0.236
			c0.023-0.095-0.011-0.242,0.048-0.32c0.076-0.102,0.175-0.139,0.278-0.191c0.038-0.021,0.075-0.042,0.113-0.064
			c0.069-0.019,0.138-0.038,0.207-0.056c0.048-0.025,0.097-0.05,0.145-0.075c0.063-0.02,0.126-0.04,0.189-0.06
			c0.116-0.047,0.201-0.132,0.352-0.118c0.306,0.029-0.081,0.57-0.113,0.673c-0.041,0.127-0.123,0.231-0.183,0.348
			c-0.04,0.076-0.04,0.161-0.069,0.242c-0.022,0.049-0.044,0.099-0.066,0.149c-0.024,0.098-0.015,0.208-0.011,0.322
			c0.005,0.119-0.002,0.248,0.039,0.348c0.129,0.321,0.528,0.455,0.882,0.396c0.275-0.047,0.38-0.215,0.576-0.395
			c0.166-0.153,0.352-0.319,0.473-0.508c0.078-0.123,0.126-0.26,0.176-0.395c0.029-0.08,0.076-0.139,0.094-0.227
			c0.021-0.106,0.012-0.22,0.014-0.336c0-0.111,0.035-0.223,0.006-0.338c-0.056-0.225-0.194-0.441-0.34-0.618
			c-0.057-0.069-0.15-0.122-0.188-0.203c-0.031-0.065-0.034-0.156-0.005-0.219c0.062-0.144,0.208-0.261,0.321-0.368
			c0.106-0.102,0.193-0.214,0.3-0.315c0.071-0.068,0.159-0.121,0.228-0.19c0.16-0.163,0.317-0.31,0.474-0.479
			c0.098-0.111,0.196-0.223,0.294-0.334c0.11-0.102,0.219-0.202,0.33-0.304C24.834,13.686,25.358,13.142,24.917,13.071
			 M7.641,22.147C7.62,22.2,7.6,22.253,7.579,22.306c-0.141,0.251-0.353,0.45-0.503,0.696C7.02,23.091,6.98,23.189,6.92,23.278
			c-0.038,0.055-0.084,0.102-0.123,0.153c-0.12,0.156-0.207,0.324-0.337,0.473c-0.132,0.144-0.265,0.287-0.397,0.431
			c-0.073,0.092-0.106,0.209-0.176,0.299c-0.097,0.101-0.195,0.202-0.293,0.303c-0.098,0.132-0.172,0.274-0.272,0.403
			c-0.057,0.065-0.115,0.13-0.173,0.195c-0.057,0.081-0.115,0.161-0.172,0.243c-0.054,0.063-0.108,0.125-0.163,0.188
			c-0.098,0.127-0.196,0.255-0.294,0.382c-0.024,0.022-0.048,0.044-0.071,0.066c-0.133,0.168-0.267,0.329-0.417,0.491
			c-0.112,0.133-0.224,0.265-0.337,0.397c-0.133,0.192-0.21,0.308-0.407,0.44c-0.097,0.004-0.172,0.002-0.247-0.037
			c-0.008-0.198,0.075-0.36,0.147-0.523c0.018-0.034,0.035-0.069,0.053-0.103c0.029-0.105,0.017-0.23,0.053-0.333
			c0.034-0.098,0.105-0.171,0.158-0.261c0.02-0.043,0.039-0.087,0.058-0.131c0.055-0.09,0.11-0.182,0.166-0.273
			c0.022-0.053,0.043-0.107,0.066-0.16c0.14-0.258,0.285-0.517,0.445-0.763c0.053-0.084,0.127-0.147,0.187-0.223
			c0.086-0.113,0.171-0.227,0.258-0.341c0.096-0.103,0.192-0.207,0.289-0.31c0.193-0.237,0.39-0.464,0.6-0.691
			c0.052-0.065,0.103-0.132,0.155-0.197c0.303-0.307,0.625-0.606,0.964-0.87c0.084-0.067,0.178-0.122,0.264-0.187
			c0.126-0.098,0.234-0.22,0.365-0.31c0.052-0.023,0.103-0.047,0.155-0.07c0.052-0.031,0.103-0.061,0.154-0.091
			c0.052,0,0.148-0.011,0.165,0.046C7.769,22.009,7.675,22.074,7.641,22.147 M13.748,18.543c-0.074,0.079-0.166,0.134-0.239,0.207
			c-0.437,0.017,0.172-0.634,0.27-0.728c0.044-0.034,0.087-0.069,0.129-0.103c0.04,0.015,0.08,0.032,0.094,0.078
			C14.042,18.121,13.833,18.451,13.748,18.543 M19.656,17.532c-0.006,0.04-0.035,0.074-0.051,0.109
			c-0.071,0.149-0.152,0.292-0.268,0.417c-0.039,0.04-0.092,0.053-0.137,0.083c-0.152,0.102-0.306,0.222-0.476,0.289
			c-0.048,0.018-0.127,0.023-0.168-0.007c-0.203-0.148,0.074-0.368,0.164-0.477c0.096-0.118,0.183-0.244,0.294-0.35
			c0.128-0.123,0.272-0.216,0.412-0.316c0.079,0.004,0.118,0.016,0.169,0.073C19.644,17.407,19.668,17.449,19.656,17.532
			 M22.867,17.336c-0.029,0.235-0.07,0.44-0.213,0.623c-0.155,0.197-0.376,0.374-0.579,0.503c-0.071,0.038-0.142,0.075-0.214,0.113
			c-0.28,0.01-0.378-0.134-0.383-0.402c-0.003-0.103,0.001-0.22,0.031-0.31c0.042-0.129,0.113-0.254,0.163-0.379
			c0.121-0.31,0.271-0.736,0.575-0.926c0.13-0.005,0.277-0.025,0.379,0.028C22.91,16.733,22.903,17.045,22.867,17.336"/>
	</g>
	<g display="inline">
		<path d="M22.975,20.608h0.068c0.25,0,0.552,0.037,0.552,0.355c0,0.323-0.279,0.371-0.538,0.372h-0.081L22.975,20.608z
			 M22.975,21.56h0.146c0.385,0,0.71-0.165,0.71-0.593c0-0.371-0.194-0.587-0.819-0.586l-0.291,0l0.002,2.03h0.253L22.975,21.56z"/>
		<path d="M27.028,21.669l-0.722,0l0.36-0.821L27.028,21.669z M27.132,21.9l0.232,0.509l0.272,0l-0.971-2.115l-0.968,2.117h0.272
			l0.231-0.509L27.132,21.9z"/>
		<path d="M30.131,20.603l0.068,0c0.25,0,0.552,0.046,0.552,0.363c0,0.323-0.28,0.372-0.538,0.372h-0.081L30.131,20.603z
			 M30.5,21.524c0.294-0.035,0.487-0.278,0.487-0.568c0-0.194-0.097-0.385-0.266-0.485c-0.162-0.091-0.355-0.094-0.536-0.094
			l-0.307,0l0.001,2.03l0.253,0l0-0.859h0.105l0.598,0.858l0.307,0L30.5,21.524z"/>
		<rect x="33.405" y="20.375" width="0.253" height="2.03"/>
		<path d="M37.011,20.758c-0.075-0.127-0.172-0.191-0.326-0.191c-0.161,0-0.339,0.11-0.339,0.288c0,0.159,0.156,0.242,0.283,0.29
			l0.145,0.056c0.288,0.113,0.504,0.271,0.504,0.611c0,0.369-0.285,0.633-0.648,0.633c-0.329,0-0.584-0.242-0.628-0.568l0.256-0.054
			c-0.002,0.223,0.176,0.385,0.393,0.385c0.218,0,0.374-0.183,0.374-0.396c0-0.218-0.175-0.311-0.35-0.385l-0.14-0.059
			c-0.231-0.099-0.442-0.231-0.442-0.514c0-0.328,0.29-0.525,0.597-0.525c0.226,0,0.412,0.11,0.522,0.307L37.011,20.758z"/>
	</g>
</g>
</svg>
