<?xml version="1.0" encoding="utf-8"?>
<!-- Generator: Adobe Illustrator 21.1.0, SVG Export Plug-In . SVG Version: 6.00 Build 0)  -->
<svg version="1.1" id="Layer_1" xmlns="http://www.w3.org/2000/svg" xmlns:xlink="http://www.w3.org/1999/xlink" x="0px" y="0px"
	 viewBox="0 0 71.9 30.6" style="enable-background:new 0 0 71.9 30.6;" xml:space="preserve">
<style type="text/css">
	.st0{display:none;fill:#FFFFFF;}
	.st1{fill:#007DC4;}
	.st2{fill:#FFFFFF;}
</style>
<g>
	<polygon class="st0" points="4.2,-19.5 74.9,-19.5 74.9,51.1 4.2,51.1 	"/>
	<path class="st1" d="M18,5.2c0,2.7-1.5,4.1-3.9,5l4.7,8.5h-6.7c-1.2-2.4-2.5-5-3.8-7.3l-2.5,0v7.3l-5.9,0V0l11.2,0
		C15.5,0,18,1.6,18,5.2L18,5.2z"/>
	<path class="st2" d="M12.1,5.2c-0.6,3-3.7,3.3-6.3,3.4V2.8h2.8C10.4,2.8,12.1,3.3,12.1,5.2L12.1,5.2z"/>
	<path class="st1" d="M71.9,9.7v8c-2.2,0.7-4.6,1.2-7.2,1.2c-3.2,0-8.4-0.8-8.4-4.6c0-4.4,5.5-4.8,10.1-4.7c0-2.1-0.3-2.8-2.5-2.8
		c-2.6,0-3.4,0.3-5,1l-0.8-2.2c0.7-0.3,2.8-1,6.5-1C68.4,4.7,71.9,5.7,71.9,9.7L71.9,9.7z"/>
	<path class="st1" d="M45.9,11.8c0-2.3,0.8-4.3,3.6-4.3c1.2,0,2.4,0.3,3.5,0.8L54,5.7c-1.8-0.8-4.1-1-6.2-1c-3.5,0-7.4,2.2-7.4,7.1
		c0,4.9,3.9,7.1,7.4,7.1c2.2,0,4.5-0.2,6.2-1l-1.1-2.6c-1.1,0.5-2.3,0.7-3.5,0.8C46.6,16.1,45.9,14.2,45.9,11.8L45.9,11.8z"/>
	<path class="st2" d="M66.4,16.3c-2.1,0.3-4.9,0.1-4.9-2.3c0-2.1,3-2.1,4.9-2.1V16.3L66.4,16.3z"/>
	<path class="st1" d="M42,24.8c3,0,5.5-0.2,8.7-0.6l-9.9,6.4c-7.1,0-19.5-3.2-25-3.2c-5.4,0-10.6,0.9-15.8,2v-5.8
		c7.4-2,11.2-2,16.9-2C25.4,21.7,33.5,24.8,42,24.8L42,24.8z"/>
	<polygon class="st1" points="71.9,22.3 71.9,28.7 51.7,28.7 55.6,22.3 	"/>
	<path class="st1" d="M29,4.7c6.5,0,8.6,3.2,8.6,7.1c0,3.9-2.1,7.1-8.6,7.1c-6.2,0-8.6-3.2-8.6-7.1C20.5,8,22.8,4.7,29,4.7L29,4.7z"
		/>
	<path class="st2" d="M29.1,16.4c-3,0-3-1.9-3-4.6c0-2.6-0.1-4.5,3-4.5c3.1,0,3,1.9,3,4.5C32.1,14.5,32.1,16.4,29.1,16.4L29.1,16.4z
		"/>
</g>
</svg>
