<?xml version="1.0" encoding="utf-8"?>
<!-- Generator: Adobe Illustrator 17.0.0, SVG Export Plug-In . SVG Version: 6.00 Build 0)  -->
<!DOCTYPE svg PUBLIC "-//W3C//DTD SVG 1.1//EN" "http://www.w3.org/Graphics/SVG/1.1/DTD/svg11.dtd">
<svg version="1.1" id="Layer_1" xmlns="http://www.w3.org/2000/svg" xmlns:xlink="http://www.w3.org/1999/xlink" x="0px" y="0px"
	 width="117.512px" height="59.33px" viewBox="0 0 117.512 59.33" enable-background="new 0 0 117.512 59.33" xml:space="preserve">
<path d="M40.103,20.122c6.057,1.059,12.289,1.612,18.651,1.612c6.364,0,12.597-0.553,18.657-1.613l0.094,0.486
	c-6.043,1.308-12.316,1.997-18.75,1.997c-6.433,0-12.721-0.689-18.746-1.996L40.103,20.122"/>
<path d="M85.329,23.037c-8.566,1.85-17.457,2.824-26.575,2.824c-9.119,0-18.025-0.975-26.575-2.824l0.097-0.484
	c8.581,1.604,17.432,2.441,26.478,2.441c9.045,0,17.879-0.837,26.477-2.441L85.329,23.037"/>
<path d="M69.974,18.269c-3.632,0.707-7.384,1.076-11.22,1.076c-3.838,0-7.604-0.369-11.22-1.076l0.079-0.486
	c3.649,0.458,7.367,0.695,11.141,0.695c3.773,0,7.476-0.237,11.141-0.696L69.974,18.269"/>
<path d="M53.779,6.04c0-2.803,1.797-4.544,4.013-4.544c2.191,0,3.942,1.714,3.942,4.042h-0.241c0-1.898-1.436-3.31-3.225-3.31
	c-1.821,0-3.297,1.398-3.297,3.827v9.543h-1.192V6.04"/>
<path d="M53.789,2.935c0.842-1.313,2.321-2.178,4.003-2.178c2.621,0,4.746,1.89,4.746,5.282v9.559h1.191V5.961
	C63.728,2.193,61.229,0,58.333,0c-2.047,0-3.836,1.155-4.731,2.833L53.789,2.935"/>
<path fill-rule="evenodd" clip-rule="evenodd" d="M58.629,57.691h2.374v1.498h0.854v-1.498h0.855v-0.542h-0.855v-3.326h-0.518
	l-2.709,3.482V57.691 M59.065,57.149l1.937-2.533v2.533H59.065z"/>
<path fill-rule="evenodd" clip-rule="evenodd" d="M67.829,56.176c0.535-0.212,1.182-0.557,1.182-1.152
	c0-0.753-0.939-1.13-1.647-1.13c-0.901,0-1.87,0.431-1.87,1.302c0,0.699,0.473,1.012,1.104,1.303
	c-0.639,0.329-1.223,0.682-1.223,1.428c0,0.926,0.871,1.326,1.69,1.326c1.159,0,2.135-0.496,2.135-1.507
	C69.199,56.914,68.614,56.506,67.829,56.176 M66.788,56.576c0.69,0.306,1.607,0.534,1.607,1.381c0,0.636-0.492,1.084-1.208,1.084
	c-0.712,0-1.136-0.448-1.136-1.084C66.051,57.354,66.27,56.938,66.788,56.576z M67.666,56.113c-0.509-0.267-1.385-0.486-1.385-1.137
	c0-0.59,0.479-0.872,1.1-0.872c0.59,0,1.007,0.307,1.007,0.88C68.388,55.509,68.142,55.847,67.666,56.113z"/>
<path d="M50.238,59.189v-0.157c-0.462,0-0.584-0.047-0.584-0.385v-4.754h-0.147c-0.207,0.181-0.698,0.65-1.57,0.808v0.165
	c0.484,0.039,0.717,0.039,0.794,0.165c0.052,0.086,0.069,0.234,0.069,0.486v3.13c0,0.338-0.187,0.385-0.635,0.385v0.157H50.238"/>
<path d="M56.455,53.964h-1.902c-0.216,0-0.44,0-0.665-0.016c-0.181-0.008-0.241-0.024-0.241-0.22h-0.138l-0.538,1.476h0.19
	l0.079-0.218c0.062-0.172,0.16-0.281,0.334-0.281h2.296l-1.688,3.378c-0.311,0.612-0.535,1.067-0.535,1.098
	c0,0.157,0.233,0.149,0.353,0.149c0.328,0,0.461-0.126,0.556-0.369l1.899-4.785V53.964"/>
<rect x="1.19" y="48.445" width="50.724" height="0.491"/>
<rect x="57.442" y="48.445" width="60.07" height="0.491"/>
<path fill-rule="evenodd" clip-rule="evenodd" d="M49.776,41.789c0,1.86-0.775,3.376-2.268,3.376c-1.541,0-2.268-1.502-2.268-3.376
	c0-1.865,0.784-3.376,2.268-3.376C49.115,38.413,49.776,39.91,49.776,41.789 M51.452,41.789c0-2.274-1.599-3.782-3.944-3.782
	c-2.346,0-3.944,1.582-3.944,3.782c0,2.194,1.598,3.781,3.944,3.781C49.686,45.57,51.452,43.956,51.452,41.789z"/>
<path fill-rule="evenodd" clip-rule="evenodd" d="M78.726,45.387c1.394,0,2.829,0.067,4.276,0.067c1.174,0,2.653-0.084,3.697-0.633
	c1.266-0.667,1.73-1.563,1.73-2.582c0-1.65-1.231-2.832-2.99-3.032c1.411-0.384,2.195-1.266,2.195-2.632
	c0-0.883-0.532-1.8-1.411-2.199c-1.118-0.5-2.25-0.534-3.478-0.517c-1.375,0.017-2.701,0.017-4.021,0.034v0.349
	c0.733,0.117,1.356-0.05,1.356,0.8v9.279c0,0.683-0.733,0.683-1.356,0.716V45.387 M81.903,34.327c0.168-0.005,0.434,0,0.598,0
	c2.707,0,3.342,1.086,3.342,2.396c0,1.833-1.428,2.508-3.077,2.508h-0.862V34.327z M81.903,39.699h0.77
	c2.035,0,3.849,0.174,3.849,2.623c0,1.721-1.013,2.663-3.115,2.663c-0.897,0-1.503-0.15-1.503-1.017V39.699z"/>
<path fill-rule="evenodd" clip-rule="evenodd" d="M96.749,41.789c0,1.86-0.774,3.376-2.268,3.376c-1.541,0-2.268-1.502-2.268-3.376
	c0-1.865,0.783-3.376,2.268-3.376C96.088,38.413,96.749,39.91,96.749,41.789 M98.424,41.789c0-2.274-1.598-3.782-3.943-3.782
	c-2.346,0-3.943,1.582-3.943,3.782c0,2.194,1.598,3.781,3.943,3.781C96.659,45.57,98.424,43.956,98.424,41.789z"/>
<path d="M0,34.242c0.348,0,0.841,0.12,1.161,0.431c0.315,0.308,0.562,0.928,0.941,1.852L5.83,45.62h0.608l3.557-9.229
	c0.418-1.084,0.844-2.148,2.074-2.148v-0.349H8.195v0.349c0.411,0,0.978-0.035,1.28,0.518c0.164,0.302,0.12,0.934-0.317,2.114
	l-2.329,6.297H6.792l-2.881-7.229c-0.04-0.099-0.243-0.702-0.17-1.031c0.115-0.52,0.749-0.668,1.361-0.668v-0.349H0V34.242"/>
<path d="M20.166,33.743c-0.807,0.233-1.809,0.566-2.67,0.766v0.2c0.385,0.017,0.623,0.116,0.788,0.25
	c0.256,0.233,0.256,0.633,0.256,1.049v8.146c0,0.867-0.238,0.867-1.062,0.917v0.315h3.696v-0.315c-0.77-0.05-1.008-0.05-1.008-0.917
	V33.743"/>
<path d="M25.44,33.743c-0.807,0.233-1.809,0.566-2.67,0.766v0.2c0.385,0.017,0.623,0.116,0.788,0.25
	c0.256,0.233,0.256,0.633,0.256,1.049v8.146c0,0.867-0.238,0.867-1.062,0.917v0.315h3.696v-0.315c-0.77-0.05-1.008-0.05-1.008-0.917
	V33.743"/>
<path d="M40.606,45.387v-0.315c-0.935-0.05-1.173-0.05-1.173-0.917v-3.215c0-1.361,0.689-2.101,1.231-2.101
	c0.477,0,0.66,0.658,1.215,0.658c0.385,0,0.756-0.294,0.756-0.751c0-0.543-0.559-0.856-1.09-0.856c-1.126,0-1.891,0.986-2.148,1.496
	v-1.43c-0.752,0.267-1.633,0.617-2.402,0.85v0.166c0.641,0.284,0.842,0.317,0.842,0.968v4.214c0,0.867-0.238,0.867-1.026,0.917
	v0.315H40.606"/>
<path d="M107.038,43.383c-0.459,0.824-1.263,1.56-2.326,1.56c-1.967,0-2.472-1.72-2.472-3.252c0-1.332,0.392-3.277,2.084-3.277
	c0.736,0,1.378,0.465,1.378,1.159c0,0.425,0.293,0.834,0.735,0.834c0.394,0,0.724-0.289,0.708-0.684
	c-0.042-1.087-1.393-1.716-2.839-1.716c-2.328,0-3.816,1.643-3.816,3.854c0,2.032,1.419,3.71,3.648,3.71
	c1.497,0,2.612-0.813,3.174-2.104L107.038,43.383"/>
<path d="M112.245,45.387v-0.315c-0.77-0.05-1.008-0.05-1.008-0.917V39.74c0.436-0.481,0.861-1.05,1.924-1.05
	c1.019,0,1.563,0.834,1.563,1.941v3.523c0,0.867-0.238,0.867-0.989,0.917v0.315h3.659v-0.315c-0.806-0.05-1.044-0.05-1.044-0.917
	v-3.349c0-2.374-1.693-2.799-2.6-2.799c-1.137,0-1.82,0.522-2.514,1.184v-5.447c-0.788,0.283-1.771,0.549-2.561,0.849v0.134
	c0.478,0.1,0.936,0.25,0.936,0.767v8.662c0,0.867-0.238,0.867-1.063,0.917v0.315H112.245"/>
<path d="M15.709,45.387v-0.315c-0.77-0.05-1.008-0.05-1.008-0.917v-6.23c-0.824,0.283-1.856,0.583-2.644,0.883v0.166
	c0.256,0.034,0.421,0.051,0.66,0.167c0.329,0.2,0.329,0.666,0.329,1.017v3.998c0,0.867-0.238,0.867-1.062,0.917v0.315H15.709"/>
<path d="M12.853,35.755c0-0.522,0.423-0.944,0.945-0.944c0.521,0,0.944,0.423,0.944,0.944c0,0.521-0.423,0.944-0.944,0.944
	C13.276,36.699,12.853,36.276,12.853,35.755"/>
<path d="M30.028,40.832c-0.042,0.271-0.064,0.557-0.064,0.858c0,1.749,0.617,3.252,2.56,3.252c0.784,0,1.851-0.588,2.378-1.56
	l0.312,0.083c-0.375,0.931-1.427,2.104-3.167,2.104c-2.166,0-3.832-1.461-3.832-3.71c0-2.139,1.488-3.854,3.76-3.854
	c1.685,0,3.095,0.954,3.2,2.825H30.028 M30.132,40.33h3.41c0-1.258-0.754-1.914-1.514-1.914
	C31.163,38.416,30.444,39.157,30.132,40.33z"/>
<path d="M55.863,46.92l0.584-1.35l-2.89-6.197c-0.216-0.463-0.456-0.866-1.132-0.866v-0.315h3.828v0.315
	c-0.366,0-0.754,0.005-0.872,0.325c-0.049,0.134-0.059,0.361,0.062,0.641l1.821,4.215l1.652-3.814
	c0.154-0.355,0.26-0.804,0.102-1.05c-0.217-0.339-0.716-0.316-1.024-0.316v-0.315h3.008v0.315c-0.879,0-1.135,0.489-1.363,1.017
	l-3.335,7.696c-0.335,0.772-0.756,1.749-1.8,1.749c-0.403,0-0.756-0.316-0.756-0.667c0-0.398,0.257-0.666,0.697-0.683
	c0.201,0.017,0.384,0.084,0.586,0.1C55.476,47.757,55.715,47.262,55.863,46.92"/>
<path d="M71.479,43.043c-0.05,0.093-0.104,0.188-0.16,0.281c0.086,0.106,0.169,0.205,0.248,0.293
	c0.537,0.598,1.125,1.028,1.969,1.028c0.436,0,0.858-0.149,1.225-0.653l0.205,0.177c-0.436,0.626-1.16,1.401-2.041,1.401
	c-0.995,0-1.678-0.404-2.283-1.035l-0.137-0.146c-0.647,0.671-1.49,1.181-2.498,1.181c-2.029,0-2.743-1.365-2.743-2.426
	c0-1.422,1.274-2.321,2.284-3.013c-0.203-0.35-0.357-0.632-0.443-0.808c-0.191-0.388-0.464-1.052-0.464-1.486
	c0-1.139,0.823-1.956,2.116-1.956c1.322,0,2.033,0.693,1.957,1.683c-0.064,0.856-0.971,1.523-1.801,2.117
	c0.573,0.989,1.405,2.319,2.112,3.264c0.046-0.074,0.083-0.138,0.11-0.186c0.31-0.552,0.75-1.363,0.75-2.17
	c0-0.517-0.326-0.666-0.803-0.666v-0.272h2.776v0.272c-0.926,0.014-1.346,0.813-1.633,1.564
	C72.051,41.946,71.684,42.661,71.479,43.043 M70.168,44.001c-0.834-1.002-1.742-2.396-2.367-3.438c-0.659,0.64-1.1,1.402-1.1,2.305
	c0,1.187,0.866,1.91,1.773,1.91C69.141,44.778,69.717,44.422,70.168,44.001z M68.682,39.277c0.757-0.669,1.002-1.202,1.052-1.788
	c0.077-0.911-0.405-1.233-0.946-1.233c-0.554,0-0.9,0.589-0.9,0.934c0,0.523,0.164,0.873,0.464,1.472
	C68.431,38.821,68.543,39.031,68.682,39.277z"/>
</svg>
