<?xml version="1.0" encoding="UTF-8" standalone="no"?>
<svg
   xmlns:dc="http://purl.org/dc/elements/1.1/"
   xmlns:cc="http://creativecommons.org/ns#"
   xmlns:rdf="http://www.w3.org/1999/02/22-rdf-syntax-ns#"
   xmlns:svg="http://www.w3.org/2000/svg"
   xmlns="http://www.w3.org/2000/svg"
   viewBox="0 0 314.51334 133.56934"
   height="133.56934"
   width="314.51334"
   xml:space="preserve"
   id="svg2"
   version="1.1"><metadata
     id="metadata8"><rdf:RDF><cc:Work
         rdf:about=""><dc:format>image/svg+xml</dc:format><dc:type
           rdf:resource="http://purl.org/dc/dcmitype/StillImage" /></cc:Work></rdf:RDF></metadata><defs
     id="defs6"><clipPath
       id="clipPath18"
       clipPathUnits="userSpaceOnUse"><path
         id="path16"
         d="M 0,100.177 H 235.885 V 0 H 0 Z" /></clipPath></defs><g
     transform="matrix(1.3333333,0,0,-1.3333333,0,133.56933)"
     id="g10"><g
       id="g12"><g
         clip-path="url(#clipPath18)"
         id="g14"><g
           transform="translate(229.2574,37.7573)"
           id="g20"><path
             id="path22"
             style="fill:#fff;fill-opacity:1;fill-rule:nonzero;stroke:none"
             d="m 0,0 c -3.829,-0.621 -5.991,-0.839 -8.071,-0.839 -5.055,0 -12.25,1.445 -19.806,4.015 l -11.325,3.832 c -5.981,2.03 -14.905,3.699 -19.804,3.699 -4.849,0 -13.803,-1.674 -19.773,-3.699 L -90.092,3.176 c -7.568,-2.565 -14.777,-4.015 -19.825,-4.015 -5.038,0 -12.239,1.45 -19.797,4.015 l -11.341,3.832 c -5.961,2.03 -14.888,3.703 -19.753,3.699 -4.898,0 -13.841,-1.669 -19.812,-3.699 l -11.336,-3.832 c -7.548,-2.57 -14.739,-4.015 -19.791,-4.015 -2.096,0 -4.24,0.218 -8.079,0.839 l 0.49,-0.778 c 1.077,-1.823 1.667,-2.607 3.112,-4.304 1.985,-0.262 2.788,-0.337 4.377,-0.337 5.052,0 13.295,1.582 19.891,3.817 l 11.336,3.831 c 7.693,2.605 14.725,4.025 19.812,4.025 4.285,0 11.763,-1.378 16.959,-3.118 l 14.135,-4.738 c 6.689,-2.245 14.877,-3.817 19.806,-3.817 4.963,0 13.149,1.572 19.816,3.817 l 14.122,4.738 c 5.204,1.74 12.692,3.118 16.983,3.118 5.082,0 12.098,-1.42 19.785,-4.025 l 11.325,-3.831 c 6.61,-2.235 14.841,-3.817 19.928,-3.817 1.577,0 2.366,0.075 4.377,0.337 1.592,1.892 2.061,2.538 3.119,4.304 L 0,0" /></g><g
           transform="translate(212.3736,21.831)"
           id="g24"><path
             id="path26"
             style="fill:#fff;fill-opacity:1;fill-rule:nonzero;stroke:none"
             d="m 0,0 -16.488,5.06 c -7.392,2.287 -10.268,3.055 -14.222,3.954 -4.179,0.929 -8.366,1.449 -11.413,1.449 -4.784,0 -13.895,-1.702 -19.772,-3.682 L -73.208,2.934 c -7.665,-2.581 -14.719,-4.018 -19.88,-4.018 -5.152,0 -12.145,1.427 -19.837,4.018 l -11.346,3.847 c -5.861,1.975 -15.022,3.682 -19.788,3.682 -3.022,0 -7.254,-0.52 -11.399,-1.449 -3.904,-0.874 -7.013,-1.738 -14.244,-3.954 L -186.159,0 c 1.753,-1.613 2.224,-1.975 4.195,-3.309 l 9.15,2.783 7.559,2.229 3.042,0.904 c 8.046,2.383 13.52,3.399 18.164,3.399 4.204,0 11.859,-1.401 16.959,-3.107 l 14.165,-4.759 c 6.604,-2.228 14.823,-3.796 19.842,-3.796 5.009,0 13.288,1.587 19.875,3.796 l 14.122,4.759 c 5.085,1.703 12.778,3.107 16.982,3.107 4.66,0 10.082,-1.016 18.144,-3.399 l 3.021,-0.904 7.58,-2.229 9.162,-2.783 C -2.225,-1.969 -1.764,-1.603 0,0" /></g><g
           transform="translate(193.9224,11.1113)"
           id="g28"><path
             id="path30"
             style="fill:#fff;fill-opacity:1;fill-rule:nonzero;stroke:none"
             d="m 0,0 -1.023,0.378 -2.844,0.927 c -8.206,2.482 -14.789,3.723 -19.804,3.723 -4.195,0 -11.308,-1.215 -16.964,-2.889 L -43.444,1.305 C -44.887,0.84 -45.83,0.529 -46.289,0.378 l -2.834,-0.984 -2.809,-0.969 -2.825,-0.952 c -8.613,-2.789 -14.719,-4.018 -19.825,-4.018 -4.363,0 -10.86,1.186 -16.969,3.127 l -2.828,0.891 -2.825,0.952 -2.823,0.969 -2.809,0.984 -2.884,0.927 c -8.184,2.482 -14.774,3.723 -19.753,3.723 -4.243,0 -11.345,-1.212 -16.988,-2.889 l -2.824,-0.834 C -147.289,0.661 -147.702,0.529 -149.151,0 l 5.682,-2.966 1.291,0.385 c 6.635,2.061 12.354,3.133 16.715,3.133 3.662,0 9.4,-0.944 14.11,-2.303 l 2.839,-0.83 2.794,-0.892 2.884,-0.959 2.809,-0.978 2.823,-0.955 2.825,-0.93 c 8.51,-2.617 14.745,-3.816 19.806,-3.816 4.353,0 10.978,1.161 16.969,2.963 l 2.847,0.853 2.825,0.93 2.809,0.955 2.834,0.978 2.845,0.959 2.809,0.892 c 7.24,2.145 12.557,3.133 16.983,3.133 4.374,-0.007 10.062,-1.072 16.694,-3.133 L -5.688,-2.966 0,0" /></g><g
           transform="translate(32.2461,77.9834)"
           id="g32"><path
             id="path34"
             style="fill:#fff;fill-opacity:1;fill-rule:nonzero;stroke:none"
             d="m 0,0 v -12.384 c -2.809,-1.187 -5.65,-1.777 -8.469,-1.777 -7.26,0 -12.371,5.604 -12.371,13.589 0,8.585 6.104,14.566 14.858,14.566 4.908,0 9.753,-1.376 15.634,-4.371 v 8.237 c -7.508,3.054 -11.221,3.933 -16.775,3.933 -15.339,0 -25.123,-8.671 -25.123,-22.245 0,-12.904 9.506,-21.495 23.787,-21.495 6.379,0 13.927,2.021 19.426,5.25 L 10.967,0 H 0" /></g><g
           transform="translate(52.2945,98.5635)"
           id="g36"><path
             id="path38"
             style="fill:#fff;fill-opacity:1;fill-rule:nonzero;stroke:none"
             d="m 0,0 v -41.336 h 10.8 v 33.55 h 4.655 c 6.096,0 8.82,-1.946 8.82,-6.288 0,-4.448 -3.053,-6.958 -8.427,-6.958 l -2.373,0.069 h -1.197 l 14.986,-20.373 h 13.795 l -13.752,16.63 c 5.111,2.288 7.816,6.398 7.816,11.745 C 35.123,-4.183 29.456,0 17.624,0 H 0" /></g><g
           transform="translate(152.6939,98.5635)"
           id="g40"><path
             id="path42"
             style="fill:#fff;fill-opacity:1;fill-rule:nonzero;stroke:none"
             d="m 0,0 v -41.336 h 10.797 v 17.684 h 19.058 v -17.684 h 10.79 V 0 H 29.855 V -15.286 H 10.797 l 0,15.286 z" /></g><g
           transform="translate(204.8511,98.5635)"
           id="g44"><path
             id="path46"
             style="fill:#fff;fill-opacity:1;fill-rule:nonzero;stroke:none"
             d="m 0,0 v -41.336 h 31.034 v 8.092 h -20.26 v 9.839 h 14.889 v 7.785 H 10.774 v 7.526 h 17.9 V 0 Z" /></g><g
           transform="translate(105.503,77.8979)"
           id="g48"><path
             id="path50"
             style="fill:#fff;fill-opacity:1;fill-rule:evenodd;stroke:none"
             d="m 0,0 c 0.021,8.525 5.796,14.493 14.085,14.493 8.289,0 14.049,-5.973 14.049,-14.497 0,-8.508 -5.779,-14.478 -14.049,-14.478 C 5.822,-14.482 0,-8.505 0,0 m -11.354,-0.004 c 0,-12.85 10.762,-22.259 25.439,-22.259 14.664,0 25.439,9.409 25.42,22.263 0,12.874 -10.743,22.279 -25.42,22.279 -14.689,0 -25.439,-9.405 -25.439,-22.283" /></g></g></g></g></svg>