<!-- Generated by IcoMoon.io -->
<svg version="1.1" xmlns="http://www.w3.org/2000/svg" width="97" height="32" viewBox="0 0 97 32">
<title>logo</title>
<path fill="#1371b8" d="M13.058 0.126h0.024c1.092 0.073 2.233 1.189 4.83 3.374 8.252 6.893 7.476 4.587 7.476 12.014v12.354c0 0.097 0.024 0.218 0.024 0.316 0 1.335-1.068 2.403-2.403 2.403h-9.951v-5.728c3.835-0.024 7.67-2.379 7.014-6.99-0.17-1.286-0.777-2.573-1.772-3.835-0.607-0.801-1.286-1.626-1.942-2.549-0.898-1.238-1.675-2.209-2.354-3.519l-0.291-0.583-0.534-1.214-0.097-0.316-0.024 0.049v-5.777zM0.777 27.869v-12.354c0-7.427-0.777-5.121 7.476-12.014 2.597-2.16 3.714-3.277 4.806-3.374v5.777l-0.097 0.267-0.534 1.214-0.267 0.583c-0.68 1.311-1.456 2.282-2.354 3.519-0.68 0.922-1.359 1.748-1.966 2.549-1.044 1.335-1.65 2.694-1.796 4.053-0.461 4.539 3.277 6.772 7.014 6.772v5.728h-9.903c-1.335 0-2.403-1.068-2.403-2.403 0-0.097 0-0.218 0.024-0.315z"></path>
<path fill="#1371b8" d="M89.951 22.359v-3.010c0.146 0.025 0.291 0.025 0.461 0.025 0.607 0 1.286-0.097 1.578-0.195v-3.592c-0.752 0.024-1.456 0.073-2.038 0.194v-2.718c0.655-0.073 1.335-0.146 2.038-0.17v-0.558c0-1.068-0.704-1.602-2.038-1.65v-3.034c0.097 0 0.194 0 0.316 0 3.835 0 5.777 1.481 5.777 5.218v8.471c-1.068 0.558-3.252 1.019-5.485 1.019-0.219 0-0.413 0-0.607 0zM89.951 7.651v3.034c-0.073 0-0.146 0-0.218 0-1.359 0-2.985 0.461-4.005 0.874l-1.044-2.888c1.189-0.461 3.179-0.971 5.267-1.019v0zM89.951 13.063v2.718c-1.238 0.218-2.039 0.68-2.039 1.82 0 1.019 0.777 1.65 2.039 1.748v3.010c-4.053-0.146-6.044-1.772-6.044-4.66 0-3.107 2.67-4.224 6.044-4.636v0zM75.8 22.189v-3.35c1.359-0.413 2.063-1.869 2.063-3.859 0-2.233-0.728-3.568-2.063-3.932v-3.373c4.151 0.316 6.383 2.888 6.383 7.306 0 4.248-2.184 7.063-6.383 7.209zM75.8 7.675v3.374c-0.218-0.073-0.485-0.097-0.777-0.097-0.485 0-0.995 0.097-1.262 0.218v7.549c0.243 0.121 0.801 0.218 1.286 0.218 0.267 0 0.534-0.024 0.752-0.097v3.35c-0.073 0-0.17 0-0.267 0-0.631 0-1.359-0.121-1.772-0.243v3.325h-4.32v-16.602c1.141-0.558 3.228-1.019 5.51-1.019 0.291 0 0.583 0.024 0.85 0.024v0zM48.786 22.359v-3.010c0.146 0.025 0.316 0.025 0.485 0.025 0.583 0 1.262-0.097 1.553-0.195v-3.592c-0.752 0.024-1.432 0.073-2.039 0.194v-2.718c0.655-0.073 1.359-0.146 2.039-0.17v-0.558c0-1.068-0.704-1.602-2.039-1.65v-3.034c0.097 0 0.218 0 0.316 0 3.859 0 5.777 1.481 5.777 5.218v8.471c-1.068 0.558-3.228 1.019-5.485 1.019-0.194 0-0.413 0-0.607 0v0zM68.009 11.485v-3.714h-11.675v3.714h3.617v10.558h4.442v-10.558h3.616zM41.359 21.388l-1.335-3.155c-0.437 0.34-1.117 0.51-1.869 0.51-1.505 0-2.67-1.432-2.67-3.786 0-2.379 1.044-3.786 2.67-3.786 0.752 0 1.432 0.17 1.869 0.51l1.335-3.058c-0.947-0.607-2.063-0.971-3.883-0.971-3.447 0-6.456 2.403-6.456 7.354 0 4.927 3.010 7.354 6.456 7.354 1.82-0 2.937-0.34 3.883-0.971v0zM48.786 7.651v3.034c-0.073 0-0.097 0-0.17 0-1.383 0-2.985 0.461-4.005 0.874l-1.068-2.888c1.214-0.461 3.18-0.971 5.243-1.019v0zM48.786 13.063v2.718c-1.214 0.218-2.015 0.68-2.015 1.82 0 1.019 0.777 1.65 2.015 1.748v3.010c-4.005-0.146-6.019-1.772-6.019-4.66 0-3.107 2.67-4.224 6.019-4.636z"></path>
<path fill="#000" d="M79.562 29.689v-0.704h0.631l-0.631-1.942v-0.874h0.024c0.121 0 0.243 0 0.316 0 0.097 0 0.146 0 0.194 0.024s0.073 0.024 0.097 0.049c0.024 0.024 0.049 0.073 0.049 0.121l1.408 4.005c0.024 0.097 0.049 0.17 0.049 0.218s0 0.073-0.024 0.097c-0.024 0.025-0.073 0.049-0.146 0.049-0.049 0-0.146 0-0.267 0s-0.218 0-0.267 0c-0.073 0-0.121 0-0.17-0.024-0.024 0-0.049-0.025-0.073-0.025 0-0.024-0.024-0.049-0.024-0.073l-0.291-0.922h-0.874zM79.562 26.17v0.874l-0.631 1.942h0.631v0.704h-0.85l-0.291 0.874c0 0.049 0 0.073-0.024 0.097s-0.049 0.049-0.073 0.049c-0.024 0.024-0.073 0.024-0.146 0.024s-0.146 0-0.243 0-0.194 0-0.243 0-0.121-0.024-0.146-0.049c-0.024-0.024-0.024-0.073-0.024-0.121 0.024-0.049 0.024-0.097 0.073-0.194l1.383-4.029c0.024-0.024 0.024-0.073 0.049-0.097s0.049-0.024 0.097-0.049c0.049-0.024 0.097-0.024 0.17-0.024s0.17-0 0.267-0v0zM71.116 30.806v-0.704c0.146 0 0.243-0.024 0.34-0.073s0.195-0.121 0.243-0.218c0.073-0.097 0.121-0.194 0.146-0.316 0.024-0.146 0.049-0.291 0.049-0.461 0-0.146-0.024-0.291-0.049-0.413-0.025-0.145-0.049-0.242-0.122-0.34-0.049-0.097-0.121-0.17-0.218-0.218-0.097-0.073-0.218-0.097-0.388-0.097v0-0.68h0.049c0.267 0 0.51 0.024 0.728 0.097 0.194 0.073 0.364 0.194 0.51 0.34 0.121 0.146 0.218 0.34 0.291 0.534 0.073 0.218 0.097 0.461 0.097 0.752 0 0.267-0.024 0.509-0.097 0.728s-0.17 0.413-0.316 0.558c-0.146 0.17-0.316 0.291-0.534 0.364-0.219 0.097-0.462 0.146-0.729 0.146v0zM75.776 27.747c0 0.073 0 0.146 0 0.194s-0.024 0.097-0.024 0.121c-0.024 0.024-0.024 0.049-0.049 0.049-0.024 0.024-0.024 0.024-0.049 0.024h-0.801v2.476c0 0.024 0 0.024-0.024 0.049 0 0.024-0.024 0.049-0.073 0.049-0.024 0-0.073 0.024-0.121 0.024-0.073 0-0.121 0-0.218 0-0.073 0-0.146 0-0.218 0-0.049 0-0.097-0.024-0.121-0.024-0.049 0-0.073-0.025-0.073-0.049-0.024-0.024-0.024-0.024-0.024-0.049v-2.476h-0.777c-0.024 0-0.049 0-0.073-0.024-0.024 0-0.024-0.024-0.049-0.049 0-0.049 0-0.073-0.024-0.146 0-0.049 0-0.097 0-0.194 0-0.049 0-0.121 0-0.17 0.024-0.049 0.024-0.073 0.049-0.121 0-0.024 0.024-0.049 0.024-0.049 0.024-0.024 0.049-0.024 0.073-0.024h2.451c0.024 0 0.024 0 0.049 0.024 0.024 0 0.024 0.024 0.049 0.049 0 0.049 0.024 0.073 0.024 0.121s-0 0.122-0 0.194zM71.116 27.286v0.68c-0.121 0-0.243 0.024-0.34 0.073s-0.17 0.121-0.243 0.218c-0.049 0.097-0.097 0.194-0.146 0.34-0.024 0.121-0.049 0.267-0.049 0.437 0 0.146 0.024 0.291 0.049 0.413 0.024 0.146 0.073 0.242 0.122 0.34 0.073 0.097 0.145 0.17 0.242 0.243 0.097 0.049 0.218 0.073 0.364 0.073v0 0.704h-0.024c-0.291 0-0.534-0.049-0.728-0.121-0.218-0.073-0.388-0.194-0.51-0.34-0.146-0.146-0.243-0.316-0.316-0.534s-0.097-0.461-0.097-0.752c0-0.243 0.049-0.51 0.121-0.728 0.049-0.218 0.17-0.388 0.316-0.558 0.146-0.146 0.316-0.267 0.534-0.364 0.195-0.073 0.438-0.122 0.704-0.122v0zM65.703 30.781v-0.607c0.097-0.024 0.17-0.049 0.243-0.097 0.097-0.049 0.218-0.146 0.316-0.267v-0.534h-0.34c-0.073 0-0.145 0-0.218 0v-0.558c0.073 0 0.17 0 0.267 0h0.291v-0.195c0-0.097 0-0.17-0.024-0.243s-0.049-0.146-0.097-0.194-0.097-0.073-0.194-0.097c-0.049-0.024-0.146-0.049-0.243-0.049v-0.655h0.049c0.243 0 0.461 0.024 0.631 0.073s0.316 0.121 0.437 0.218c0.097 0.097 0.194 0.218 0.243 0.364 0.049 0.17 0.073 0.364 0.073 0.558v2.112c0 0.024 0 0.049-0.024 0.073s-0.073 0.049-0.121 0.049c-0.049 0-0.121 0-0.218 0-0.121 0-0.194 0-0.243 0s-0.073-0.024-0.097-0.049c-0.024-0.024-0.024-0.049-0.024-0.073v-0.243c-0.121 0.146-0.267 0.243-0.437 0.316-0.098 0.049-0.171 0.073-0.268 0.097zM65.703 27.286v0.655h-0.024c-0.146 0-0.292 0.024-0.388 0.049-0.121 0.024-0.218 0.073-0.316 0.121-0.097 0.024-0.17 0.073-0.218 0.097-0.073 0.024-0.121 0.049-0.146 0.049s-0.049 0-0.073-0.024c-0.024-0.024-0.024-0.049-0.049-0.073 0-0.024-0.024-0.073-0.024-0.097 0-0.049-0.024-0.097-0.024-0.146 0-0.073 0.024-0.146 0.024-0.194 0.024-0.024 0.049-0.073 0.073-0.097 0.024-0.049 0.097-0.073 0.17-0.121 0.073-0.024 0.17-0.073 0.291-0.097 0.097-0.049 0.218-0.073 0.364-0.097 0.097-0.024 0.218-0.024 0.34-0.024v0zM65.703 28.718v0.558c-0.049 0-0.097 0.024-0.146 0.024-0.097 0.024-0.17 0.049-0.243 0.097-0.049 0.049-0.097 0.097-0.121 0.146-0.049 0.073-0.049 0.145-0.049 0.218 0 0.121 0.049 0.218 0.121 0.291 0.073 0.097 0.194 0.121 0.34 0.121 0.024 0 0.073 0 0.097 0v0.607c-0.097 0-0.194 0.024-0.291 0.024-0.17 0-0.316-0.024-0.461-0.073-0.121-0.049-0.243-0.097-0.339-0.194-0.121-0.073-0.195-0.194-0.243-0.316-0.073-0.121-0.097-0.267-0.097-0.437 0-0.194 0.049-0.34 0.121-0.485 0.073-0.121 0.17-0.243 0.316-0.316 0.146-0.097 0.316-0.17 0.534-0.194 0.121-0.048 0.291-0.048 0.461-0.072v0zM47.645 30.806v-0.68c0.049 0 0.121 0 0.194 0 0.146 0 0.291 0 0.413-0.024 0.097-0.024 0.218-0.049 0.291-0.073 0.097-0.024 0.146-0.049 0.194-0.073s0.097-0.049 0.121-0.049 0.049 0.024 0.073 0.024c0 0 0.024 0.024 0.024 0.049s0.024 0.049 0.024 0.073c0 0.049 0 0.097 0 0.146s0 0.097 0 0.146c0 0.024 0 0.073-0.024 0.097 0 0.024 0 0.049 0 0.049-0.024 0.024-0.024 0.049-0.049 0.049-0.024 0.024-0.049 0.049-0.121 0.073s-0.121 0.049-0.243 0.097c-0.097 0.024-0.218 0.049-0.364 0.073-0.121 0-0.267 0.024-0.413 0.024-0.049-0-0.097-0-0.121-0v0zM47.645 29.277v-0.583h0.655c0-0.243-0.049-0.437-0.146-0.583s-0.267-0.218-0.485-0.218h-0.024v-0.607h0.024c0.267 0 0.485 0.024 0.68 0.097 0.194 0.097 0.34 0.194 0.437 0.34 0.121 0.121 0.194 0.291 0.267 0.485 0.049 0.17 0.073 0.388 0.073 0.606v0.146c0 0.097-0.024 0.17-0.073 0.218s-0.097 0.097-0.194 0.097l-1.214 0zM52.524 30.539c0.024 0.049 0.024 0.073 0.024 0.097s-0.024 0.049-0.049 0.073c-0.024 0-0.097 0.024-0.146 0.024-0.073 0-0.17 0-0.267 0-0.121 0-0.194 0-0.267 0s-0.121 0-0.146-0.024c-0.049 0-0.073-0.025-0.073-0.025-0.024-0.024-0.049-0.049-0.049-0.073l-0.583-1.092-0.583 1.092c0 0.024-0.024 0.049-0.024 0.073-0.024 0-0.049 0.025-0.073 0.025-0.049 0.024-0.097 0.024-0.146 0.024-0.073 0-0.146 0-0.243 0s-0.194 0-0.243 0c-0.073 0-0.121-0.024-0.146-0.024-0.024-0.025-0.049-0.049-0.049-0.073s0.024-0.049 0.049-0.097l0.85-1.529-0.801-1.456c0-0.049-0.024-0.073-0.024-0.097 0-0.049 0.024-0.049 0.049-0.073s0.073-0.024 0.146-0.049c0.073 0 0.146 0 0.267 0 0.097 0 0.194 0 0.243 0 0.073 0 0.121 0.024 0.146 0.024 0.049 0 0.073 0.024 0.097 0.024 0 0.024 0.025 0.049 0.025 0.073l0.558 1.044 0.558-1.044c0-0.024 0.024-0.049 0.024-0.049 0.024-0.024 0.049-0.049 0.073-0.049s0.073-0.024 0.121-0.024c0.049 0 0.121 0 0.218 0s0.194 0 0.243 0c0.072 0 0.097 0.024 0.145 0.049 0.025 0 0.025 0.024 0.025 0.049 0 0.049 0 0.073-0.049 0.121l-0.752 1.432 0.851 1.554zM56.14 30.611c0 0.024-0.025 0.024-0.025 0.049-0.024 0.024-0.049 0.049-0.072 0.049s-0.073 0.024-0.146 0.024c-0.049 0-0.121 0-0.194 0-0.097 0-0.17 0-0.218 0-0.073 0-0.121-0.024-0.145-0.024s-0.049-0.025-0.073-0.049c0-0.024-0.024-0.024-0.024-0.049v-1.238h-1.262v1.238c0 0.024 0 0.024-0.024 0.049 0 0.024-0.024 0.049-0.073 0.049-0.024 0-0.073 0.024-0.121 0.024s-0.121 0-0.218 0-0.146 0-0.218 0-0.097-0.024-0.121-0.024c-0.049 0-0.073-0.025-0.073-0.049-0.024-0.024-0.024-0.024-0.024-0.049v-3.131c0-0.024 0-0.049 0.024-0.073 0-0.024 0.024-0.024 0.073-0.049 0.024 0 0.073 0 0.121-0.024 0.073 0 0.121 0 0.218 0s0.17 0 0.218 0c0.049 0.024 0.097 0.024 0.121 0.024 0.049 0.024 0.073 0.024 0.073 0.049 0.024 0.024 0.024 0.049 0.024 0.073v1.165h1.262v-1.165c0-0.024 0.024-0.049 0.024-0.073 0.024-0.024 0.049-0.024 0.073-0.049 0.024 0 0.072 0 0.145-0.024 0.049 0 0.121 0 0.218 0 0.073 0 0.146 0 0.194 0 0.073 0.024 0.121 0.024 0.146 0.024 0.024 0.024 0.049 0.024 0.072 0.049 0 0.024 0.025 0.049 0.025 0.073v3.131zM60.121 30.611c0 0.024 0 0.049 0 0.073-0.024 0-0.049 0.025-0.073 0.025-0.049 0.024-0.073 0.024-0.146 0.024-0.049 0-0.121 0-0.194 0-0.097 0-0.17 0-0.218 0s-0.097 0-0.146-0.024c-0.024 0-0.049-0.025-0.073-0.025-0.024-0.024-0.024-0.049-0.024-0.073v-1.384c0-0.097 0-0.218 0-0.316 0.024-0.097 0.024-0.218 0.049-0.316-0.073 0.097-0.121 0.194-0.194 0.291s-0.121 0.194-0.194 0.291l-1.068 1.432c-0.024 0.024-0.024 0.049-0.049 0.073-0.024 0-0.049 0.025-0.073 0.025-0.024 0.024-0.073 0.024-0.121 0.024-0.024 0-0.097 0-0.17 0s-0.146 0-0.194 0-0.097 0-0.121-0.024c-0.049 0-0.073-0.025-0.073-0.049-0.024 0-0.024-0.024-0.024-0.049v-3.131c0-0.024 0-0.049 0.024-0.073 0-0.024 0.024-0.024 0.073-0.049 0.024 0 0.072 0 0.121-0.024 0.073 0 0.121 0 0.218 0 0.17 0 0.267 0 0.34 0.024s0.097 0.073 0.097 0.121v1.384c0 0.097 0 0.194 0 0.291s-0.024 0.194-0.024 0.292c0.049-0.073 0.121-0.17 0.17-0.267s0.121-0.195 0.194-0.267l1.068-1.432c0-0.024 0.024-0.049 0.049-0.073s0.049-0.024 0.073-0.049c0.049 0 0.073-0.024 0.121-0.024s0.097 0 0.17 0c0.097 0 0.17 0 0.218 0s0.097 0.024 0.121 0.024c0.024 0.024 0.049 0.024 0.073 0.049 0 0.024 0 0.049 0 0.073v3.133zM63.956 30.636c0 0.024-0.024 0.049-0.024 0.049-0.024 0.025-0.049 0.025-0.073 0.025-0.024 0.024-0.073 0.024-0.121 0.024-0.073 0-0.146 0-0.218 0-0.097 0-0.194 0-0.243 0-0.073 0-0.121 0-0.146-0.024-0.049 0-0.073 0-0.097-0.025 0-0.024-0.024-0.049-0.024-0.073l-0.292-0.728c-0.049-0.121-0.072-0.194-0.121-0.267s-0.097-0.121-0.146-0.17c-0.049-0.024-0.097-0.049-0.17-0.073-0.049-0.024-0.121-0.024-0.194-0.024h-0.194v1.262c0 0.024 0 0.049-0.024 0.049-0.024 0.024-0.049 0.049-0.073 0.049s-0.073 0.024-0.146 0.024c-0.049 0-0.121 0-0.194 0s-0.146 0-0.218 0c-0.049 0-0.097-0.024-0.121-0.024-0.049 0-0.073-0.025-0.073-0.049-0.024 0-0.024-0.024-0.024-0.049v-3.155c0-0.024 0-0.024 0.024-0.049 0-0.024 0.024-0.024 0.073-0.049 0.024 0 0.073 0 0.121-0.024 0.073 0 0.146 0 0.218 0s0.146 0 0.194 0c0.073 0.024 0.121 0.024 0.146 0.024 0.024 0.024 0.049 0.024 0.073 0.049s0.024 0.024 0.024 0.049v1.214h0.17c0.073 0 0.146 0 0.218-0.024 0.049-0.024 0.097-0.049 0.146-0.097 0.049-0.024 0.097-0.097 0.146-0.146 0.024-0.073 0.073-0.17 0.097-0.267l0.267-0.68c0.024-0.024 0.024-0.024 0.049-0.049 0-0.024 0.024-0.024 0.073-0.049 0.024 0 0.073-0.024 0.146-0.024 0.049 0 0.121 0 0.218 0s0.17 0 0.218 0c0.049 0 0.097 0.024 0.121 0.024 0.049 0 0.073 0.024 0.073 0.024 0.024 0.024 0.024 0.049 0.024 0.049 0 0.024 0 0.073-0.024 0.097 0 0.024-0.024 0.073-0.049 0.121l-0.243 0.607c-0.049 0.121-0.097 0.218-0.146 0.291-0.073 0.097-0.121 0.17-0.17 0.218-0.073 0.049-0.121 0.097-0.194 0.121-0.049 0.049-0.097 0.073-0.146 0.073v0.024c0.073 0.025 0.122 0.049 0.194 0.097 0.073 0.024 0.121 0.073 0.17 0.121 0.073 0.073 0.121 0.146 0.17 0.218s0.097 0.194 0.17 0.291l0.291 0.704c0.024 0.049 0.024 0.073 0.024 0.097 0.024 0 0.024 0.024 0.024 0.049s0.024 0.024 0.024 0.049l0 0.025zM47.645 27.286v0.607c-0.097 0-0.194 0.024-0.267 0.073-0.097 0.049-0.17 0.097-0.218 0.17s-0.097 0.146-0.121 0.243c-0.024 0.097-0.049 0.218-0.049 0.316h0.655v0.583h-0.655c0 0.121 0 0.242 0.049 0.34 0.024 0.121 0.073 0.218 0.146 0.291s0.146 0.121 0.267 0.17c0.049 0.024 0.121 0.024 0.194 0.049v0.68c-0.243-0.024-0.437-0.049-0.631-0.121-0.194-0.049-0.364-0.17-0.51-0.316s-0.243-0.316-0.316-0.534c-0.073-0.218-0.097-0.461-0.097-0.752s0.024-0.534 0.097-0.752c0.073-0.218 0.17-0.413 0.316-0.583 0.146-0.146 0.316-0.267 0.51-0.34 0.194-0.098 0.388-0.122 0.631-0.122v0zM37.281 30.781v-0.607c0.097-0.024 0.17-0.049 0.267-0.097s0.194-0.146 0.316-0.267v-0.534h-0.34c-0.097 0-0.17 0-0.243 0v-0.558c0.097 0 0.17 0 0.267 0h0.316v-0.195c0-0.097-0.024-0.17-0.049-0.243 0-0.073-0.049-0.146-0.097-0.194-0.024-0.049-0.097-0.073-0.17-0.097s-0.146-0.049-0.267-0.049v-0.655h0.073c0.243 0 0.437 0.024 0.631 0.073 0.17 0.049 0.316 0.121 0.413 0.218 0.121 0.097 0.194 0.218 0.243 0.364 0.049 0.17 0.073 0.364 0.073 0.558v2.112c0 0.024 0 0.049-0.024 0.073s-0.049 0.049-0.121 0.049c-0.049 0-0.121 0-0.218 0s-0.17 0-0.218 0-0.097-0.024-0.097-0.049c-0.024-0.024-0.049-0.049-0.049-0.073v-0.243c-0.121 0.146-0.267 0.243-0.437 0.316-0.073 0.049-0.17 0.073-0.267 0.097v0zM42.645 30.611c0 0.024-0.024 0.024-0.024 0.049-0.024 0.024-0.049 0.049-0.073 0.049-0.049 0-0.073 0.024-0.146 0.024-0.049 0-0.121 0-0.218 0-0.073 0-0.146 0-0.194 0-0.073 0-0.121-0.024-0.146-0.024s-0.049-0.025-0.073-0.049c-0.024-0.024-0.024-0.024-0.024-0.049v-1.238h-1.262v1.238c0 0.024 0 0.024-0.024 0.049 0 0.024-0.024 0.049-0.073 0.049-0.024 0-0.073 0.024-0.121 0.024-0.073 0-0.146 0-0.218 0-0.097 0-0.17 0-0.218 0s-0.097-0.024-0.121-0.024c-0.049 0-0.073-0.025-0.073-0.049-0.024-0.024-0.024-0.024-0.024-0.049v-3.131c0-0.024 0-0.049 0.024-0.073 0-0.024 0.024-0.024 0.073-0.049 0.024 0 0.073 0 0.121-0.024 0.049 0 0.121 0 0.218 0 0.073 0 0.146 0 0.218 0 0.049 0.024 0.097 0.024 0.121 0.024 0.049 0.024 0.073 0.024 0.073 0.049 0.024 0.024 0.024 0.049 0.024 0.073v1.165h1.262v-1.165c0-0.024 0-0.049 0.024-0.073s0.049-0.024 0.073-0.049c0.024 0 0.073 0 0.146-0.024 0.049 0 0.121 0 0.194 0 0.097 0 0.17 0 0.218 0 0.073 0.024 0.097 0.024 0.146 0.024 0.024 0.024 0.049 0.024 0.073 0.049 0 0.024 0.024 0.049 0.024 0.073v3.131zM45.849 27.747c0 0.073-0.024 0.146-0.024 0.194s0 0.097-0.024 0.121c0 0.024-0.024 0.049-0.049 0.049 0 0.024-0.024 0.024-0.049 0.024h-0.801v2.476c0 0.024 0 0.024-0.024 0.049 0 0.024-0.024 0.049-0.049 0.049-0.049 0-0.097 0.024-0.146 0.024s-0.121 0-0.218 0c-0.073 0-0.146 0-0.194 0-0.073 0-0.121-0.024-0.146-0.024s-0.049-0.025-0.073-0.049c0-0.024-0.024-0.024-0.024-0.049v-2.476h-0.777c-0.024 0-0.049 0-0.073-0.024 0 0-0.024-0.024-0.024-0.049-0.024-0.049-0.024-0.073-0.049-0.146 0-0.049 0-0.097 0-0.194 0-0.049 0-0.121 0.024-0.17 0-0.049 0-0.073 0.024-0.121 0-0.024 0.024-0.049 0.024-0.049 0.024-0.024 0.049-0.024 0.073-0.024h2.451c0.024 0 0.049 0 0.049 0.024 0.024 0 0.049 0.024 0.049 0.049 0.024 0.049 0.024 0.073 0.024 0.121s0.024 0.122 0.024 0.194zM35.461 30.029c0 0.073-0.024 0.121-0.024 0.146 0 0.049 0 0.097 0 0.121-0.024 0.024-0.024 0.049-0.049 0.073 0 0.024-0.024 0.049-0.049 0.073s-0.073 0.049-0.146 0.097c-0.073 0.049-0.17 0.073-0.267 0.121s-0.218 0.073-0.364 0.097c-0.146 0.024-0.291 0.049-0.437 0.049-0.316 0-0.607-0.049-0.85-0.146s-0.461-0.243-0.631-0.437-0.316-0.437-0.413-0.704c-0.097-0.291-0.146-0.631-0.146-0.995 0-0.388 0.073-0.728 0.17-1.044 0.097-0.291 0.243-0.534 0.413-0.752 0.194-0.194 0.413-0.34 0.68-0.461 0.243-0.097 0.534-0.146 0.85-0.146 0.121 0 0.243 0 0.364 0.025s0.218 0.049 0.316 0.073c0.097 0.049 0.194 0.073 0.267 0.121 0.097 0.049 0.146 0.097 0.17 0.121 0.049 0.024 0.049 0.049 0.073 0.073 0 0.024 0.024 0.049 0.024 0.097 0 0.024 0.024 0.049 0.024 0.097s0 0.097 0 0.17 0 0.121 0 0.17c-0.024 0.049-0.024 0.097-0.024 0.121-0.024 0.049-0.024 0.049-0.049 0.073s-0.049 0.024-0.049 0.024c-0.049 0-0.097-0.024-0.146-0.073-0.049-0.024-0.121-0.073-0.194-0.121-0.097-0.049-0.194-0.097-0.316-0.146s-0.267-0.049-0.413-0.049c-0.194 0-0.34 0.024-0.485 0.097s-0.267 0.194-0.364 0.316c-0.097 0.146-0.17 0.316-0.218 0.51s-0.073 0.413-0.073 0.655 0.024 0.485 0.073 0.679c0.049 0.194 0.121 0.364 0.243 0.485 0.097 0.121 0.218 0.218 0.364 0.267 0.146 0.073 0.291 0.097 0.485 0.097 0.146 0 0.291-0.024 0.413-0.049 0.121-0.049 0.218-0.073 0.316-0.121 0.073-0.049 0.146-0.097 0.194-0.121 0.073-0.049 0.097-0.073 0.146-0.073 0.024 0 0.024 0 0.049 0.024 0 0 0.024 0.024 0.024 0.049 0.024 0.024 0.024 0.073 0.024 0.121s0.024 0.122 0.024 0.195v0zM37.281 27.286v0.655h-0.024c-0.146 0-0.267 0.024-0.388 0.049s-0.218 0.073-0.316 0.121c-0.073 0.024-0.146 0.073-0.218 0.097-0.049 0.024-0.097 0.049-0.146 0.049-0.024 0-0.049 0-0.049-0.024-0.024-0.024-0.049-0.049-0.049-0.073-0.024-0.024-0.024-0.073-0.049-0.097 0-0.049 0-0.097 0-0.146 0-0.073 0-0.146 0.024-0.194 0-0.024 0.024-0.073 0.049-0.097 0.049-0.049 0.097-0.073 0.17-0.121 0.097-0.024 0.194-0.073 0.291-0.097 0.121-0.049 0.243-0.073 0.364-0.097s0.243-0.024 0.34-0.024v0zM37.281 28.718v0.558c-0.049 0-0.073 0.024-0.121 0.024-0.097 0.024-0.194 0.049-0.243 0.097-0.073 0.049-0.121 0.097-0.146 0.146-0.024 0.073-0.049 0.145-0.049 0.218 0 0.121 0.049 0.218 0.121 0.291 0.097 0.097 0.218 0.121 0.364 0.121 0.024 0 0.049 0 0.073 0v0.607c-0.073 0-0.17 0.024-0.267 0.024-0.17 0-0.316-0.024-0.461-0.073s-0.267-0.097-0.364-0.194c-0.097-0.073-0.17-0.194-0.243-0.316-0.049-0.121-0.073-0.267-0.073-0.437 0-0.194 0.024-0.34 0.097-0.485 0.073-0.121 0.17-0.243 0.316-0.316 0.146-0.097 0.316-0.17 0.534-0.194 0.146-0.048 0.291-0.048 0.461-0.072z"></path>
<path fill="#000" d="M95.047 28.961v-0.752c0.049 0 0.097 0 0.17 0h0.485v-1.311h-0.461c-0.073 0-0.146 0-0.194 0v-0.704c0.049 0 0.121 0 0.194 0h1.117c0.073 0 0.146 0.024 0.194 0.049 0.049 0.049 0.073 0.121 0.073 0.243v4.126c0 0.024 0 0.024-0.024 0.049 0 0.024-0.024 0.049-0.073 0.049-0.024 0-0.073 0.024-0.146 0.024-0.049 0-0.122 0-0.218 0s-0.17 0-0.218 0-0.097-0.024-0.146-0.024c-0.024 0-0.049-0.025-0.073-0.049s-0.024-0.024-0.024-0.049v-1.699h-0.34c-0.146 0-0.243 0-0.316 0.024v0.024zM95.047 26.194v0.704c-0.121 0-0.194 0.024-0.267 0.049-0.097 0.024-0.17 0.073-0.243 0.121-0.049 0.073-0.097 0.121-0.121 0.218-0.049 0.073-0.049 0.17-0.049 0.267s0.024 0.17 0.049 0.267c0.024 0.073 0.073 0.146 0.146 0.194 0.049 0.073 0.146 0.121 0.243 0.146 0.049 0.024 0.121 0.024 0.243 0.049v0.752c-0.073 0.024-0.146 0.073-0.194 0.121-0.073 0.049-0.121 0.121-0.17 0.218-0.024 0.073-0.073 0.194-0.121 0.316l-0.34 0.971c-0.024 0.024-0.024 0.049-0.049 0.073s-0.049 0.049-0.073 0.049-0.097 0.024-0.17 0.024c-0.049 0-0.146 0-0.243 0s-0.194 0-0.243 0c-0.073 0-0.121-0.024-0.146-0.024-0.024-0.025-0.049-0.025-0.073-0.049 0-0.024 0-0.024 0-0.049s0-0.049 0-0.097c0.025-0.024 0.025-0.073 0.049-0.146l0.34-0.898c0.049-0.121 0.097-0.218 0.146-0.291 0.049-0.097 0.097-0.17 0.146-0.243 0.073-0.073 0.121-0.121 0.194-0.17s0.146-0.097 0.218-0.121c-0.146-0.024-0.291-0.073-0.388-0.146-0.121-0.073-0.218-0.146-0.291-0.243s-0.121-0.194-0.17-0.316c-0.024-0.121-0.049-0.243-0.049-0.413 0-0.194 0.024-0.388 0.097-0.558s0.194-0.291 0.316-0.413c0.146-0.121 0.316-0.218 0.534-0.267 0.17-0.072 0.388-0.096 0.679-0.096v0zM89.441 30.806v-0.704c0.146 0 0.243-0.024 0.34-0.073s0.194-0.121 0.242-0.218c0.073-0.097 0.121-0.194 0.146-0.316 0.024-0.146 0.049-0.291 0.049-0.461 0-0.146 0-0.291-0.025-0.413-0.049-0.145-0.073-0.242-0.145-0.34-0.049-0.097-0.122-0.17-0.218-0.218-0.097-0.073-0.218-0.097-0.364-0.097h-0.024v-0.68h0.049c0.267 0 0.51 0.024 0.728 0.097 0.194 0.073 0.364 0.194 0.509 0.34 0.121 0.146 0.243 0.34 0.291 0.534 0.073 0.218 0.097 0.461 0.097 0.752 0 0.267-0.024 0.509-0.097 0.728s-0.17 0.413-0.316 0.558c-0.146 0.17-0.316 0.291-0.534 0.364-0.219 0.097-0.462 0.146-0.729 0.146zM85.387 27.359h1.311c0.097 0 0.146 0.024 0.194 0.073s0.049 0.121 0.049 0.218v2.354h0.364c0.073 0 0.121 0 0.146 0.024s0.024 0.073 0.024 0.146v1.578c0 0.024 0 0.024 0 0.049-0.024 0.024-0.049 0.024-0.073 0.024-0.024 0.024-0.073 0.024-0.121 0.049-0.049 0-0.122 0-0.194 0s-0.121 0-0.17 0c-0.049-0.024-0.097-0.024-0.121-0.049-0.024 0-0.049 0-0.073-0.024 0-0.024 0-0.024 0-0.049v-1.019h-1.335v-0.728h0.68v-1.942h-0.68v-0.704h-0zM89.441 27.286v0.68c-0.121 0-0.243 0.024-0.34 0.073s-0.17 0.121-0.243 0.218c-0.049 0.097-0.097 0.194-0.145 0.34-0.025 0.121-0.049 0.267-0.049 0.437 0 0.146 0.024 0.291 0.049 0.413 0.024 0.146 0.073 0.242 0.121 0.34 0.073 0.097 0.146 0.17 0.243 0.243 0.097 0.049 0.218 0.073 0.364 0.073v0 0.704h-0.024c-0.292 0-0.534-0.049-0.728-0.121-0.218-0.073-0.388-0.194-0.51-0.34-0.146-0.146-0.243-0.316-0.316-0.534-0.049-0.218-0.097-0.461-0.097-0.752 0-0.243 0.049-0.51 0.121-0.728s0.17-0.388 0.316-0.558c0.146-0.146 0.316-0.267 0.534-0.364 0.195-0.073 0.437-0.122 0.704-0.122zM84.247 31.752c0 0.024 0 0.024 0 0.049-0.024 0.024-0.049 0.024-0.073 0.024-0.024 0.024-0.073 0.024-0.121 0.049-0.049 0-0.097 0-0.17 0s-0.146 0-0.194 0c-0.049-0.024-0.073-0.024-0.121-0.049-0.024 0-0.049 0-0.049-0.024-0.024-0.024-0.024-0.024-0.024-0.049v-1.578c0-0.073 0.024-0.121 0.049-0.146s0.049-0.024 0.121-0.024h0.17c0.073-0.097 0.146-0.218 0.218-0.34s0.121-0.267 0.17-0.461c0.073-0.194 0.121-0.413 0.17-0.655 0.049-0.267 0.097-0.558 0.121-0.922 0.024-0.049 0.024-0.073 0.024-0.121 0.024-0.024 0.024-0.049 0.049-0.073s0.049-0.049 0.073-0.049c0.025-0.024 0.073-0.024 0.121-0.024h0.607v0.704h-0.073c-0.049 0.291-0.073 0.534-0.121 0.752s-0.097 0.388-0.146 0.558c-0.073 0.146-0.121 0.267-0.17 0.364-0.073 0.097-0.121 0.194-0.17 0.267h0.68v0.728h-1.14v1.020z"></path>
</svg>
