<?xml version="1.0" encoding="utf-8"?>
<!-- Generator: Adobe Illustrator 17.0.0, SVG Export Plug-In . SVG Version: 6.00 Build 0)  -->
<!DOCTYPE svg PUBLIC "-//W3C//DTD SVG 1.1//EN" "http://www.w3.org/Graphics/SVG/1.1/DTD/svg11.dtd">
<svg version="1.1" id="Layer_1" xmlns="http://www.w3.org/2000/svg" xmlns:xlink="http://www.w3.org/1999/xlink" x="0px" y="0px"
	 width="25px" height="30px" viewBox="0 0 25 30" enable-background="new 0 0 25 30" xml:space="preserve">
<path fill="#D5D5D5" d="M12.463,0.045h0.025c1.108,0.072,2.266,1.171,4.901,3.321c8.374,6.785,7.586,4.515,7.586,11.826v12.16
	c0,0.096,0.025,0.215,0.025,0.311c0,1.314-1.084,2.365-2.438,2.365H12.488h-0.025v-5.639c3.892-0.024,7.783-2.342,7.118-6.88
	c-0.172-1.266-0.788-2.532-1.798-3.775c-0.616-0.788-1.305-1.601-1.97-2.509c-0.911-1.218-1.699-2.174-2.389-3.464l-0.296-0.573
	l-0.271-0.597l-0.271-0.597l-0.099-0.311l-0.025,0.048L12.463,0.045z M0.001,27.352v-12.16c0-7.311-0.788-5.041,7.586-11.826
	c2.635-2.126,3.768-3.225,4.877-3.321v5.686l-0.099,0.263l-0.271,0.597l-0.271,0.597l-0.271,0.573
	c-0.69,1.29-1.478,2.246-2.389,3.464c-0.69,0.908-1.379,1.72-1.995,2.509c-1.059,1.314-1.675,2.652-1.823,3.99
	c-0.468,4.468,3.325,6.665,7.118,6.665v5.638H2.414c-1.355,0-2.438-1.052-2.438-2.365C-0.024,27.566-0.024,27.447,0.001,27.352z"/>
</svg>
