<?xml version="1.0" encoding="utf-8"?>
<!-- Generator: Adobe Illustrator 21.1.0, SVG Export Plug-In . SVG Version: 6.00 Build 0)  -->
<svg version="1.1" id="Слой_1" xmlns="http://www.w3.org/2000/svg" xmlns:xlink="http://www.w3.org/1999/xlink" x="0px" y="0px"
	 viewBox="0 0 15 12.7" style="enable-background:new 0 0 15 12.7;" xml:space="preserve">
<style type="text/css">
	.st0{fill:#8FC636;}
</style>
<title></title>
<g id="icomoon-ignore">
</g>
<path class="st0" d="M6.9,8.1v3.5c0,0.6-0.5,1.2-1.2,1.2H1.2c-0.6,0-1.2-0.5-1.2-1.2V8.1c0-0.6,0.5-1.2,1.2-1.2h4.6
	C6.4,6.9,6.9,7.4,6.9,8.1z M6.9,1.2v3.5c0,0.6-0.5,1.2-1.2,1.2H1.2C0.5,5.8,0,5.2,0,4.6V1.2C0,0.5,0.5,0,1.2,0h4.6
	C6.4,0,6.9,0.5,6.9,1.2z M15,8.1v3.5c0,0.6-0.5,1.2-1.2,1.2H9.2c-0.6,0-1.2-0.5-1.2-1.2V8.1c0-0.6,0.5-1.2,1.2-1.2h4.6
	C14.5,6.9,15,7.4,15,8.1z M15,1.2v3.5c0,0.6-0.5,1.2-1.2,1.2H9.2c-0.6,0-1.2-0.5-1.2-1.2V1.2C8.1,0.5,8.6,0,9.2,0h4.6
	C14.5,0,15,0.5,15,1.2z"/>
</svg>
